<svg width="79" height="25" viewBox="0 0 79 25" fill="none" xmlns="http://www.w3.org/2000/svg">
<g id="cnil.svg" clip-path="url(#clip0_1792_5017)">
<g id="Clip path group">
<mask id="mask0_1792_5017" style="mask-type:luminance" maskUnits="userSpaceOnUse" x="0" y="0" width="79" height="25">
<g id="a">
<path id="Vector" d="M78.2556 0.632812H0V24.6328H78.2556V0.632812Z" fill="white"/>
</g>
</mask>
<g mask="url(#mask0_1792_5017)">
<g id="Group">
<path id="Vector_2" d="M78.257 20.1401H74.1055V24.2917H78.257V20.1401Z" fill="white"/>
<path id="Vector_3" d="M16.7774 19.8554L17.2321 23.6658C15.1846 24.2916 12.7394 24.6328 9.78189 24.6328C6.1991 24.6328 3.63982 23.7228 2.21811 21.96C0.73937 20.1401 0 17.069 0 12.6328C0 8.19659 0.73937 5.12556 2.21811 3.30565C3.69685 1.48574 6.1991 0.632812 9.78189 0.632812C12.3982 0.632812 14.7299 0.916954 16.7769 1.42921L16.3222 5.23961C14.5023 5.12606 12.3412 5.06903 9.78189 5.06903C8.07554 5.06903 6.93847 5.58078 6.31266 6.66132C5.68684 7.74186 5.4027 9.73236 5.4027 12.6328C5.4027 15.5333 5.68684 17.5237 6.31266 18.6043C6.93847 19.6848 8.07554 20.1966 9.78189 20.1966C12.91 20.1966 15.2421 20.083 16.7774 19.8554Z" fill="white"/>
<path id="Vector_4" d="M40.1515 1.03066V22.3579C40.1515 23.609 39.5257 24.2348 38.3316 24.2348H35.147C34.6352 24.2348 34.237 24.1212 33.9529 23.8936C33.6687 23.666 33.3841 23.2678 33.0999 22.7561L26.9579 10.3578C26.2185 8.7085 25.7067 7.51441 25.5362 6.77504H25.138C25.3085 7.9126 25.3656 9.1067 25.3656 10.4719V24.2348H20.4746V2.85057C20.4746 1.59945 21.1004 0.973633 22.3516 0.973633H25.4796C25.9914 0.973633 26.3896 1.08719 26.6737 1.3148C26.9579 1.54242 27.2425 1.94062 27.5267 2.45237L33.4411 14.4524C34.0099 15.59 34.5787 16.8411 35.1475 18.2058H35.4886C35.3751 16.4429 35.261 15.1347 35.261 14.2818V1.03066H40.1515Z" fill="white"/>
<path id="Vector_5" d="M49.9897 24.2344H44.8711V1.03076H49.9897V24.2344Z" fill="white"/>
<path id="Vector_6" d="M69.4981 24.2914H59.9438C58.1239 24.2914 56.8158 23.8367 55.9058 22.9267C55.0529 22.0168 54.5977 20.8227 54.5977 19.344V1.03076H59.7162V18.3199C59.7162 18.9458 59.8298 19.3434 60.1144 19.6281C60.3991 19.9127 60.8538 20.0263 61.5361 20.0263H69.4981V24.2914Z" fill="white"/>
</g>
</g>
</g>
</g>
<defs>
<clipPath id="clip0_1792_5017">
<rect width="79" height="24" fill="white" transform="translate(0 0.632812)"/>
</clipPath>
</defs>
</svg>
