<svg width="270" height="372" viewBox="0 0 270 372" fill="none" xmlns="http://www.w3.org/2000/svg">
<g id="Group 1">
<path id="Vector" d="M148.876 278.026L132.697 369.397L176.214 371.279L148.876 278.026Z" fill="#252C5E"/>
<path id="Vector_2" d="M232.577 143.928C232.577 143.928 235.226 151.015 220.175 164.884C205.124 178.758 134.361 222.429 117.699 204.045C101.032 185.661 110.429 176.046 133.661 163.813C150.868 156.283 173.184 139.167 184.294 127.531C195.404 115.896 203.725 115.336 203.725 115.336" fill="#50B2E5"/>
<path id="Vector_3" d="M130.463 112.124C130.463 112.124 158.066 144.208 171.751 188.232L134.689 184.599L131.621 133.32L130.463 112.124Z" fill="#50B2E5"/>
<path id="Vector_4" d="M177.42 96.1759C177.42 96.1759 142.832 107.035 86.613 80.7439L98.5717 64.7861L171.047 81.5929C171.047 81.5929 179.832 82.1381 177.42 96.1759Z" fill="#252C5E"/>
<path id="Vector_5" d="M166.055 56.209C166.055 56.209 184.998 70.4398 177.42 96.1806C177.42 96.1806 168.635 81.9498 152.972 85.0661C137.308 88.1873 166.055 56.209 166.055 56.209Z" fill="#234C9A"/>
<path id="Vector_6" d="M168.626 52.2676L178.307 62.919L169.2 70.5795L164.424 65.5191L166.387 53.3674L168.626 52.2676Z" fill="#F8B78F"/>
<path id="Vector_7" d="M165.08 21.4035C165.08 21.4035 172.21 32.2141 169.219 55.2053C169.219 55.2053 170.502 66.175 169.663 72.9962C168.823 79.8173 168.447 87.2028 163.589 90.5651C158.732 93.9275 139.291 91.0331 129.474 86.5468C129.474 86.5468 118.258 82.8082 116.575 74.5833C115.74 70.4973 109.377 46.4304 116.715 31.394C124.153 16.1502 145.302 9.96582 145.302 9.96582L165.085 21.4035H165.08Z" fill="#F8B78F"/>
<path id="Vector_8" d="M169.947 44.0766C170.232 47.217 170.218 50.4829 170.135 53.6378L169.933 53.0927C172.986 56.1269 175.91 59.3204 178.303 62.9191C174.82 60.3624 171.766 57.2943 168.876 54.096C168.732 53.9513 168.655 53.7439 168.674 53.5509C168.954 50.4105 169.301 47.164 169.938 44.0718L169.947 44.0766Z" fill="#E84C79"/>
<path id="Vector_9" d="M170.271 70.0439C170.377 75.2007 169.88 80.3286 168.409 85.3118C166.677 90.9945 160.98 93.3148 155.524 92.0268C160.599 91.9496 165.427 89.9815 166.937 84.8343C168.438 80.0054 169.156 74.9885 170.275 70.0391L170.271 70.0439Z" fill="#E84C79"/>
<g id="Group">
<path id="Vector_10" d="M153.695 46.5415C153.695 46.5415 155.606 56.2715 166.768 51.7514C166.768 51.7514 164.11 40.1834 153.695 46.5415Z" fill="white"/>
<g id="Clip path group">
<mask id="mask0_39_7442" style="mask-type:luminance" maskUnits="userSpaceOnUse" x="153" y="44" width="14" height="9">
<g id="clippath-8">
<path id="Vector_11" d="M153.695 46.5415C153.695 46.5415 155.606 56.2715 166.768 51.7514C166.768 51.7514 164.11 40.1834 153.695 46.5415Z" fill="white"/>
</g>
</mask>
<g mask="url(#mask0_39_7442)">
<g id="Group_2">
<path id="Vector_12" d="M164.419 50.8631C165.069 48.8554 164.232 46.7872 162.552 46.2437C160.871 45.7002 158.982 46.8872 158.333 48.8949C157.684 50.9026 158.52 52.9707 160.201 53.5142C161.881 54.0577 163.77 52.8708 164.419 50.8631Z" fill="#0E0E1C"/>
</g>
</g>
</g>
</g>
<path id="Vector_13" d="M156.85 11.278C156.85 11.278 188.259 16.2371 184.27 49.3828C184.27 49.3828 171.202 43.1502 162.943 42.3687C162.943 42.3687 164.434 31.7414 160.02 19.4547C160.02 19.4547 162.205 36.8645 159.069 41.5438L152.48 40.5838C152.48 40.5838 154.935 29.7057 151.066 20.762C151.066 20.762 149.455 45.6683 127.231 44.5781C127.231 44.5781 124.525 2.30537 156.841 11.2732L156.85 11.278Z" fill="#234C9A"/>
<path id="Vector_14" d="M117.732 89.3691C117.732 89.3691 72.2035 91.8872 50.1675 56.2089L109.469 42.1855L120.829 73.966L117.732 89.3691Z" fill="#252C5E"/>
<path id="Vector_15" d="M167.757 75.0515C167.757 75.0515 165.755 75.2251 163.753 73.4644" stroke="#0E0E1C" stroke-width="1.82665" stroke-linecap="round" stroke-linejoin="round"/>
<path id="Vector_16" d="M99.2903 118.781L125.967 127.406L140.603 80.7631L114.336 72.2681L99.2903 118.781Z" fill="#F8B78F"/>
<path id="Vector_17" d="M170.271 19.5416C170.271 19.5416 163.753 -0.579256 137.863 1.09949C110.824 2.85543 113.772 26.4737 87.7512 30.5645C62.0779 34.6022 50.1675 56.2088 50.1675 56.2088C50.1675 56.2088 72.2855 72.8468 82.961 66.0208C93.6365 59.1949 103.101 50.9603 103.101 50.9603L94.4855 68.2543C94.4855 68.2543 115.325 72.4078 117.732 89.369C117.732 89.369 134.433 82.3501 132.021 59.3444C129.609 36.3388 133.121 21.5146 133.121 21.5146L170.271 19.5416Z" fill="#234C9A"/>
<path id="Vector_18" d="M132.229 62.9961C133.768 71.0088 130.714 79.7643 124.607 85.1624C122.561 86.9569 120.231 88.3993 117.733 89.3737C119.923 87.83 121.958 86.1657 123.767 84.294C129.243 78.5921 131.949 70.8399 132.229 63.0009V62.9961Z" fill="#E84C79"/>
<path id="Vector_19" d="M134.924 61.5538C138.936 58.3158 139.101 51.8675 135.295 47.1512C131.488 42.4349 125.149 41.2364 121.138 44.4745C117.126 47.7125 116.961 54.1608 120.768 58.8771C124.575 63.5934 130.913 64.7919 134.924 61.5538Z" fill="#F8B78F"/>
<path id="Vector_20" d="M95.6434 284.061C95.6434 284.061 -6.34071 297.351 10.2297 269.333C10.2297 269.333 38.4404 241.894 82.1748 252.927C125.909 263.954 95.6386 284.065 95.6386 284.065L95.6434 284.061Z" fill="#234C9A"/>
<path id="Vector_21" d="M113.256 107.671C113.256 107.671 117.241 111.207 132.952 131.333C148.659 151.464 192.857 259.811 192.857 259.811C192.857 259.811 172.562 283.675 76.5164 286.386L98.9576 120.489L113.256 107.667V107.671Z" fill="#234C9A"/>
<path id="Vector_22" d="M192.857 259.81C192.857 270.881 178.626 276.55 178.626 276.55L161.53 171.57L192.852 259.81H192.857Z" fill="#50B2E5"/>
<path id="Vector_23" d="M74.0659 250.312L50.5972 361.824L134.322 363.821L153.064 257.62L74.0659 250.312Z" fill="#E84C79"/>
<path id="Vector_24" d="M107.043 273.072L92.4839 350.125" stroke="#0E0E1C" stroke-width="1.82665" stroke-linecap="round" stroke-linejoin="round"/>
<path id="Vector_25" d="M152.74 261.335L166.107 174.566L139.759 135.897C127.93 115.038 117.853 108.067 96.0195 99.2148L70.269 261.335H152.745H152.74Z" fill="white"/>
<path id="Vector_26" d="M43.057 209.048C43.057 209.048 28.8311 246.381 10.2297 269.333C10.2297 269.333 27.7939 255.932 57.6255 264.292C80.0137 270.568 91.2439 284.447 119.947 286.781C119.947 286.781 136.975 247.905 137.868 201.107C138.76 154.31 122.233 120.079 122.233 120.079L61.8224 171.493L43.057 209.048Z" fill="#50B2E5"/>
<path id="Vector_27" d="M139.759 135.897L142.349 118.197L105.18 99.2148L104.061 102.683L139.759 135.897Z" fill="white"/>
<path id="Vector_28" d="M94.2878 98.4719L105.533 98.1294L104.061 102.683L94.2878 98.4719Z" fill="#234C9A"/>
<path id="Vector_29" d="M138.095 89.4991L127.415 86.624L131.158 110.86L138.095 89.4991Z" fill="#E84C79"/>
<path id="Vector_30" d="M122.233 120.079C122.233 120.079 110.308 94.4438 90.0426 99.0121C69.7722 103.58 38.3294 157.156 22.6418 188.232C1.31487 230.476 119.455 196.587 119.455 196.587C119.455 196.587 137.511 251.224 137.868 207.702C138.225 164.18 122.238 120.083 122.238 120.083L122.233 120.079Z" fill="#50B2E5"/>
<path id="Vector_31" d="M131.934 56.9519C131.934 56.9519 131.539 52.1279 125.465 48.0371" stroke="#0E0E1C" stroke-width="1.82665" stroke-linecap="round" stroke-linejoin="round"/>
<path id="Vector_32" d="M131.616 55.5817C131.616 55.5817 128.562 54.2599 125.451 56.5658" stroke="#0E0E1C" stroke-width="1.82665" stroke-linecap="round" stroke-linejoin="round"/>
<path id="Vector_33" d="M91.6298 150.672L82.2085 186.008" stroke="#0E0E1C" stroke-width="1.82665" stroke-linecap="round" stroke-linejoin="round"/>
<path id="Vector_34" d="M165.085 44.0765L161.018 42.7837" stroke="#0E0E1C" stroke-width="1.82665" stroke-linecap="round" stroke-linejoin="round"/>
<path id="Vector_35" d="M142.349 127.628C142.349 127.628 158.254 150.368 171.747 188.232" stroke="#0E0E1C" stroke-width="1.82665" stroke-linecap="round" stroke-linejoin="round"/>
<path id="Vector_36" d="M172.181 66.7637L170.073 67.8153" stroke="#0E0E1C" stroke-width="1.82665" stroke-linecap="round" stroke-linejoin="round"/>
<g id="Group_3">
<g id="Group_4">
<path id="Vector_37" d="M219.668 128.786C227.908 136.663 236.639 140.899 239.177 138.25C241.709 135.602 237.083 127.068 228.844 119.191C220.604 111.313 213.113 106.229 210.58 108.877C208.047 111.526 211.429 120.908 219.668 128.786Z" fill="#234C9A"/>
<path id="Vector_38" d="M237.068 110.228L216.031 141.01L203.957 123.639L221.892 103.841L237.068 110.228Z" fill="#F8B78F"/>
<g id="Group_5">
<path id="Vector_39" d="M206.822 113.089L207.102 112.809C207.068 112.857 207.039 112.9 207.005 112.949C206.947 112.997 206.875 113.031 206.822 113.089Z" fill="#50B2E5"/>
<path id="Vector_40" d="M203.904 126.456C200.339 119.408 205.066 114.381 205.066 114.381L210.575 108.877C210.237 109.229 210.016 109.702 209.885 110.271C209.147 112.027 210.58 115.959 211.062 116.822C212.616 120.493 215.529 124.83 219.663 128.781C226.769 135.573 234.232 139.645 237.778 138.945L232.577 143.924C222.596 153.243 207.464 133.499 203.904 126.456Z" fill="#50B2E5"/>
</g>
<g id="Group_6">
<path id="Vector_41" d="M219.451 101.738C219.451 101.738 217.478 98.9687 218.192 95.9971C218.906 93.0304 218.761 90.4399 217.912 86.9666C217.063 83.4933 219.731 83.6188 219.731 83.6188C219.731 83.6188 219.196 82.3693 220.633 79.6341C222.071 76.8989 225.283 70.6133 228.419 70.5602C231.555 70.5071 232.886 72.3692 232.876 74.1734C232.876 74.1734 235.655 70.3962 238.549 71.086C241.444 71.7758 241.96 74.2409 241.96 74.2409C241.96 74.2409 248.033 71.4478 250.46 72.3113C252.886 73.1796 254.068 75.6109 253.446 77.7865C252.824 79.9622 250.971 85.4374 250.971 85.4374C250.971 85.4374 253.075 86.0356 255.332 84.3858C257.59 82.736 258.381 80.5314 258.381 80.5314C258.381 80.5314 256.21 77.8589 257.402 75.9486C258.593 74.0383 260.344 73.7006 263.051 75.7267C265.757 77.7528 265.945 81.747 264.585 84.4244C263.224 87.1017 258.67 91.0429 257.657 93.4211C256.644 95.7993 242.698 116.692 232.018 113.846C232.018 113.846 226.118 117.556 219.451 101.738Z" fill="#F8B78F"/>
<path id="Vector_42" d="M218.573 82.3694C223.571 88.7322 227.816 81.969 227.816 81.969L233.499 72.8082" stroke="#0E0E1C" stroke-width="1.43999" stroke-linecap="round" stroke-linejoin="round"/>
<path id="Vector_43" d="M243.846 73.0977C243.846 73.0977 235.64 76.542 234.907 79.8319C234.174 83.1219 239.104 83.7394 244.266 81.2261L248.665 79.2868" stroke="#0E0E1C" stroke-width="1.82665" stroke-linecap="round" stroke-linejoin="round"/>
<path id="Vector_44" d="M257.228 79.282C257.228 79.282 258.579 82.6105 263.654 82.2391" stroke="#0E0E1C" stroke-width="1.82665" stroke-linecap="round" stroke-linejoin="round"/>
<path id="Vector_45" d="M251.28 85.4374C251.28 85.4374 251.439 87.8011 254.55 90.6135" stroke="#0E0E1C" stroke-width="1.82665" stroke-linecap="round" stroke-linejoin="round"/>
<path id="Vector_46" d="M217.488 86.0162C217.488 86.0162 217.309 91.12 223.793 93.1316" stroke="#0E0E1C" stroke-width="1.43999" stroke-linecap="round" stroke-linejoin="round"/>
<path id="Vector_47" d="M220.175 104.883C220.175 104.883 231.555 101.347 226.953 90.8547" stroke="#0E0E1C" stroke-width="1.82665" stroke-linecap="round" stroke-linejoin="round"/>
</g>
<path id="Vector_48" d="M251.922 95.7463C251.922 95.7463 245.202 85.6642 235.771 87.1114" stroke="#0E0E1C" stroke-width="1.82665" stroke-linecap="round" stroke-linejoin="round"/>
</g>
<g id="Group_7">
<path id="Vector_49" d="M264.85 97.9653C265.882 98.2692 266.934 98.578 268 98.8867" stroke="white" stroke-width="3.23997" stroke-linecap="round" stroke-linejoin="round"/>
<path id="Vector_50" d="M230.908 86.986C237.821 89.4462 248.077 92.9243 261.029 96.8269" stroke="#E84C79" stroke-width="3.23997" stroke-linecap="round" stroke-linejoin="round"/>
<path id="Vector_51" d="M216.716 84.188C219.659 83.5175 220.797 83.228 220.797 83.228" stroke="#E84C79" stroke-width="3.23997" stroke-linecap="round" stroke-linejoin="round"/>
<path id="Vector_52" d="M197.396 88.3512C203.744 87.0294 208.53 86.0019 212.066 85.2252" stroke="#50B2E5" stroke-width="3.23997" stroke-linecap="round" stroke-linejoin="round"/>
<path id="Vector_53" d="M187.155 90.4592C189.185 90.0444 191.105 89.6536 192.919 89.2773" stroke="white" stroke-width="3.23997" stroke-linecap="round" stroke-linejoin="round"/>
<path id="Vector_54" d="M162.793 95.3315C168.066 94.2943 172.89 93.3343 177.299 92.4515" stroke="white" stroke-width="3.23997" stroke-linecap="round" stroke-linejoin="round"/>
<path id="Vector_55" d="M140.27 99.7212C141.549 99.4752 142.808 99.2292 144.052 98.9928" stroke="#E84C79" stroke-width="3.23997" stroke-linecap="round" stroke-linejoin="round"/>
<path id="Vector_56" d="M131.158 101.472C132.417 101.231 133.657 100.995 134.877 100.758" stroke="#E84C79" stroke-width="3.23997" stroke-linecap="round" stroke-linejoin="round"/>
<path id="Vector_57" d="M116.063 104.328C118.157 103.942 120.265 103.552 122.388 103.146C123.28 102.977 124.163 102.809 125.041 102.64" stroke="#50B2E5" stroke-width="3.23997" stroke-linecap="round" stroke-linejoin="round"/>
<path id="Vector_58" d="M90.8049 108.602C96.9362 107.652 103.222 106.61 109.643 105.481" stroke="white" stroke-width="3.23997" stroke-linecap="round" stroke-linejoin="round"/>
<path id="Vector_59" d="M79.9414 110.228C81.1956 110.049 82.4595 109.861 83.7331 109.673" stroke="white" stroke-width="3.23997" stroke-linecap="round" stroke-linejoin="round"/>
<path id="Vector_60" d="M40.7898 115.066C50.7562 114.034 61.6681 112.751 73.318 111.159" stroke="white" stroke-width="3.23997" stroke-linecap="round" stroke-linejoin="round"/>
<path id="Vector_61" d="M2 118.274C9.54473 117.816 18.7779 117.15 29.3762 116.181" stroke="white" stroke-width="3.23997" stroke-linecap="round" stroke-linejoin="round"/>
</g>
<g id="Vector_62">
<path d="M223.793 93.1365C217.309 91.1201 217.488 86.0211 217.488 86.0211C217.488 86.0211 217.049 82.9676 221.313 82.9193" fill="#F8B78F"/>
<path d="M223.793 93.1365C217.309 91.1201 217.488 86.0211 217.488 86.0211C217.488 86.0211 217.049 82.9676 221.313 82.9193" stroke="#0E0E1C" stroke-width="1.82665" stroke-linecap="round" stroke-linejoin="round"/>
</g>
<g id="Vector_63">
<path d="M232.486 74.4387L227.816 81.9642C227.816 81.9642 224.545 86.5759 221.067 84.6125C220.71 84.4099 220.406 84.1157 220.209 83.7539C219.784 82.9675 219.591 80.9222 220.971 78.5005" fill="#F8B78F"/>
<path d="M232.486 74.4387L227.816 81.9642C227.816 81.9642 224.545 86.5759 221.067 84.6125C220.71 84.4099 220.406 84.1157 220.209 83.7539C219.784 82.9675 219.591 80.9222 220.971 78.5005" stroke="#0E0E1C" stroke-width="1.82665" stroke-linecap="round" stroke-linejoin="round"/>
</g>
<g id="Vector_64">
<path d="M227.208 82.7697C227.208 82.7697 222.78 87.888 225.79 90.2566C228.795 92.6251 232.548 87.9555 236.162 82.3741" fill="#F8B78F"/>
<path d="M227.208 82.7697C227.208 82.7697 222.78 87.888 225.79 90.2566C228.795 92.6251 232.548 87.9555 236.162 82.3741" stroke="#0E0E1C" stroke-width="1.82665" stroke-linecap="round" stroke-linejoin="round"/>
</g>
<path id="Vector_65" d="M147.395 98.4719L158.814 96.1757" stroke="white" stroke-width="3.23997" stroke-linecap="round" stroke-linejoin="round"/>
</g>
<g id="bras" class="bras-anim">
    <animateTransform
        attributeName="transform"
        type="rotate"
        values="0 180 200;2.5 180 200;0 180 200"
        dur="2s"
        repeatCount="indefinite"/>
    <g id="Group 2">
        <path id="Vector_66" d="M170.071 210.164C170.613 223.207 174.458 233.639 178.651 233.463C182.844 233.288 185.806 222.575 185.259 209.532C184.716 196.489 182.576 186.346 178.378 186.521C174.185 186.697 169.524 197.126 170.066 210.169L170.071 210.164Z" fill="#234C9A"/>
        <path id="Vector_67" d="M192.424 207.815C192.424 207.815 203.27 213.054 210.139 209.189C217.008 205.329 220.136 201.735 225.562 201.599C230.987 201.462 238.276 203.945 238.631 199.612C238.987 195.28 230.009 192.663 225.567 193.88C221.13 195.097 213.305 196.321 213.022 189.882C212.74 183.443 188.577 201.442 192.425 207.819L192.424 207.815Z" fill="#234C9A"/>
        <path id="Vector_68" d="M187.836 207.309C187.836 207.309 192.963 209.408 200.401 205.808C207.839 202.208 209.716 192.933 214.709 187.873C219.702 182.814 227.699 185.952 229.952 187.862C232.206 189.772 235.795 191.645 236.842 191.923C236.842 191.923 242.489 201.848 245.082 202.298C247.675 202.748 249.872 201.802 248.139 198.064C248.139 198.064 251.779 200.418 254.216 197.354C254.216 197.354 254.466 196.506 252.839 194.97C251.216 193.433 246.584 190.158 246.584 190.158C246.584 190.158 246.476 188.449 244.65 188.257C242.823 188.065 236.928 181.938 236.928 181.938C236.928 181.938 242.496 183.539 247.815 184.902C253.133 186.266 258.782 189.211 259.88 184.578C259.88 184.578 260.348 183.601 257.374 182.749C254.395 181.897 242.019 177.053 242.019 177.053C242.019 177.053 221.646 167.015 214.006 171.192C206.361 175.369 182.78 193.42 182.78 193.42L187.831 207.304L187.836 207.309Z" fill="#F8B78F"/>
        <path id="Vector_69" d="M191.301 207.164L165.534 220.956L162.857 196.418L182.784 193.424L191.301 207.164Z" fill="#F8B78F"/>
        <g id="Group_8">
            <path id="Vector_70" d="M178.382 186.516L178.836 186.51C178.769 186.522 178.711 186.534 178.644 186.551C178.557 186.544 178.474 186.518 178.382 186.521L178.382 186.516Z" fill="#50B2E5"/>
            <path id="Vector_71" d="M158.913 195.725C161.566 187.079 169.463 186.683 169.463 186.683L178.382 186.516C177.828 186.536 177.261 186.753 176.704 187.12C174.702 187.982 173.362 189.684 172.471 193.461C170.838 197.727 169.799 203.614 170.071 210.164C170.541 221.409 173.462 230.695 176.948 232.934L168.703 232.913C153.065 232.672 156.261 204.367 158.913 195.725Z" fill="#50B2E5"/>
        </g>
        <path id="Vector_72" d="M236.847 191.923C236.847 191.923 245.354 195.419 246.589 190.158" stroke="#0E0E1C" stroke-width="1.82665" stroke-linecap="round" stroke-linejoin="round"/>
        <path id="Vector_73" d="M244.074 188.069C244.074 188.069 233.685 182.374 230.06 179.894C226.44 177.414 221.612 175.725 212.267 179.159" stroke="#0E0E1C" stroke-width="1.82665" stroke-linecap="round" stroke-linejoin="round"/>
        <path id="Vector_74" d="M215.622 176.141C215.622 176.141 224.064 173.916 227.572 175.531C231.079 177.146 237.833 182.852 237.833 182.852" stroke="#0E0E1C" stroke-width="1.82665" stroke-linecap="round" stroke-linejoin="round"/>
        <path id="Vector_75" d="M215.924 174.142C215.924 174.142 224.71 171.953 227.615 173.599C230.52 175.244 236.317 181.597 236.317 181.597" stroke="#0E0E1C" stroke-width="1.82665" stroke-linecap="round" stroke-linejoin="round"/>
        <path id="Vector_76" d="M248.144 198.069C248.144 198.069 242.161 194.952 239.662 192.794" stroke="#0E0E1C" stroke-width="1.82665" stroke-linecap="round" stroke-linejoin="round"/>
        <path id="Vector_77" d="M168.703 232.913C168.703 232.913 166.575 242.742 143.137 242.238C119.704 241.734 16.402 236.469 17.249 208.062C17.5228 198.901 19.8321 192.323 23.8094 187.898L41.8652 189.092L69.6437 187.002C89.8247 194.455 123.476 181.821 141.878 181.043C160.28 180.265 167.595 186.41 167.595 186.41" fill="#50B2E5"/>
        <path id="Vector_78" d="M15.9535 207.866C15.1017 236.274 119.704 241.734 143.137 242.238C166.57 242.743 168.703 232.913 168.703 232.913L178.651 233.463" stroke="#0E0E1C" stroke-width="1.82665" stroke-linecap="round" stroke-linejoin="round"/>
        <path id="Vector_79" d="M68.2781 186.601C88.3352 194.377 122.167 181.104 142.673 181.131C161.093 181.154 168.303 186.912 168.303 186.912L178.383 186.521" stroke="#0E0E1C" stroke-width="1.82665" stroke-linecap="round" stroke-linejoin="round"/>
    </g>
</g>
<path id="Vector_80" d="M142.557 1.03174C142.557 1.03174 128.587 5.31545 114.245 15.523C99.9031 25.7258 99.9272 25.1228 86.2077 27.8387C72.4883 30.5498 66.6706 35.5909 63.699 44.6358" stroke="#234C9A" stroke-width="2.14665" stroke-miterlimit="10"/>
<path id="Vector_81" d="M167.758 15.2051C167.758 15.2051 174.661 15.3932 178.92 21.5004C183.18 27.6076 184.077 44.0815 184.077 44.0815" stroke="#234C9A" stroke-width="2.14665" stroke-miterlimit="10"/>
<path id="Vector_82" d="M153.695 46.5415C153.695 46.5415 163.218 41.1145 166.768 51.7514" stroke="#0E0E1C" stroke-width="1.82665" stroke-linecap="round" stroke-linejoin="round"/>
</g>
</svg>
