<svg width="29" height="29" viewBox="0 0 29 29" fill="none" xmlns="http://www.w3.org/2000/svg">
<path d="M19.6321 20.5389C18.1328 21.8377 16.1787 22.626 14.0379 22.626C9.31355 22.626 5.4828 18.7893 5.4828 14.057C5.4828 12.7185 5.79061 11.4496 6.33673 10.3196L2.63705 7.47583C1.519 9.41404 0.877563 11.6601 0.877563 14.057C0.877563 21.3372 6.77163 27.2392 14.0399 27.2392C17.6701 27.2392 20.9587 25.7657 23.3398 23.3847L19.6321 20.5369V20.5389Z" fill="#0F2548"/>
<path d="M20.8214 8.84586C21.9295 10.2896 22.5908 12.0987 22.5908 14.0608C22.5908 15.3992 22.283 16.6682 21.7369 17.7982L25.4386 20.6419C26.5566 18.7037 27.198 16.4577 27.198 14.0608C27.198 11.0403 26.1813 8.26003 24.4754 6.03784L20.8214 8.84388V8.84586Z" fill="#909090"/>
<path d="M14.0382 0.878662C10.4081 0.878662 7.11946 2.35218 4.7384 4.73324L8.44404 7.58098C9.94337 6.28222 11.8975 5.49383 14.0382 5.49383C16.8026 5.49383 19.2591 6.80848 20.824 8.84598L24.478 6.03994C22.0711 2.90028 18.292 0.878662 14.0382 0.878662Z" fill="url(#paint0_linear_15_25927)"/>
<path d="M24.4876 6.05174C24.4876 6.05174 24.4797 6.04181 24.4777 6.03784L20.8237 8.84388C21.9318 10.2876 22.5931 12.0967 22.5931 14.0588C22.5931 15.3973 22.2853 16.6662 21.7392 17.7962C23.2881 16.8291 24.5392 15.3575 25.2224 13.5127C26.1716 10.9429 25.8142 8.21436 24.4876 6.04777V6.05174Z" fill="url(#paint1_linear_15_25927)"/>
<path d="M14.0377 22.6258C9.31331 22.6258 5.48256 18.7891 5.48256 14.0567C5.48256 12.7183 5.79038 11.4493 6.33649 10.3193H6.3345C5.78442 11.344 5.3932 12.476 5.19461 13.6874C4.22352 19.6152 8.233 25.2074 14.1469 26.1825C17.6083 26.7524 20.9585 25.6125 23.3375 23.3844L19.6319 20.5366C18.1326 21.8354 16.1785 22.6238 14.0377 22.6238V22.6258Z" fill="url(#paint2_linear_15_25927)"/>
<path d="M23.6355 5.3429C18.8238 1.7584 12.0221 2.76126 8.4436 7.577C9.94294 6.27824 11.897 5.48985 14.0378 5.48985C16.8021 5.48985 19.2587 6.8045 20.8235 8.842L24.4755 6.03596C24.2114 5.79567 23.9334 5.56333 23.6375 5.3429H23.6355Z" fill="#0F2548"/>
<path d="M17.9262 16.5234V11.5964L14.0379 8.60767L10.1516 11.5964V16.5234L14.0379 19.5121L17.9262 16.5234Z" fill="url(#paint3_linear_15_25927)"/>
<defs>
<linearGradient id="paint0_linear_15_25927" x1="24.476" y1="4.86232" x2="4.7384" y2="4.86232" gradientUnits="userSpaceOnUse">
<stop stop-color="#0084BE"/>
<stop offset="1" stop-color="#243F6C"/>
</linearGradient>
<linearGradient id="paint1_linear_15_25927" x1="25.4627" y1="14.9882" x2="20.774" y2="8.87764" gradientUnits="userSpaceOnUse">
<stop stop-color="#A2A3A2"/>
<stop offset="1" stop-color="#DBE0DF"/>
</linearGradient>
<linearGradient id="paint2_linear_15_25927" x1="5.04964" y1="18.3244" x2="23.3356" y2="18.3244" gradientUnits="userSpaceOnUse">
<stop stop-color="#0084BE"/>
<stop offset="1" stop-color="#243F6C"/>
</linearGradient>
<linearGradient id="paint3_linear_15_25927" x1="16.6712" y1="10.6293" x2="11.4046" y2="17.4925" gradientUnits="userSpaceOnUse">
<stop stop-color="#C32B26"/>
<stop offset="1" stop-color="#983B67"/>
</linearGradient>
</defs>
</svg>
