<svg width="122" height="86" viewBox="0 0 122 86" fill="none" xmlns="http://www.w3.org/2000/svg">
<rect width="33" height="12" transform="translate(0 16.0003)" fill="white"/>
<path d="M10.6562 26.55C10.6602 26.55 10.6642 26.5441 10.6642 26.5441C10.696 26.5206 10.7279 26.4912 10.7558 26.4559C10.7518 26.4559 10.7478 26.4559 10.7438 26.45C10.7159 26.4794 10.6841 26.5147 10.6562 26.55Z" fill="#000091"/>
<path d="M15.0694 25.0631L14.9997 25.1231C15.0396 25.1131 15.0694 25.1031 15.0694 25.0631Z" fill="#000091"/>
<path fill-rule="evenodd" clip-rule="evenodd" d="M13.6426 26.582C13.7704 26.4534 13.8983 26.3171 14.0261 26.1768H14.0222C14.2624 25.9041 14.4948 25.643 14.7737 25.4054C14.8589 25.3275 14.9402 25.2612 15.0177 25.2067C15.0291 25.1952 15.0349 25.1782 15.0406 25.1615C15.0465 25.1441 15.0523 25.127 15.0642 25.1171C15.009 25.1381 14.965 25.1714 14.9207 25.205C14.8749 25.2396 14.8289 25.2745 14.7698 25.2963C14.7466 25.2963 14.7233 25.2729 14.7466 25.2495C14.8279 25.1911 14.9092 25.1288 14.9867 25.0664H14.9712C14.948 25.0664 14.948 25.043 14.948 25.0197C14.6596 24.9739 14.4381 25.1711 14.2399 25.3476L14.2275 25.3586C14.1966 25.3741 14.1675 25.3587 14.1446 25.3466C14.133 25.3405 14.123 25.3352 14.1152 25.3352C13.9398 25.3941 13.7885 25.5025 13.6362 25.6116C13.4959 25.7122 13.3548 25.8133 13.1933 25.8768V25.83C13.1384 25.849 13.0842 25.8736 13.0298 25.8984C12.9498 25.9347 12.8696 25.9712 12.7865 25.9898C12.6349 26.025 12.4943 26.0204 12.358 26.016C12.3133 26.0146 12.2689 26.0132 12.2249 26.0132C11.9768 26.0378 11.7319 26.0909 11.4872 26.144L11.4076 26.1612C11.4037 26.1632 11.3998 26.1641 11.3959 26.1651C11.3921 26.1661 11.3882 26.1671 11.3843 26.169C11.2371 26.208 11.1016 26.2625 10.966 26.3404L10.9505 26.3482C10.9452 26.3554 10.9398 26.3617 10.9349 26.3676C10.929 26.3745 10.9237 26.3809 10.9195 26.3872C10.873 26.4417 10.8304 26.4885 10.7646 26.5235C10.6673 26.5725 10.5832 26.6479 10.5005 26.7221C10.4647 26.7543 10.429 26.7863 10.3927 26.8158C10.385 26.8235 10.3695 26.8274 10.3578 26.8274C10.2378 26.9443 10.1177 27.0612 9.99373 27.1742C9.98598 27.182 9.95112 27.1859 9.924 27.182C9.924 27.182 9.92788 27.182 9.92788 27.1781L9.9395 27.1547L9.9976 27.0612C10.0092 27.0437 10.0199 27.0261 10.0305 27.0086C10.0412 26.9911 10.0518 26.9735 10.0634 26.956C10.0944 26.9093 10.1255 26.8625 10.1603 26.8196C10.168 26.808 10.168 26.7963 10.1603 26.7885C10.1525 26.7807 10.1409 26.7768 10.1293 26.7768C10.2416 26.6677 10.3733 26.5742 10.5089 26.4924V26.4885C10.4934 26.4924 10.4702 26.4807 10.4818 26.4651C10.4932 26.4508 10.5024 26.4344 10.5112 26.419L10.5205 26.4028C10.5225 26.3989 10.5234 26.396 10.5244 26.393C10.5254 26.3901 10.5263 26.3872 10.5283 26.3833C10.5263 26.3794 10.5234 26.3765 10.5205 26.3735C10.5176 26.3706 10.5147 26.3677 10.5128 26.3638L10.4893 26.3793C10.4612 26.3977 10.4324 26.4166 10.4082 26.4378C10.3911 26.4526 10.3751 26.4728 10.3588 26.4935C10.3232 26.5384 10.2857 26.5859 10.23 26.5859C10.2261 26.5859 10.2068 26.5859 10.1952 26.582C10.1835 26.582 10.1758 26.5781 10.1719 26.5742C10.1719 26.5723 10.1719 26.5713 10.1724 26.5708C10.1729 26.5703 10.1738 26.5703 10.1758 26.5703C10.1758 26.5703 10.1797 26.5664 10.1797 26.5625C10.1797 26.5625 10.1797 26.5586 10.1835 26.5586C10.1855 26.5547 10.1874 26.5518 10.1893 26.5489C10.1913 26.546 10.1932 26.543 10.1952 26.5391C10.1971 26.5352 10.199 26.5323 10.201 26.5294C10.2029 26.5265 10.2048 26.5235 10.2068 26.5197C10.2087 26.5177 10.2097 26.5148 10.2106 26.5119C10.2116 26.5089 10.2126 26.506 10.2145 26.5041L10.2189 26.496C10.2227 26.4892 10.2273 26.481 10.23 26.4729C10.2319 26.469 10.2339 26.4661 10.2358 26.4632C10.2378 26.4602 10.2397 26.4573 10.2416 26.4534C10.2474 26.4456 10.2523 26.4369 10.2571 26.4281C10.262 26.4193 10.2668 26.4106 10.2726 26.4028C10.2765 26.395 10.2804 26.3872 10.2881 26.3794C10.292 26.3716 10.2959 26.3648 10.2997 26.358C10.3036 26.3511 10.3075 26.3443 10.3114 26.3365C10.323 26.3171 10.3114 26.3015 10.2959 26.2976C10.3385 26.243 10.3888 26.1963 10.4508 26.1612H10.4431C10.4965 26.1343 10.5515 26.1028 10.6062 26.0715C10.6384 26.0531 10.671 26.0344 10.7026 26.0171C10.7142 26.0054 10.7258 25.9937 10.7413 25.9859C10.6135 26.0287 10.4973 26.0872 10.385 26.1651C10.385 26.1651 10.354 26.1768 10.3462 26.1846C10.3462 26.1846 10.323 26.1924 10.292 26.1651C10.2881 26.1612 10.2881 26.1573 10.2881 26.1495C10.3016 26.1224 10.3293 26.1045 10.3594 26.0851C10.3812 26.071 10.4041 26.0562 10.4237 26.0365C10.4469 26.0365 10.4663 26.0365 10.4663 26.0599C10.9124 25.7101 11.4625 25.6292 12.0144 25.548C12.3539 25.498 12.6941 25.448 13.0112 25.3352C13.0441 25.3119 13.078 25.2895 13.1119 25.2671C13.1458 25.2447 13.1797 25.2223 13.2126 25.1989C13.2691 25.1754 13.3198 25.1351 13.3734 25.0925C13.4263 25.0503 13.4822 25.0058 13.5496 24.9729C13.7278 24.8365 13.8634 24.6807 13.9331 24.4508C13.9331 24.4275 13.9099 24.4041 13.9099 24.4041C13.6155 24.7197 13.2785 24.969 12.9182 25.1521C12.5747 25.3334 12.2067 25.3602 11.8423 25.3868C11.7054 25.3968 11.569 25.4068 11.4347 25.4249C11.4579 25.3781 11.5044 25.3781 11.547 25.3781C11.547 25.3228 11.5735 25.299 11.6075 25.2684C11.6166 25.2603 11.6263 25.2516 11.6361 25.2417H11.702C11.7136 25.2417 11.7194 25.2301 11.7252 25.2184C11.731 25.2067 11.7368 25.195 11.7484 25.195C11.7949 25.195 11.8608 25.1716 11.8375 25.1716C11.802 25.1259 11.7504 25.144 11.6934 25.164C11.6386 25.1832 11.5789 25.2041 11.5238 25.1716C11.5443 25.1491 11.5504 25.1222 11.556 25.0976C11.5621 25.0711 11.5675 25.0474 11.5896 25.0352H11.6787C11.6787 24.9885 11.7252 24.9456 11.7252 24.9456C11.9272 24.8242 12.1223 24.7181 12.3137 24.6141C12.4416 24.5445 12.568 24.4758 12.6936 24.4041C12.6682 24.4041 12.6456 24.4145 12.6238 24.4247C12.589 24.4408 12.5558 24.4562 12.5154 24.4275C12.5386 24.4275 12.5386 24.4109 12.5386 24.3943C12.5386 24.3778 12.5386 24.3612 12.5619 24.3612C12.7072 24.3224 12.8365 24.2595 12.9686 24.1952C13.0619 24.1499 13.1565 24.1038 13.2591 24.0651C13.2287 24.0651 13.2005 24.0733 13.173 24.0813C13.1201 24.0967 13.0699 24.1113 13.0112 24.0651C13.0266 24.0574 13.039 24.0475 13.0513 24.0378C13.076 24.0181 13.1002 23.9989 13.1468 23.9989V23.9327C13.1468 23.9093 13.17 23.9093 13.1933 23.9093C13.17 23.9093 13.1468 23.8859 13.1468 23.8859C13.1591 23.8612 13.1833 23.8561 13.2103 23.8504C13.2343 23.8453 13.2605 23.8398 13.2824 23.8197C13.2591 23.8197 13.2165 23.8197 13.2165 23.7963C13.2824 23.7067 13.3947 23.6833 13.507 23.6599C13.4954 23.6366 13.4731 23.6366 13.4538 23.6366C13.4344 23.6366 13.4179 23.6366 13.4179 23.6132C13.4179 23.5898 13.4412 23.5898 13.4644 23.5898H13.4179C13.3815 23.5715 13.3879 23.5387 13.3924 23.5161C13.3936 23.5098 13.3947 23.5044 13.3947 23.5002C13.4857 23.393 13.5156 23.2665 13.5454 23.1406C13.5599 23.079 13.5745 23.0176 13.5961 22.9586C13.5729 22.9586 13.5496 22.9586 13.5496 22.9353C13.3318 23.177 12.9866 23.2686 12.6587 23.3556L12.6277 23.3638H12.5154C12.4031 23.4106 12.2443 23.4106 12.1319 23.3405C12.0785 23.3124 12.0404 23.2774 11.9993 23.2396C11.9718 23.2143 11.9429 23.1878 11.9073 23.1612C11.7252 23.0482 11.547 22.9586 11.3456 22.8885C10.7839 22.7093 10.199 22.6158 9.61412 22.6392C9.77746 22.5493 9.95088 22.5136 10.1266 22.4774C10.2176 22.4586 10.3093 22.4398 10.4004 22.4132C10.458 22.3962 10.515 22.3788 10.5716 22.3614C10.8929 22.2629 11.2046 22.1673 11.547 22.1872C11.5022 22.1713 11.4448 22.1771 11.392 22.1823C11.3672 22.1848 11.3434 22.1872 11.3224 22.1872C11.0634 22.1679 10.8019 22.2256 10.529 22.2857C10.4712 22.2985 10.4129 22.3113 10.354 22.3236C10.2471 22.3458 10.1455 22.3778 10.0437 22.4098C9.93151 22.445 9.81915 22.4803 9.69934 22.5028C9.64737 22.5207 9.60565 22.5512 9.56501 22.581C9.49962 22.6288 9.43704 22.6746 9.3391 22.6625V22.5924C9.56376 22.3197 9.83491 22.0509 10.1952 22.0275C10.5434 21.9708 10.8717 22.0112 11.2142 22.0533C11.2718 22.0604 11.3297 22.0675 11.3882 22.0742C11.669 22.0968 11.9317 22.1595 12.2148 22.2269L12.2443 22.234C12.3062 22.234 12.3411 22.2885 12.3748 22.3414C12.4023 22.3843 12.429 22.4261 12.4689 22.4366C12.5241 22.4556 12.5792 22.4591 12.6344 22.4627C12.7148 22.4678 12.7952 22.473 12.8756 22.5262C12.8756 22.5104 12.873 22.4952 12.8704 22.48C12.8653 22.4501 12.8602 22.4208 12.8756 22.3898C12.9256 22.3395 12.9829 22.353 13.0393 22.3663C13.0834 22.3767 13.127 22.387 13.1662 22.3664C13.289 22.2902 13.1738 22.1732 13.0585 22.056C13.0029 21.9996 12.9472 21.9431 12.9182 21.8911C12.9182 21.8677 12.9415 21.8444 12.9415 21.8444C12.9924 21.89 13.0398 21.9372 13.0867 21.9839C13.2043 22.101 13.3194 22.2156 13.4799 22.2963C13.5922 22.3431 13.8634 22.4093 13.8169 22.2729C13.7373 22.0963 13.6014 21.9432 13.4642 21.7885C13.4077 21.7249 13.351 21.6609 13.2979 21.595V21.5054C13.2625 21.5054 13.2541 21.4919 13.2435 21.4752C13.2402 21.4699 13.2367 21.4643 13.232 21.4587V21.369C13.1752 21.3392 13.1625 21.292 13.1497 21.2446C13.1424 21.2176 13.1351 21.1905 13.1197 21.1664C13.0808 21.1035 13.0781 21.0261 13.0752 20.9463C13.0729 20.8828 13.0705 20.8178 13.0499 20.7574C13.0035 20.621 12.9841 20.508 12.9609 20.3716C12.9356 20.2321 12.9079 20.0988 12.8807 19.9682C12.8328 19.7377 12.7866 19.5159 12.7594 19.2846C12.7236 18.9541 12.8905 18.6745 13.0612 18.3887C13.1118 18.304 13.1627 18.2187 13.2088 18.1314C13.3676 17.8587 13.5458 17.5898 13.8401 17.4067C13.9044 17.1407 14.0791 16.9192 14.253 16.6988L14.2662 16.6821C14.4379 16.4682 14.7245 16.3374 14.9357 16.241L14.9596 16.2301C15.2734 16.0899 15.5561 16.0003 15.56 16.0003H0V27.9963H11.0396C11.3348 27.7822 11.6283 27.6472 11.9775 27.4865C12.1369 27.4131 12.3079 27.3344 12.496 27.2404C12.5359 27.2204 12.5832 27.1971 12.6357 27.1713C12.951 27.0161 13.4534 26.769 13.6426 26.582ZM10.1396 24.9635C10.0958 24.9679 10.0494 24.9726 10.0669 24.9374C10.0832 24.8586 10.1639 24.8349 10.2428 24.8118C10.2765 24.802 10.31 24.7922 10.3378 24.7782L10.3505 24.7716L10.3598 24.7667C10.4035 24.7435 10.457 24.7151 10.4965 24.7316C10.5231 24.7694 10.5561 24.7792 10.5881 24.7887C10.612 24.7958 10.6353 24.8027 10.6551 24.8209C10.5714 24.9049 10.4737 24.9132 10.3747 24.9216C10.3089 24.9272 10.2425 24.9328 10.1791 24.9607C10.1678 24.9607 10.1538 24.9621 10.1396 24.9635ZM6.71263 24.4157C6.71263 24.439 6.73587 24.4624 6.73587 24.4624C7.27817 23.8507 7.77011 23.3287 8.46735 22.8962C8.48601 22.8884 8.47907 22.8981 8.46984 22.9111C8.45609 22.9305 8.43727 22.9569 8.49059 22.9429C8.72141 22.8903 8.82508 22.6926 8.92594 22.5002C8.95202 22.4505 8.97791 22.4011 9.00577 22.3546C9.11155 22.1826 9.26178 22.0724 9.41317 21.9613C9.52234 21.8812 9.63212 21.8007 9.72625 21.6962C9.72625 21.7196 9.72625 21.743 9.703 21.7663C9.72625 21.7897 9.74949 21.7897 9.77273 21.7897C9.81359 21.7589 9.8582 21.7461 9.90095 21.7339C9.95547 21.7183 10.007 21.7036 10.0439 21.6533C9.86569 21.5832 9.63715 21.5598 9.45897 21.63C8.9864 21.8559 8.58355 22.2183 8.20007 22.6274C7.96766 22.8728 7.7275 23.1027 7.43311 23.2624C7.23169 23.6676 7.00702 24.03 6.71263 24.4157ZM8.60369 22.9667C8.59155 22.991 8.57942 23.0037 8.56783 23.0158C8.55726 23.0269 8.54714 23.0375 8.5379 23.056C8.51468 23.1026 8.49147 23.122 8.4489 23.1453C8.42568 23.1453 8.40246 23.1453 8.40246 23.122C8.42568 23.0327 8.49147 22.9434 8.58047 22.9201C8.60369 22.9239 8.60369 22.9472 8.60369 22.9667ZM9.59422 26.4266C9.61357 26.4071 9.63679 26.3838 9.6484 26.3604C9.66775 26.3136 9.54778 26.3253 9.52843 26.337C9.51087 26.3512 9.49969 26.3653 9.4862 26.3824L9.48199 26.3877C9.46585 26.4062 9.44696 26.4234 9.42778 26.4409C9.41477 26.4527 9.40163 26.4647 9.38912 26.4773C9.33494 26.5318 9.28076 26.5864 9.22271 26.637C9.18401 26.6721 9.30785 26.6877 9.33494 26.6643C9.3659 26.6409 9.39299 26.6136 9.42008 26.5864C9.4304 26.5864 9.44072 26.5846 9.4476 26.5835L9.45233 26.5827L9.45491 26.5825C9.51906 26.5609 9.5668 26.5163 9.61324 26.4728L9.62518 26.4617C9.64066 26.4461 9.62131 26.4305 9.59422 26.4266ZM9.24401 26.1733C9.24357 26.1733 9.24326 26.1735 9.24304 26.1737C9.24256 26.1742 9.24256 26.1751 9.24256 26.1771C9.2188 26.1934 9.19535 26.21 9.17194 26.2265C9.11139 26.2694 9.05116 26.312 8.98691 26.3485C8.92546 26.3831 8.86246 26.413 8.79889 26.4432C8.76226 26.4606 8.72545 26.478 8.68864 26.4966C8.68864 26.4966 8.68864 26.4927 8.68477 26.4927C8.67702 26.481 8.66153 26.4771 8.64604 26.4849C8.56082 26.5316 8.48722 26.594 8.42137 26.6602C8.40975 26.668 8.39813 26.6797 8.39038 26.6914L8.35552 26.7264V26.7303C8.34003 26.7459 8.32453 26.7615 8.30516 26.7849C8.30114 26.7889 8.29804 26.793 8.29507 26.7969C8.28947 26.8042 8.2843 26.8109 8.27418 26.816C8.25868 26.8238 8.21995 26.8238 8.22382 26.8005V26.7966C8.2122 26.8043 8.1967 26.8121 8.18508 26.816C8.17927 26.8199 8.17346 26.8229 8.16765 26.8258C8.16184 26.8287 8.15603 26.8316 8.15022 26.8355C8.14635 26.8316 8.1386 26.8316 8.13473 26.8316C8.13085 26.8316 8.12311 26.8316 8.11923 26.8355C8.1102 26.8433 8.10116 26.8507 8.09212 26.858C8.07404 26.8727 8.05597 26.8875 8.03789 26.9056C7.99141 26.9485 7.9488 26.9953 7.90619 27.0459C7.90619 27.0459 7.90619 27.0498 7.90232 27.0498C7.90232 27.0517 7.90135 27.0527 7.90038 27.0537C7.89941 27.0547 7.89844 27.0556 7.89844 27.0576L7.8907 27.0654C7.88922 27.0669 7.8883 27.0684 7.88752 27.0696C7.88626 27.0717 7.88534 27.0732 7.88295 27.0732L7.87908 27.0771C7.8752 27.0849 7.87133 27.0927 7.86358 27.1004C7.85971 27.1043 7.85196 27.1082 7.84421 27.1082C7.84034 27.1043 7.83647 27.1004 7.83647 27.0966C7.83453 27.0946 7.83356 27.0927 7.83259 27.0907C7.83162 27.0888 7.83066 27.0868 7.82872 27.0849C7.82485 27.079 7.82194 27.0732 7.81904 27.0673C7.81613 27.0615 7.81322 27.0556 7.80935 27.0498V27.0459C7.80935 27.044 7.80838 27.042 7.80741 27.0401C7.80645 27.0381 7.80548 27.0362 7.80548 27.0342L7.8752 26.9524L7.87908 26.9485C7.88295 26.9446 7.88682 26.9397 7.89069 26.9349C7.89456 26.93 7.89844 26.9251 7.90232 26.9212C7.90813 26.9134 7.9149 26.9056 7.92168 26.8979C7.92846 26.8901 7.93524 26.8823 7.94105 26.8745C7.94299 26.8706 7.94493 26.8677 7.94686 26.8647C7.9488 26.8618 7.95074 26.8589 7.95267 26.855C7.97591 26.8238 7.99915 26.7927 8.0224 26.7576V26.7537C8.02627 26.7498 8.03014 26.7459 8.03014 26.7381C8.04176 26.7225 8.05339 26.7069 8.06113 26.6914L8.08437 26.6446V26.6407L8.08825 26.6368C8.08825 26.6349 8.08921 26.6339 8.09018 26.6329C8.09115 26.6319 8.09212 26.631 8.09212 26.629C8.09599 26.6193 8.09986 26.6105 8.10373 26.6018C8.1076 26.593 8.11149 26.5842 8.11536 26.5745V26.5706L8.11923 26.555C8.12117 26.5511 8.12214 26.5472 8.12311 26.5433C8.12408 26.5394 8.12504 26.5355 8.12698 26.5316V26.5277C8.12892 26.5219 8.12989 26.516 8.13085 26.5102C8.13182 26.5043 8.13279 26.4985 8.13473 26.4927C8.13473 26.4888 8.13473 26.481 8.13085 26.4771C8.1541 26.4342 8.18508 26.3953 8.21995 26.3563C8.21801 26.3563 8.21607 26.3573 8.21414 26.3582C8.21303 26.3588 8.21191 26.3594 8.2108 26.3597C8.20998 26.36 8.20915 26.3602 8.20833 26.3602C8.19108 26.371 8.17624 26.3855 8.16113 26.4002C8.14908 26.4119 8.13686 26.4239 8.12311 26.4342C8.09987 26.4537 8.05338 26.4225 8.08437 26.3992C8.10374 26.3836 8.11923 26.368 8.13472 26.3524C8.13472 26.3524 8.13473 26.3485 8.1386 26.3485C8.15404 26.3345 8.16887 26.3187 8.18381 26.3027C8.20635 26.2787 8.22919 26.2543 8.25481 26.2355C8.28192 26.216 8.30129 26.2005 8.32453 26.181C8.3284 26.1771 8.33228 26.1732 8.33615 26.1732C8.35165 26.1537 8.36714 26.1342 8.38651 26.1147C8.38651 26.1147 8.39038 26.1147 8.39038 26.1108C8.5234 25.9818 8.71032 25.9363 8.90111 25.8899C9.02144 25.8606 9.14332 25.8309 9.25418 25.7797C9.3168 25.7536 9.38663 25.7639 9.45564 25.774C9.51044 25.7821 9.5647 25.79 9.61442 25.7797C9.68027 25.7797 9.74999 25.7797 9.81584 25.8264C9.66268 25.908 9.5165 26.0013 9.37189 26.0935C9.33002 26.1202 9.28817 26.1469 9.24643 26.1732C9.24535 26.1732 9.24457 26.1732 9.24401 26.1733ZM9.72805 24.5853C9.70992 24.5874 9.69817 24.5888 9.70824 24.5989C9.77409 24.6651 9.90967 24.6418 10.0026 24.5911C10.0685 24.5444 10.1382 24.5444 10.2273 24.5444C10.2505 24.5444 10.2505 24.5015 10.2505 24.4781C10.3164 24.5015 10.3629 24.5015 10.4287 24.5015C10.9671 24.3885 11.4862 24.2755 11.982 24.0262C11.4803 23.6385 10.8618 23.4659 10.256 23.2967C10.1555 23.2687 10.0554 23.2407 9.95615 23.2119C9.97796 23.2119 9.99976 23.2192 10.0217 23.2265C10.066 23.2412 10.1109 23.2562 10.1576 23.2119C10.0961 23.1629 10.0277 23.1535 9.95993 23.1442C9.90384 23.1365 9.8482 23.1289 9.79733 23.0989C9.80264 23.0989 9.80895 23.1001 9.81582 23.1014C9.83902 23.1059 9.86849 23.1116 9.88643 23.0755C9.76876 23.0164 9.6511 22.9963 9.53232 22.976C9.47123 22.9655 9.40984 22.955 9.348 22.9392C9.46034 22.9158 9.53006 22.8262 9.53006 22.7132C9.53006 22.6898 9.48358 22.6898 9.46034 22.6898C9.19306 22.8262 9.01101 23.0755 8.89867 23.3677C8.99995 23.4274 9.10909 23.4204 9.21607 23.4137C9.27686 23.4098 9.33694 23.406 9.39449 23.4145C9.34369 23.4627 9.27029 23.4758 9.19974 23.4884C9.17344 23.4931 9.14753 23.4978 9.12334 23.5041C9.05361 23.5197 8.98776 23.5703 9.01101 23.6171C9.0265 23.6366 9.04199 23.6444 9.06136 23.6483C9.01101 23.6638 8.96452 23.6872 8.92191 23.7301C8.98568 23.7803 9.05144 23.7706 9.11634 23.761C9.14211 23.7572 9.16774 23.7534 9.19306 23.7534C9.19306 23.7817 9.21164 23.7914 9.23095 23.8014C9.24088 23.8065 9.25102 23.8117 9.25891 23.8197C9.14658 23.8625 9.05749 23.956 9.03425 24.0223C9.00648 24.0898 8.95522 24.1336 8.9044 24.1771C8.87015 24.2064 8.8361 24.2355 8.80958 24.2716V24.3418C8.73475 24.4081 8.65784 24.4673 8.58199 24.5258C8.42617 24.6458 8.27479 24.7624 8.15495 24.9301C8.17819 24.9301 8.17819 24.9534 8.17819 24.9768C8.15676 25.0091 8.12627 25.0315 8.09735 25.0528C8.06355 25.0776 8.0319 25.1009 8.01938 25.1366C8.01938 25.1599 8.01938 25.1833 8.04262 25.1833C8.18476 25.1363 8.30774 25.0572 8.42831 24.9797C8.53773 24.9093 8.64515 24.8402 8.7631 24.7976C8.85949 24.7744 8.94341 24.7307 9.02529 24.6881C9.09477 24.6519 9.16277 24.6165 9.23567 24.595C9.29184 24.5833 9.35381 24.5668 9.41579 24.5502C9.47777 24.5336 9.53974 24.5171 9.59591 24.5054C9.59591 24.5288 9.59591 24.5521 9.61915 24.5521H9.79733C9.78636 24.5786 9.75175 24.5826 9.72805 24.5853Z" fill="#000091"/>
<path d="M33.0001 16.0003H20.0967C20.0967 16.0003 20.1201 16.0042 20.2176 16.0549C20.3229 16.1095 20.4594 16.1836 20.5413 16.2265C20.7091 16.3123 20.869 16.4216 20.9743 16.5893C21.0211 16.6556 21.0874 16.7922 21.0445 16.8819C20.9977 16.9951 20.9743 17.1784 20.8612 17.2213C20.7247 17.2915 20.5452 17.2915 20.3853 17.2681C20.2956 17.2681 20.2059 17.2447 20.1123 17.2213C20.4516 17.3579 20.7715 17.5178 20.9977 17.8338C21.0211 17.8806 21.1108 17.9001 21.2006 17.9001C21.224 17.9001 21.224 17.9469 21.224 17.9664C21.1771 18.0133 21.1342 18.0367 21.1576 18.103H21.224C21.3371 18.0562 21.3137 17.8299 21.4736 17.9001C21.5867 17.9664 21.6335 18.1264 21.5633 18.2395C21.4736 18.3293 21.3839 18.3995 21.2903 18.4658C21.2669 18.5126 21.2669 18.5789 21.2903 18.6257C21.3566 18.7155 21.38 18.8052 21.4034 18.8988C21.4736 19.0588 21.4931 19.2382 21.5633 19.3982C21.653 19.7376 21.7427 20.077 21.7232 20.4203C21.7232 20.5997 21.6335 20.7597 21.6998 20.943C21.7466 21.1225 21.8598 21.259 21.9495 21.419C22.0392 21.5555 22.1289 21.6452 22.1991 21.7818C22.3356 22.0081 22.5853 22.2343 22.4722 22.5074C22.4059 22.6674 22.1562 22.6439 21.9963 22.7337C21.8598 22.8468 21.9729 23.0302 22.0431 23.1433C22.1562 23.3462 21.9066 23.4827 21.7466 23.5529C21.7935 23.6231 21.8832 23.5997 21.9066 23.6426C21.93 23.7558 22.0431 23.8221 21.9729 23.9391C21.8832 24.0757 21.6101 24.142 21.7466 24.3488C21.8364 24.5087 21.7779 24.6843 21.7232 24.8481C21.6569 25.051 21.4736 25.1407 21.3137 25.1875C21.1771 25.2343 21.0172 25.2343 20.8846 25.2109C20.8378 25.1875 20.7949 25.1641 20.7481 25.1641C20.3619 25.1173 19.9757 25.0081 19.5935 25.0081C19.4804 25.0315 19.3672 25.051 19.2775 25.0978C19.1761 25.1719 19.0825 25.2538 19.0045 25.3397C19.0045 25.3397 19.0045 25.3397 19.0006 25.3436C18.985 25.3631 18.9655 25.3787 18.9499 25.3982C18.9421 25.4099 18.9304 25.4216 18.9226 25.4333C18.9148 25.4411 18.9109 25.4489 18.9031 25.4567C18.8368 25.5386 18.7782 25.6283 18.7236 25.7181C18.7197 25.7259 18.7158 25.7298 18.7119 25.7337C18.708 25.7454 18.7002 25.7532 18.6924 25.7649C18.6183 25.9014 18.5637 26.0419 18.5208 26.1823C18.3648 26.7012 18.435 27.1459 18.5442 27.2551C18.5754 27.2863 19.2931 27.5087 19.7924 27.7311C20.0265 27.8364 20.1903 27.9144 20.3268 28.0003H32.9962V16.0003H33.0001Z" fill="#E1000F"/>
<path d="M20.8631 20.375C20.9526 20.3984 21.0888 20.3984 21.0888 20.4452C21.0421 20.6244 20.7736 20.6711 20.6375 20.8542H20.5674C20.5013 20.901 20.5208 21.014 20.4546 21.014C20.3885 20.9906 20.3185 21.014 20.2523 21.0374C20.3418 21.127 20.4546 21.1971 20.5908 21.1737C20.6141 21.1737 20.6569 21.2205 20.6569 21.2633C20.6569 21.2633 20.6803 21.2633 20.7036 21.24C20.727 21.24 20.7503 21.24 20.7503 21.2633V21.3529C20.6842 21.4425 20.5674 21.3997 20.478 21.4192C20.6608 21.4659 20.8398 21.4659 20.9993 21.4192C21.1355 21.3724 20.9993 21.1464 21.0888 21.0335C21.0421 21.0335 21.0888 20.9633 21.0421 20.9633C21.0888 20.9166 21.1316 20.8503 21.1782 20.827C21.2249 20.827 21.2911 20.8036 21.3144 20.7568C21.3144 20.7101 21.2249 20.6906 21.2444 20.6439C21.3806 20.5542 21.4934 20.4179 21.4467 20.2815C21.4233 20.2114 21.2444 20.2114 21.1316 20.1685C21.0187 20.1257 20.8826 20.1685 20.7464 20.1919C20.6336 20.1919 20.5208 20.262 20.4079 20.2815C20.2484 20.3283 20.1123 20.4179 19.98 20.5075C20.1395 20.4413 20.2951 20.4179 20.478 20.3711C20.6141 20.375 20.727 20.3439 20.8631 20.375Z" fill="#808080"/>
<path d="M5.1 41.6443C5.892 41.6443 6.576 41.3683 7.056 40.9123V39.4483H4.92V37.9963H8.76V41.5243C7.98 42.5683 6.672 43.2403 5.1 43.2403C2.376 43.2403 0.516 41.2003 0.516 38.8003C0.516 36.4003 2.328 34.3603 4.98 34.3603C6.504 34.3603 7.752 35.0443 8.52 36.0643L7.176 37.1083C6.696 36.4243 5.94 35.9563 4.98 35.9563C3.396 35.9563 2.268 37.1923 2.268 38.8003C2.268 40.4083 3.456 41.6443 5.1 41.6443ZM14.6728 34.3603C17.3128 34.3603 19.1248 36.4003 19.1248 38.8003C19.1248 41.2003 17.3128 43.2403 14.6728 43.2403C12.0208 43.2403 10.2088 41.2003 10.2088 38.8003C10.2088 36.4003 12.0208 34.3603 14.6728 34.3603ZM14.6728 41.6443C16.2448 41.6443 17.3728 40.4083 17.3728 38.8003C17.3728 37.1923 16.2448 35.9563 14.6728 35.9563C13.0888 35.9563 11.9608 37.1923 11.9608 38.8003C11.9608 40.4083 13.0888 41.6443 14.6728 41.6443ZM25.8918 39.8563V34.6003H27.5958V39.7123C27.5958 41.9203 26.2998 43.2403 24.1878 43.2403C22.0878 43.2403 20.7918 41.9203 20.7918 39.7123V34.6003H22.4958V39.8563C22.4958 40.9843 23.1318 41.6443 24.1998 41.6443C25.2438 41.6443 25.8918 40.9843 25.8918 39.8563ZM28.8366 34.6003H30.6486L33.1326 41.1643L35.6166 34.6003H37.4286L34.2486 43.0003H32.0166L28.8366 34.6003ZM38.9057 43.0003V34.6003H43.8017V36.0163H40.6097V38.0083H43.3217V39.4243H40.6097V41.5843H43.8017V43.0003H38.9057ZM45.9618 43.0003V34.6003H48.5298C50.3778 34.6003 51.5178 35.5483 51.5178 37.1083C51.5178 38.1283 51.0258 38.8843 50.1618 39.2803L52.7898 43.0003H50.7858L48.5418 39.6043H47.6658V43.0003H45.9618ZM48.6258 36.0163H47.6658V38.1883H48.6258C49.3458 38.1883 49.7658 37.7683 49.7658 37.0843C49.7658 36.4483 49.3458 36.0163 48.6258 36.0163ZM54.0491 43.0003V34.6003H56.2331L59.9891 40.6723V34.6003H61.6931V43.0003H59.5091L55.7531 36.9283V43.0003H54.0491ZM64.2224 43.0003V34.6003H69.1184V36.0163H65.9264V38.0083H68.6384V39.4243H65.9264V41.5843H69.1184V43.0003H64.2224ZM71.2785 43.0003V34.6003H73.4025L75.4545 38.1283L77.5065 34.6003H79.6305V43.0003H77.9265V36.9763L76.0545 40.1203H74.8545L72.9825 36.9763V43.0003H71.2785ZM82.1549 43.0003V34.6003H87.0509V36.0163H83.8589V38.0083H86.5709V39.4243H83.8589V41.5843H87.0509V43.0003H82.1549ZM89.211 43.0003V34.6003H91.395L95.151 40.6723V34.6003H96.855V43.0003H94.671L90.915 36.9283V43.0003H89.211ZM98.5203 36.1483V34.6003H105.408V36.1483H102.816V43.0003H101.112V36.1483H98.5203Z" fill="black"/>
<path fill-rule="evenodd" clip-rule="evenodd" d="M31.18 64.6142L30.0638 65.6342H29.7758L30.4359 64.4703H31.18V64.6142ZM30.3759 68.5616H30.1359C29.8358 68.9216 29.4998 69.2096 29.1757 69.2096C28.8397 69.2096 28.6717 69.0056 28.6717 68.5616C28.6717 68.3816 28.6957 68.1897 28.7317 68.0217L30.688 67.3737C31.072 66.4618 30.6159 66.0658 30.0759 66.0658C29.1517 66.0658 28.0956 67.6857 28.0956 68.9816C28.0956 69.5936 28.3836 69.9296 28.8397 69.9296C29.3678 69.9176 29.9198 69.4016 30.3759 68.5616ZM29.7046 66.5941C29.9686 66.5941 30.1966 66.7981 30.0766 67.266L28.8644 67.59C29.0565 67.014 29.4165 66.5941 29.7046 66.5941ZM25.8886 66.6178H26.5367L25.5045 69.4496C25.4085 69.6896 25.5405 69.9296 25.7925 69.9296C26.5247 69.9296 27.4008 69.3056 27.7368 68.4177H27.5568C27.2928 68.7896 26.7167 69.1976 26.2846 69.2696L27.2328 66.6178H28.2049L28.3249 66.2098H27.3768L27.7368 65.1899H27.3648L26.6927 66.2098L25.8886 66.3178V66.6178ZM24.9878 66.0785C25.1198 66.0785 25.2998 66.2225 25.2158 66.4865L24.0516 69.3063C24.3517 69.2583 24.6637 68.9703 24.8438 68.7063H25.0358C24.7597 69.4143 24.1356 69.9303 23.5956 69.9303C23.4636 69.9303 23.2715 69.7863 23.3675 69.5223L24.4477 66.7024C24.1477 66.7504 23.8356 67.0384 23.6556 67.3024H23.4756C23.7516 66.5824 24.4237 66.0785 24.9878 66.0785ZM25.3246 65.3582C25.5647 65.3582 25.7687 65.1662 25.7687 64.9142C25.7687 64.6742 25.5647 64.4703 25.3246 64.4703C25.0726 64.4703 24.8806 64.6742 24.8806 64.9142C24.8806 65.1542 25.0846 65.3582 25.3246 65.3582ZM20.0797 67.6984C20.3437 67.1224 20.2477 66.8584 20.0797 66.8584C19.9357 66.8584 19.7676 67.0144 19.5996 67.3024H19.4196C19.6956 66.6904 20.0557 66.0785 20.4517 66.0785C20.7878 66.0785 20.9078 66.4145 20.9078 66.7864V67.3144C20.9618 67.2516 21.0144 67.1899 21.0658 67.1296L21.0667 67.1285L21.0675 67.1276C21.5745 66.5327 21.9617 66.0785 22.408 66.0785C22.7561 66.0785 22.9361 66.2945 22.9361 66.6184C22.9361 66.8104 22.8761 67.0504 22.7441 67.3024L21.7479 69.3063C22.048 69.2583 22.36 68.9703 22.54 68.7063H22.7201C22.444 69.4263 21.7719 69.9303 21.2079 69.9303C20.9558 69.9303 20.8118 69.6663 20.9198 69.4503L22.072 67.2304C22.204 66.9784 22.228 66.8104 22.024 66.8104C21.7479 66.8104 21.0998 67.2664 20.7518 67.6864L19.9957 69.6783C19.9117 69.8823 19.8277 69.9303 19.6356 69.9303C19.3236 69.9303 19.1676 69.7263 19.3116 69.4023L20.0797 67.6984ZM19.2987 66.9297C19.4307 66.4738 19.3587 66.0658 19.0106 66.0658C18.5766 66.0658 18.4407 66.3524 18.02 67.2394L17.9905 67.3017V66.7737C17.9905 66.4018 17.8705 66.0658 17.5344 66.0658C17.1384 66.0658 16.7783 66.6777 16.5023 67.2897H16.6823C16.8743 67.0137 17.0544 66.8457 17.1984 66.8457C17.3664 66.8457 17.4624 67.1097 17.1984 67.6857L16.4303 69.3896C16.2863 69.7136 16.4423 69.9176 16.7543 69.9176C16.9464 69.9176 17.0304 69.8696 17.1144 69.6656L17.8705 67.6737C18.0865 67.4097 18.2785 67.1817 18.5186 66.9297H19.2987ZM15.5064 67.266C15.6264 66.7981 15.3984 66.5941 15.1344 66.5941C14.8463 66.5941 14.4863 67.014 14.2942 67.59L15.5064 67.266ZM15.8057 68.5616H15.5657C15.2656 68.9216 14.9296 69.2096 14.6055 69.2096C14.2695 69.2096 14.1015 69.0056 14.1015 68.5616C14.1015 68.3816 14.1255 68.1897 14.1615 68.0217L16.1178 67.3737C16.5018 66.4618 16.0458 66.0658 15.5057 66.0658C14.5815 66.0658 13.5254 67.6857 13.5254 68.9816C13.5254 69.5936 13.8134 69.9296 14.2695 69.9296C14.7976 69.9176 15.3497 69.4016 15.8057 68.5616ZM11.9665 66.6178H11.3184V66.3178L12.1225 66.2098L12.7946 65.1899H13.1666L12.8066 66.2098H13.7547L13.6347 66.6178H12.6626L11.7144 69.2696C12.1465 69.1976 12.7226 68.7896 12.9866 68.4177H13.1666C12.8306 69.3056 11.9545 69.9296 11.2224 69.9296C10.9703 69.9296 10.8383 69.6896 10.9343 69.4496L11.9665 66.6178ZM7.88648 68.8139C7.88648 67.938 8.85862 66.762 9.3987 66.762C9.51871 66.762 9.63873 66.774 9.73475 66.81L9.17066 68.3219C8.84662 68.7179 8.34254 69.1979 8.10251 69.1979C7.97049 69.1979 7.88648 69.0779 7.88648 68.8139ZM10.5632 65.8861L10.8632 65.9101L9.81906 68.31C9.56702 68.8859 9.67504 69.1499 9.81906 69.1499C9.96308 69.1499 10.1431 68.9819 10.3351 68.7059H10.5152C10.2391 69.3179 9.87907 69.9299 9.48301 69.9299C9.14696 69.9299 8.94293 69.5699 9.00294 68.9219L9.02694 68.6939L8.96158 68.7852C8.53167 69.3861 8.14265 69.9299 7.74276 69.9299C7.39471 69.9299 7.21468 69.7139 7.21468 69.3899C7.21468 67.998 8.7389 66.2221 10.1671 66.2221H10.2271L10.5632 65.8861ZM7.81402 66.9297C7.94604 66.4738 7.87403 66.0658 7.52598 66.0658C7.09192 66.0658 6.956 66.3524 6.53537 67.2394L6.50583 67.3017V66.7737C6.50583 66.4018 6.38581 66.0658 6.04976 66.0658C5.65371 66.0658 5.29365 66.6777 5.01761 67.2897H5.19764C5.38967 67.0137 5.56969 66.8457 5.70171 66.8457C5.86974 66.8457 5.96575 67.1097 5.70171 67.6857L4.9336 69.4016C4.78958 69.7256 4.9456 69.9296 5.25765 69.9296C5.44968 69.9296 5.53369 69.8816 5.6177 69.6776L6.37381 67.6857C6.58984 67.4217 6.78187 67.1937 7.0219 66.9417H7.81402V66.9297ZM2.86842 69.5688L2.79641 69.7848H0L0.0720104 69.5568C0.936136 69.4009 1.08016 69.3289 1.44021 68.3569L2.22032 66.269C2.56837 65.2971 2.49636 65.2251 1.74025 65.0691L1.81226 64.8531H5.44879L5.23276 66.0171H4.96872C4.96872 65.3211 4.89671 65.1411 4.23661 65.1411H4.06859C3.4205 65.1411 3.33648 65.2371 3.15646 65.7411L2.64038 67.145H3.39649C3.90056 67.145 4.09259 66.833 4.32063 66.425H4.58466L3.96057 68.1289H3.69654C3.75654 67.613 3.75654 67.409 3.28848 67.409H2.53237L2.18432 68.3689C1.80809 69.3681 1.9156 69.3884 2.81149 69.5581C2.83013 69.5616 2.8491 69.5652 2.86842 69.5688Z" fill="black"/>
<path fill-rule="evenodd" clip-rule="evenodd" d="M5.24476 55.4343L4.12857 56.2387V56.2507H3.84052L4.50063 55.2903H5.24476V55.4343ZM13.0472 61.065L14.8355 56.3107L14.7755 56.2386L13.5393 56.3827V56.5268L13.7793 56.7069C13.9843 56.8663 13.93 57.0149 13.76 57.4807L13.7313 57.5593L12.3631 61.2091C12.2551 61.4252 12.3991 61.6893 12.6511 61.6893C13.2152 61.6893 13.8153 61.1731 14.0914 60.4647H13.9114C13.7193 60.7288 13.3353 61.017 13.0472 61.065ZM21.2438 57.4032L22.36 56.3827V56.2386H21.6159L20.9558 57.4032H21.2438ZM21.315 60.3206H21.5551C21.111 61.173 20.5589 61.6893 20.0308 61.6893C19.5747 61.6893 19.2867 61.3531 19.2867 60.7408C19.2867 59.4442 20.3429 57.8234 21.267 57.8234C21.7951 57.8234 22.2632 58.2196 21.8791 59.132L19.9108 59.7804C19.8748 59.9484 19.8508 60.1405 19.8508 60.3206C19.8508 60.7648 20.0188 60.9689 20.3549 60.9689C20.6789 60.9689 21.015 60.6808 21.315 60.3206ZM21.2544 59.024C21.3745 58.5678 21.1464 58.3637 20.8824 58.3637C20.6063 58.3637 20.2463 58.7839 20.0422 59.3482L21.2544 59.024ZM17.7258 58.3874H17.0777V58.0873L17.8818 57.9792L18.554 56.9587H18.926L18.566 57.9792H19.5141L19.3941 58.3874H18.4219L17.4738 61.0407C17.9058 60.9687 18.4819 60.5605 18.746 60.1883H18.926C18.59 61.0767 17.7138 61.7011 16.9817 61.7011C16.7296 61.7011 16.5976 61.4609 16.6936 61.2208L17.7258 58.3874ZM16.4055 58.2433C16.4775 57.9792 16.3095 57.8351 16.1655 57.8351C15.6014 57.8351 14.9292 58.3514 14.6532 59.0597H14.8332C15.0133 58.7956 15.3253 58.5075 15.6254 58.4594L14.5452 61.2808C14.4492 61.5449 14.6412 61.689 14.7732 61.689C15.3133 61.689 15.9374 61.1728 16.2135 60.4644H16.0334C15.8534 60.7285 15.5413 61.0167 15.2413 61.0647L16.4055 58.2433ZM16.9585 56.6829C16.9585 56.923 16.7544 57.1271 16.5144 57.1271C16.2744 57.1271 16.0703 56.923 16.0703 56.6829C16.0703 56.4427 16.2624 56.2386 16.5144 56.2386C16.7544 56.2386 16.9585 56.4427 16.9585 56.6829ZM10.8987 58.5318C10.3586 58.5318 9.38641 59.7083 9.38641 60.5848C9.38641 60.8489 9.47043 60.969 9.61445 60.969C9.84249 60.969 10.3466 60.4887 10.6706 60.0925L11.2347 58.5798C11.1267 58.5438 11.0187 58.5318 10.8987 58.5318ZM12.3632 57.6794L12.0632 57.6553L11.7271 57.9915H11.6671C10.2389 57.9915 8.71459 59.7684 8.71459 61.1611C8.71459 61.4852 8.89463 61.7013 9.24269 61.7013C9.64259 61.7013 10.0316 61.1573 10.4616 60.5561L10.5269 60.4647L10.5029 60.6928C10.4429 61.3412 10.6469 61.7013 10.983 61.7013C11.3791 61.7013 11.7391 61.089 12.0152 60.4767H11.8351C11.6431 60.7529 11.4631 60.921 11.3191 60.921C11.175 60.921 11.067 60.6568 11.3191 60.0805L12.3632 57.6794ZM6.3135 61.5694C5.79741 61.7735 5.43734 62.0136 5.43734 62.3858C5.43734 62.734 5.7614 62.878 6.43352 62.878C7.33368 62.878 7.82576 62.6139 7.82576 62.2657C7.82576 62.1096 7.62173 62.0376 7.08163 61.8575C6.73357 61.7495 6.48153 61.6534 6.3135 61.5694ZM6.91282 60.0926C6.67277 60.0926 6.58876 59.8885 6.58876 59.6724C6.58876 58.9761 6.92482 58.1116 7.46491 58.1116C7.70495 58.1116 7.78897 58.3157 7.78897 58.5318C7.77697 59.2402 7.44091 60.0926 6.91282 60.0926ZM7.3701 61.2211C8.03022 61.4252 8.43829 61.5812 8.43829 62.0375C8.43829 62.6258 7.3581 63.3221 6.04987 63.3101C5.29374 63.3101 4.64563 63.106 4.64563 62.6138C4.64563 62.1455 5.0777 61.7613 6.13389 61.4492C5.98986 61.3531 5.92985 61.2331 5.92985 61.065C5.92985 60.7769 6.1939 60.5487 6.64998 60.3326C6.2059 60.2726 5.91785 59.9364 5.91785 59.4442C5.91785 58.6878 6.54196 57.8234 7.52613 57.8234C7.73017 57.8234 7.9102 57.8714 8.05422 57.9675H9.13441L9.01439 58.3757H8.37828C8.41429 58.4837 8.43829 58.6038 8.43829 58.7358C8.43829 59.4682 7.85019 60.3086 6.91402 60.3566C6.67398 60.4887 6.55396 60.6688 6.55396 60.8129C6.55396 60.9824 6.75029 61.0397 7.1842 61.1664C7.24193 61.1833 7.30387 61.2013 7.3701 61.2211ZM3.56462 59.1681C4.03271 59.1681 4.04471 59.3722 3.9727 59.8885H4.23674L4.86085 58.1837H4.59681C4.36877 58.5919 4.17673 58.904 3.67264 58.904H2.64046L3.14455 57.4993C3.32458 56.9951 3.4086 56.899 4.05671 56.899H4.51279C5.17291 56.899 5.24492 57.0791 5.24492 57.7755H5.50897L5.725 56.6109H1.81232L1.7403 56.827C2.49644 56.9831 2.56845 57.0551 2.22039 58.0276L1.44025 60.1286C1.08019 61.1011 0.936164 61.1731 0.0600105 61.3292L0 61.5573H4.34476L5.1249 60.3207H4.82484C4.32076 60.813 3.81667 61.2692 2.8325 61.2692C1.74998 61.2692 1.76926 61.2162 2.09407 60.3236C2.11497 60.2662 2.13715 60.2052 2.16038 60.1406L2.52044 59.1802H3.56462V59.1681Z" fill="black"/>
<path fill-rule="evenodd" clip-rule="evenodd" d="M7.14964 48.8879C7.3896 48.8879 7.59356 48.6839 7.59356 48.4441C7.59356 48.2042 7.3896 48.0003 7.14964 48.0003C6.89769 48.0003 6.70573 48.2042 6.70573 48.4441C6.70573 48.6959 6.89769 48.8879 7.14964 48.8879ZM10.7022 50.3989C10.7022 49.8231 10.5583 49.6072 10.1503 49.6072C9.64644 49.6072 9.17853 50.147 8.71062 50.7947L9.71843 48.0959L9.65844 48.0119L8.42268 48.1559V48.2998L8.66263 48.4797C8.87155 48.6422 8.81099 48.8046 8.63302 49.282L8.61464 49.3313L7.52285 52.1861C7.42687 52.426 7.31889 52.7138 7.31889 52.7858C7.31889 53.1217 7.7748 53.4455 8.19472 53.4455C9.13054 53.4575 10.7022 51.7303 10.7022 50.3989ZM21.1042 49.1754L22.22 48.1559V48.0119H21.4761L20.8163 49.1754H21.1042ZM21.1765 52.0901H21.4164C20.9605 52.9418 20.4086 53.4575 19.8807 53.4455C19.4248 53.4455 19.1369 53.1217 19.1369 52.51C19.1369 51.2145 20.1927 49.5952 21.1165 49.5952C21.6444 49.5952 22.1123 49.9911 21.7284 50.9027L19.7727 51.5504C19.7368 51.7183 19.7128 51.9102 19.7128 52.0901C19.7128 52.5339 19.8807 52.7379 20.2167 52.7379C20.5406 52.7379 20.8765 52.45 21.1765 52.0901ZM21.1153 50.7948C21.2353 50.339 21.0073 50.135 20.7434 50.135C20.4555 50.135 20.0955 50.5549 19.9036 51.1186L21.1153 50.7948ZM17.5747 50.1597H16.9268V49.8599L17.7306 49.7519L18.4025 48.7323H18.7744L18.4145 49.7519H19.3623L19.2423 50.1597H18.2705L17.3227 52.8105C17.7546 52.7386 18.3305 52.3308 18.5945 51.9589H18.7744C18.4385 52.8465 17.5627 53.4703 16.8308 53.4703C16.5789 53.4703 16.4469 53.2304 16.5429 52.9905L17.5747 50.1597ZM16.5931 50.4716C16.7251 50.0158 16.6531 49.6079 16.3052 49.6079C15.8713 49.6079 15.7354 49.8945 15.3149 50.7811L15.2854 50.8434V50.3156C15.2854 49.9438 15.1654 49.6079 14.8295 49.6079C14.4336 49.6079 14.0736 50.2197 13.7977 50.8314H13.9776C14.1696 50.5555 14.3496 50.3876 14.4815 50.3876C14.6495 50.3876 14.7455 50.6515 14.4815 51.2272L13.7137 52.9305C13.5697 53.2543 13.7257 53.4582 14.0376 53.4582C14.2296 53.4582 14.3136 53.4103 14.3976 53.2063L15.1534 51.2152C15.3694 50.9513 15.5613 50.7234 15.8013 50.4716H16.5931ZM12.7902 50.7948C12.9101 50.339 12.6822 50.135 12.4182 50.135C12.1303 50.135 11.7823 50.5549 11.5784 51.1186L12.7902 50.7948ZM13.0893 52.0901H12.8494C12.5495 52.45 12.2135 52.7379 11.8896 52.7379C11.5536 52.7379 11.3857 52.5339 11.3857 52.0901C11.3857 51.9102 11.4097 51.7183 11.4457 51.5504L13.4013 50.9027C13.7852 49.9911 13.3293 49.5952 12.7894 49.5952C11.8656 49.5952 10.8098 51.2145 10.8098 52.51C10.8098 53.1217 11.0977 53.4455 11.5536 53.4455C12.0815 53.4575 12.6334 52.9418 13.0893 52.0901ZM8.05122 52.5464C8.05122 52.7023 8.32717 52.8822 8.51913 52.8822C9.29898 52.8822 10.0308 51.4788 10.0188 50.6992C10.0188 50.4353 9.88686 50.3273 9.7069 50.3273C9.41896 50.3273 8.89106 50.7592 8.55512 51.167L8.24318 52.0066C8.13521 52.2825 8.05122 52.4984 8.05122 52.5464ZM6.79168 49.6079C6.93565 49.6079 7.10362 49.7519 7.03163 50.0158L5.87986 52.8345C6.1798 52.7865 6.49174 52.4987 6.6717 52.2348H6.85167C6.57572 52.9425 5.95184 53.4582 5.41195 53.4582C5.26798 53.4582 5.07601 53.3143 5.172 53.0504L6.25179 50.2317C5.95184 50.2796 5.63991 50.5675 5.45994 50.8314H5.27997C5.55592 50.1237 6.22779 49.6079 6.79168 49.6079ZM1.81165 48.3604H4.39115L4.31916 48.5883C3.44333 48.7443 3.29936 48.8162 2.93943 49.7878L2.17158 51.8989C1.79965 52.9064 1.89563 53.0264 2.5555 53.0264C3.37077 53.0264 3.90535 52.434 4.37213 51.9167C4.40681 51.8783 4.44111 51.8402 4.47513 51.8029H4.77507L3.92324 53.3142H0L0.071986 53.0983C0.935818 52.9424 1.07979 52.8704 1.43972 51.8989L2.21957 49.7758C2.5675 48.8042 2.49552 48.7323 1.73966 48.5763L1.81165 48.3604Z" fill="black"/>
</svg>
