<svg width="32" height="32" viewBox="0 0 32 32" fill="none" xmlns="http://www.w3.org/2000/svg">
<path d="M5.62342 17.2819L2.06747 11.5339H0V19.4857H1.61311V13.7377L5.16906 19.4857H7.23654V11.5339H5.62342V17.2819Z" fill="#272771"/>
<path d="M10.9054 11.5339H9.29228V19.4857H10.9054V11.5339Z" fill="#272771"/>
<path d="M15.1653 12.7153C15.7674 12.7153 16.2901 13.113 16.7558 13.715L17.9372 12.6473C17.2555 11.8409 16.3468 11.3069 15.154 11.3069C13.6319 11.3069 12.5869 12.3519 12.5869 13.613C12.5869 16.3052 16.1995 15.9079 16.1995 17.3733C16.1995 17.9414 15.8131 18.2821 15.1771 18.2821C14.5411 18.2821 13.8933 17.9188 13.4163 17.305L12.2462 18.384C12.9506 19.2248 13.848 19.7131 15.1884 19.7131C16.6538 19.7131 17.8126 18.8157 17.8352 17.3163C17.8352 14.5901 14.2226 14.9988 14.2226 13.556C14.2226 13.079 14.5973 12.7153 15.1653 12.7153Z" fill="#272771"/>
<path d="M26.977 16.1813C27.5074 15.6658 27.9982 15.084 27.9982 14.3189C27.9982 13.3787 27.2477 12.6965 26.2139 12.6965C25.3125 12.6965 24.6017 13.1092 24.1016 13.9228L24.0138 14.0657L25.1098 14.7332L25.196 14.5884C25.4824 14.1086 25.7495 13.9127 26.1185 13.9127C26.4511 13.9127 26.6497 14.1029 26.6497 14.4221C26.6497 14.7608 26.4579 14.993 26.0529 15.4057L24.2387 17.1895V18.3232H28.1305V17.0924H26.0327L26.977 16.1817V16.1813Z" fill="#272771"/>
<path d="M26.0728 9.56643C26.2682 9.56643 26.4616 9.61781 26.6315 9.71451L30.8656 12.1311C31.216 12.331 31.434 12.7061 31.434 13.1099V17.9091C31.434 18.3129 31.2164 18.6876 30.8656 18.8878L26.6315 21.3045C26.4616 21.4016 26.2686 21.4525 26.0728 21.4525C25.877 21.4525 25.684 21.4011 25.5141 21.3045L21.28 18.8878C20.9296 18.688 20.7115 18.3129 20.7115 17.9091V13.1099C20.7115 12.7061 20.9292 12.3314 21.28 12.1311L25.5141 9.71451C25.684 9.61741 25.877 9.56643 26.0728 9.56643ZM26.0728 9C25.7831 9 25.4934 9.07404 25.2337 9.22253L20.9996 11.6392C20.4716 11.9406 20.1455 12.5017 20.1455 13.1099V17.9091C20.1455 18.5172 20.4716 19.0784 20.9996 19.3798L25.2337 21.7964C25.4938 21.9449 25.7835 22.019 26.0728 22.019C26.3621 22.019 26.6522 21.9449 26.9119 21.7964L31.146 19.3798C31.6739 19.0784 32.0001 18.5172 32.0001 17.9091V13.1099C32.0001 12.5017 31.6739 11.9406 31.146 11.6392L26.9119 9.22253C26.6518 9.07404 26.3621 9 26.0728 9Z" fill="#FDC82E"/>
</svg>
