<?xml version="1.0" encoding="UTF-8"?>
<svg id="logo" xmlns="http://www.w3.org/2000/svg" viewBox="0 0 266.1 66">
  <defs>
    <style>
      .cls-1 {
        fill: #fff;
      }

      .cls-2 {
        fill: #3a3a3a;
      }

      .cls-3 {
        fill: #c42f2c;
        stroke: #c42f2c;
        stroke-width: .05px;
      }

      .cls-4, .cls-5 {
        fill: #274370;
      }

      .cls-6 {
        fill: #a9aaab;
      }

      .cls-7 {
        fill: #13294d;
      }

      .cls-5 {
        fill-rule: evenodd;
      }

      .cls-8 {
        fill: #161616;
      }
    </style>
  </defs>
  <path class="cls-5" d="M33,6.48c-14.65,0-26.52,11.88-26.52,26.52s11.87,26.52,26.52,26.52,26.52-11.88,26.52-26.52S47.65,6.48,33,6.48ZM0,33C0,14.77,14.78,0,33,0s33,14.77,33,33-14.78,33-33,33S0,51.23,0,33Z"/>
  <path class="cls-1" d="M31.51,64.35c-.05-.01-.29-.36-.86-1.24-.28-.43-.55-.86-.81-1.3-.03-.08-.12.84-.17,1.79l-.02.35.21.08c.26.1.29.18.05.16-.09,0-.35-.03-.58-.05-.14,0-.29-.02-.43-.05-.04-.04.03-.08.18-.12.08-.02.16-.05.17-.07.02-.04.23-2.61.21-2.64,0-.01-.11-.06-.22-.1-.19-.07-.25-.12-.18-.15.01,0,.25,0,.53.02l.5.04.67,1.08c.37.59.7,1.12.72,1.18.05.1.05.1.05.02,0-.05.03-.45.07-.9.09-1.13.11-1.02-.14-1.11-.26-.1-.28-.18-.04-.15.09,0,.35.03.58.05.23.02.42.04.43.05.04.04-.03.09-.16.11-.07.01-.15.03-.18.05-.03.02-.08.41-.16,1.48l-.12,1.46s-.21,0-.3-.02ZM33.82,64.32c-.12-.03-.23-.06-.24-.07,0,0-.03-.18-.03-.38l-.02-.37h.08c.07,0,.09.03.15.22.09.29.2.35.57.36.2,0,.29-.02.38-.07.27-.16.36-.47.2-.71-.08-.12-.32-.26-.79-.46-.27-.12-.49-.29-.59-.48-.08-.16-.09-.5-.02-.67.13-.32.52-.56.95-.6.22-.02.67.03.76.09.02.01.05.18.06.36l.03.34h-.09c-.07,0-.09-.03-.15-.2-.08-.24-.16-.29-.5-.31-.39-.02-.6.12-.59.42,0,.26.11.34.85.66.49.22.69.47.69.87,0,.47-.21.77-.66.95-.26.11-.71.14-1.03.06ZM37.19,64.02c-.05,0-.11-.02-.16-.04-.05-.24-.09-.47-.11-.71,0,0,.04-.01.08-.03.06-.02.09,0,.17.2.06.13.14.23.19.26.11.05.5.05.65,0,.38-.14.49-.58.21-.84-.12-.11-.23-.16-.73-.31-.58-.18-.8-.42-.8-.86,0-.2.02-.27.09-.41.2-.34.53-.51,1.05-.54.17-.01.37,0,.44,0l.12.02.05.32c.05.32.04.37-.07.37-.02,0-.08-.08-.12-.17-.1-.22-.13-.25-.37-.27-.28-.03-.44.01-.58.13-.14.12-.18.26-.12.43.06.18.17.25.67.4.74.23.98.45,1.02.91.03.44-.16.76-.59.97-.34.17-.72.22-1.09.16h0ZM26.85,63.73c-.33-.08-.61-.16-.62-.18,0-.03.06-.05.18-.07.11-.01.2-.04.21-.05.02-.04-.05-.77-.08-.8-.02-.02-1.09-.28-1.1-.26-.17.23-.43.67-.42.7.01.03.08.08.16.13.13.07.19.17.11.17-.02,0-.2-.04-.41-.09l-.45-.1c-.11-.03-.1-.11.02-.14.05-.01.14-.07.19-.12.05-.05.47-.64.94-1.32.47-.67.88-1.22.9-1.22.03,0,.13.02.22.04.14.03.18.05.19.11.02.07.4,2.97.4,3.02,0,.01.05.08.11.15.06.07.1.14.08.15-.02.02-.3-.04-.64-.11h0ZM26.46,61.79c-.03-.29-.06-.61-.06-.7v-.17s-.09.15-.09.15c-.05.08-.22.34-.38.58-.11.15-.21.3-.29.46,0,.03.7.21.83.21.05,0,.05-.05,0-.53ZM40.27,63.43s.06-.09.14-.13c.1-.06.14-.11.14-.17,0-.11-.62-2.47-.67-2.53-.02-.03-.1-.04-.19-.04-.13,0-.22-.05-.18-.09.02-.02,1.19-.33,1.25-.33.09,0,.06.06-.08.15-.11.07-.14.11-.14.19,0,.05.15.64.32,1.31l.32,1.21.2.03c.11.02.2.05.2.07,0,.03-.43.15-1.26.36-.04,0-.06,0-.06-.03ZM17.41,58.92c-.15-.08-.28-.21-.35-.37-.06-.17,0-.36.17-.51.23-.21.53-.2.78.02.23.2.22.48-.01.73-.12.13-.15.14-.32.15-.09,0-.19,0-.27-.02ZM48.1,58.83c-.13-.11-.21-.26-.23-.43,0-.17.15-.39.32-.48.15-.08.18-.08.3-.04.25.08.43.38.37.62-.08.32-.49.5-.76.33ZM54.38,55.16s0-.07.03-.13c.03-.06.05-.12.04-.14,0-.02-.36-.37-.78-.78-.42-.41-.77-.75-.77-.76,0-.01.04-.06.08-.12l.08-.09,1.04.12c.57.07,1.09.13,1.14.14.09.02.01-.07-.45-.51-.2-.19-.4-.38-.6-.56-.03-.02-.1,0-.19.05-.08.04-.15.07-.16.06-.02-.02.41-.51.53-.61.09-.07.1,0,.04.13l-.06.13.69.67c.38.37.72.68.75.69.03.01.12-.01.2-.06.08-.04.15-.07.16-.05.04.03-.48.56-.56.57-.06,0-1.58-.17-1.88-.22-.1-.02-.08.01.26.34.18.17.36.34.54.51l.17.15.15-.08c.08-.05.16-.07.18-.06s-.12.17-.29.34c-.17.17-.32.31-.33.29ZM10.51,54.12c-.09-.09-.11-.14-.09-.2.01-.04.24-.51.51-1.04.41-.82.48-.99.48-1.13v-.17s.35.36.35.36c.19.2.34.37.33.39-.01.02-.08,0-.15-.04l-.14-.07-.09.15c-.05.09-.1.18-.14.27l-.06.13.17.2c.1.11.23.25.29.31l.12.11.26-.1c.1-.04.19-.08.29-.13.02-.01,0-.08-.03-.16-.03-.07-.05-.14-.03-.15.02-.02.29.23.45.42l.11.14-.13-.02c-.11-.02-.28.04-1.2.39l-1.12.43s-.1-.04-.16-.1ZM11.85,53.47s-.45-.49-.46-.48c0,0-.11.21-.24.45l-.23.44.47-.19c.26-.11.47-.2.46-.22h0ZM56.14,52.42c-.38-.13-.73-.42-.89-.73-.12-.28-.13-.59-.05-.88.13-.35.49-.71.81-.8.35-.1.67-.03,1.02.23.41.29.63.77.54,1.19-.02.11-.07.27-.12.36-.14.25-.35.45-.59.59-.2.1-.54.13-.74.06h0ZM56.97,52.04c.08-.04.15-.1.21-.17.06-.07.1-.15.13-.24.1-.35-.27-.86-.84-1.16-.27-.14-.42-.17-.59-.12-.13.03-.24.1-.32.21s-.13.23-.12.36c0,.21.07.36.26.57.43.46.94.68,1.27.54h0ZM9.33,52.38c-.25-.07-.48-.22-.71-.47-.19-.21-.47-.66-.47-.77,0-.03.09-.13.19-.21.15-.12.2-.14.22-.1.02.03,0,.09-.04.17-.11.19-.04.45.2.73.35.41.89.37,1.41-.1.47-.43.51-.93.1-1.3-.05-.05-.11-.1-.18-.13-.07,0-.52.39-.51.43.08.23.1.3.08.32-.01.01-.03.02-.04,0-.67-.85-.77-1.02-.5-.83.06.04.13.06.15.05.03-.01.18-.12.33-.23.33-.26.32-.26.74.18.39.4.55.71.55,1.07,0,.31-.11.55-.36.8-.34.33-.78.47-1.17.36h0ZM58.32,50.4c.09-.23.12-.2-.76-.78-.45-.3-.84-.54-.87-.54s-.09.03-.13.07c-.1.08-.13.09-.13.03,0-.05.53-.83.56-.83.02,0,.02.07,0,.15l-.02.15.84.56.84.56.12-.09c.06-.05.12-.08.14-.06.03.04-.51.84-.56.84-.03,0-.04-.02-.02-.06h0ZM7.12,49.73c-.25-.38-.46-.71-.46-.72,0-.01.08-.07.19-.14.22-.13.32-.11.19.05-.04.04-.06.09-.07.15,0,.08.36.63.4.62.02,0,.18-.1.34-.21.19-.12.29-.21.28-.24-.05-.1-.11-.2-.18-.29-.15-.23-.17-.25-.25-.23-.15.03-.15.03-.17-.01-.02-.06.51-.4.56-.36.02.02,0,.07-.04.14l-.08.11.18.28c.1.15.19.28.2.28s.18-.1.38-.23c.23-.15.36-.25.36-.29,0-.05-.29-.54-.37-.62-.07-.02-.14-.02-.21-.02-.29,0-.28-.08.02-.2.13-.05.23-.09.24-.09l.79,1.23c.17.27.17.35,0,.2-.06-.05-.12-.08-.15-.06-.02.01-.41.26-.85.55l-.81.52.02.15c.01.08.01.15,0,.15-.02,0-.23-.31-.48-.7h0ZM59.05,48.95c-.2-.11-.25-.17-.2-.23.01-.01.09,0,.17.03.08.03.17.04.2.03.03,0,.1-.12.17-.25l.13-.24-.84-.47c-.46-.26-.86-.47-.89-.47s-.1.04-.15.09c-.05.05-.1.08-.11.06-.02-.04.47-.91.51-.91.02,0,.02.07.02.16v.16s.84.48.84.48c.68.39.86.47.89.44.02-.03.09-.14.15-.25l.11-.21-.14-.14c-.1-.1-.13-.15-.11-.19.02-.04.08-.02.27.08.08.05.17.09.25.14.02.02-1.01,1.82-1.03,1.82-.01,0-.12-.06-.24-.12ZM6.06,47.99l-.18-.36.45-.91c.25-.5.44-.91.44-.91,0,0-.3.15-.65.34l-.64.34.02.14.03.16s-.01.02-.03.03c-.05.01-.42-.71-.39-.74.01-.01.07.02.13.08l.11.1.18-.1c.1-.05.54-.28.98-.51l.81-.42.05.1c.03.06.05.13.05.15s-.22.5-.48,1.06l-.48,1.01.14-.08c.08-.04.41-.22.72-.38.32-.17.58-.31.58-.33,0-.01-.02-.08-.04-.16-.08-.27.03-.19.22.18.07.13.14.26.2.4,0,.05-.09.02-.17-.06l-.09-.08-.87.45c-.3.15-.6.31-.89.48-.01.01,0,.09,0,.18.02.1.02.16,0,.19-.02.02-.09-.09-.21-.33h0ZM59.66,45.97c-.94-.07-1.07-.08-1.16-.03-.05.03-.11.04-.12.03-.03-.03.35-.84.39-.84.02,0,.03.06.03.14v.15l.19.02c.1.01.25.03.32.03h.12s.16-.36.16-.36c.09-.2.16-.38.15-.4-.02-.06-.38-.42-.42-.42-.02,0-.08.04-.14.09-.05.05-.11.08-.12.07-.03-.03.27-.69.31-.67.02,0,.04.06.06.13.01.07.09.19.21.31.1.11.47.5.82.86l.63.67-.08.16c-.09.18.07.17-1.38.07h0ZM60.32,45.24c-.12-.13-.25-.25-.38-.36-.03,0-.29.59-.27.61,0,0,.22.04.48.06.26.03.48.05.5.05.02,0-.13-.16-.33-.36h0ZM5.21,45.14c-.48-.07-.86-.47-1.01-1.09-.11-.41-.15-.36.44-.59.02,0,.05.02.06.05.01.05-.02.09-.12.16-.07.05-.14.13-.16.18-.06.23.11.61.33.74.11.07.17.08.41.08.46,0,.86-.21,1.07-.55.09-.15.1-.2.1-.42,0-.28-.08-.49-.27-.69-.1-.11-.11-.13-.07-.19.05-.06.06-.05.25.14.33.32.49.73.44,1.13-.08.65-.76,1.14-1.47,1.04ZM61.7,43.93v-.14s-.96-.31-.96-.31l-.95-.32-.1.12c-.05.07-.11.11-.12.1-.03-.03.27-.94.32-.96.03,0,.04.04.04.14v.15l.8.27c.44.15.81.26.82.25s-.33-.3-.75-.65c-.73-.61-.77-.64-.75-.74.01-.06.03-.11.04-.12.01,0,.45-.04.97-.08.52-.03.96-.06.97-.07,0,0-.34-.13-.77-.27-.75-.24-.79-.25-.83-.19-.2.31-.23.23-.07-.25.07-.22.14-.39.16-.37.02.02.03.09.04.17v.14s.96.31.96.31l.95.31.09-.11c.17-.2.17-.13.03.3l-.14.41-.79.03c-.43.02-.86.03-.95.03-.12,0-.15.01-.12.03.03.02.36.3.74.62l.7.58-.13.38c-.07.21-.14.38-.17.38-.03,0-.05-.06-.05-.15ZM3.58,42.19c-.09-.27-.17-.54-.24-.82,0-.07.4-.19.44-.14.02.03-.01.08-.08.13-.06.05-.11.12-.11.15,0,.05.17.65.19.67.01.01.72-.2.75-.23.03-.03-.14-.6-.19-.64-.04-.02-.09-.03-.13-.03-.06,0-.1-.02-.1-.05s.1-.08.29-.14c.16-.05.3-.09.31-.09.06,0,.02.1-.07.16l-.09.07.09.32c.05.17.11.32.13.32.08,0,.82-.25.84-.28.02-.04-.15-.64-.2-.72-.02-.02-.09-.05-.16-.06-.31-.05-.28-.17.05-.2.08-.01.16-.02.24-.01.04.05.51,1.66.49,1.68-.01.01-.07-.03-.12-.09l-.1-.12-.95.29c-.8.25-.95.3-.96.36-.02.16-.04.22-.07.22-.02,0-.13-.35-.26-.77ZM60.62,40.06s0-.16.04-.32c.05-.24.07-.29.15-.33.14-.07,1.21-.53,1.24-.53.01,0,.02.08.01.18-.02.3.13.48.43.53.19.03.37-.05.44-.2.05-.12.13-.41.11-.41,0,0-.42-.09-.92-.19-.5-.1-.95-.19-.99-.19-.05,0-.1.03-.13.1-.05.11-.12.14-.12.06,0-.13.2-.96.23-.95.02,0,.04.07.05.15l.02.14.24.05c.93.21,1.76.36,1.78.32.02-.07.14-.2.16-.18.03.03-.25,1.27-.32,1.43-.13.28-.26.38-.51.38-.14,0-.28-.06-.39-.15-.11-.1-.18-.23-.19-.37-.01-.08-.03-.14-.04-.14-.07,0-1.09.51-1.17.58-.05.05-.1.07-.11.05ZM2.72,38.8l-.06-.39.63-.65c.35-.36.67-.68.72-.72q.12-.1-.71.04l-.66.11-.03.14c-.04.21-.06.24-.08.22-.06-.28-.11-.56-.15-.85,0-.08.05-.04.12.08.04.08.09.12.14.12.04,0,.54-.07,1.1-.17,1.02-.16,1.03-.16,1.05-.09.05.18.01.22-.76,1.03-.43.45-.77.82-.75.82.01,0,.36-.05.78-.12l.76-.13.03-.18c.03-.19.08-.23.1-.1.03.13.12.74.12.78,0,.08-.05.04-.12-.08-.04-.07-.09-.12-.13-.12-.07,0-1.79.27-1.87.3-.06.02-.1.12-.1.27,0,.05-.02.09-.05.09-.03,0-.07-.12-.11-.38h0ZM62.03,37.46c-.52-.19-.81-.59-.81-1.13,0-.51.24-.93.63-1.1.21-.08.44-.11.67-.09.23.02.44.09.64.21.35.23.51.54.51.99,0,.51-.21.87-.59,1.06-.26.13-.76.15-1.04.05h0ZM63.03,36.96c.13-.03.24-.11.33-.22.08-.11.13-.24.13-.37,0-.3-.17-.49-.55-.63-.17-.06-.29-.08-.64-.08-.41,0-.44,0-.59.09-.1.06-.17.14-.23.23-.05.1-.08.21-.07.31,0,.11.04.22.1.31.06.09.14.17.24.21.08.04.22.09.32.12.22.06.79.07.97.02ZM4.53,35.91c-.05-.07-.29-.16-1.18-.46-.38-.12-.76-.25-1.13-.38,0,0-.02-.09-.03-.18l-.02-.17,1.08-.48c.89-.4,1.1-.5,1.14-.58.1-.17.13-.11.15.27.03.49.03.6,0,.6-.02,0-.05-.05-.08-.12-.05-.15-.09-.15-.41-.01l-.25.11.02.35c.03.53,0,.49.33.59.16.05.3.08.31.07.02,0,.04-.07.05-.14.04-.2.12-.15.12.06,0,.1,0,.26.02.36.02.21-.03.24-.14.1ZM3.66,35.24s-.02-.17-.02-.3-.01-.27-.03-.29c-.02-.03-.14,0-.48.15-.32.14-.43.2-.38.21.04.01.25.08.47.15.47.16.47.16.44.08ZM63.27,34.51s.04-.07.15-.1l.15-.03.02-.38c.01-.21.02-.39,0-.41,0-.02-.21-.03-.45-.03h-.43v.7l.1.04c.07.02.1.06.1.11,0,.07-.01.07-.18.05-.1-.01-.26-.02-.35-.02-.21,0-.23-.08-.03-.14l.14-.04v-.68l-.21-.02c-.15-.01-.3-.02-.45-.02h-.24l-.05.16c-.03.09-.07.17-.09.18-.04.01-.04-.06-.02-.36.01-.2.02-.46.02-.56,0-.22.05-.24.11-.05l.04.13.39.02c.21.01.67.02,1.02.02h.63l.05-.12c.09-.22.13-.15.11.2-.01.17-.02.56-.02.87v.55h-.26c-.23,0-.26,0-.26-.07h0ZM2.45,33.36h-.27v-.26c0-.14.01-.61.02-1.04l.02-.79h.29c.26,0,.29,0,.28.06,0,.04-.07.08-.18.1-.09.02-.17.05-.18.05,0,0-.02.14-.03.29l-.02.28.67.02c.37.01.83.02,1.02.01h.34s.04-.13.04-.13c.02-.07.06-.13.09-.14.04-.01.04.04.02.28-.01.16-.02.4-.02.54,0,.28-.05.33-.11.11-.02-.08-.06-.15-.08-.15-.02,0-.47-.02-1.01-.04l-.96-.02v.3s.02.31.02.31l.16.04c.12.03.16.05.17.11,0,.04,0,.07,0,.07,0,0-.13-.01-.28-.02ZM63.7,32.01c-.03-.08-.08-.14-.11-.14-.34.02-.67.04-1.01.07-1.29.09-1.18.1-1.18-.07,0-.13.02-.15.79-.82.29-.26.58-.51.88-.75.11-.08.15-.08-.74,0-.38.03-.72.05-.75.05-.04,0-.07.03-.08.09l-.04.17c-.03.15-.08.09-.1-.13-.06-.64-.06-.65-.01-.65.02,0,.06.05.09.12.03.09.07.12.12.12.27,0,1.91-.13,1.93-.15.01-.01.04-.09.06-.17.06-.23.11-.19.13.1.05.56.11.45-.64,1.1l-.79.66-.12.1.2-.02c.11-.01.45-.04.74-.06.3-.02.55-.05.56-.07.01-.02.03-.1.04-.17.03-.21.08-.16.11.1l.04.43c.02.24-.03.29-.11.1ZM4.52,30.7c-.01-.07-.04-.13-.05-.14-.03-.02-1.78-.19-1.94-.19-.06,0-.1.04-.14.12-.09.19-.13.15-.1-.1.01-.12.03-.35.04-.5.02-.31.09-.39.13-.16.01.07.04.13.07.14.04.01,1.84.19,1.95.19.03,0,.08-.05.1-.12.03-.07.07-.12.09-.12.04,0,.04.04,0,.57-.04.42-.1.55-.14.32ZM61.14,28.79c-.02-.17-.05-.34-.08-.5-.03-.11.08-.07.13.04.02.06.06.11.07.12.02.02,1.75-.23,1.93-.28.06-.01.08-.05.1-.16.01-.08.04-.13.06-.13.05.02.2,1,.14,1-.02,0-.07-.06-.1-.12-.05-.11-.07-.12-.15-.1-.05.01-.47.08-.93.14-1.08.16-.98.13-1.01.3-.04.26-.1.15-.16-.31h0ZM3.39,29.13c-.34-.11-.55-.29-.73-.63-.07-.13-.08-.2-.08-.5s.01-.37.09-.54c.12-.27.28-.43.51-.54.18-.09.23-.1.54-.09.27,0,.39.02.54.08.28.12.51.34.64.61.08.18.1.25.09.5,0,.52-.22.89-.62,1.08-.18.09-.25.1-.5.1-.17,0-.33-.02-.49-.07h0ZM4.33,28.67c.31-.07.49-.29.49-.61,0-.39-.37-.65-1.03-.74-.59-.07-.97.11-1.03.5-.05.36.14.62.59.76.35.12.72.15.99.08ZM62.72,27.21c-.11-.05-.34-.23-.39-.31-.05-.1.05-.12.17-.03.23.16.51.11.6-.11.02-.06.05-.12.06-.13.03-.03.29.26.29.33,0,.09-.12.2-.25.26-.15.04-.32.04-.47,0ZM5.19,26.57s-.02-.08-.02-.16,0-.13-.02-.13c0,0-.44-.12-.96-.26-.32-.09-.64-.18-.97-.26-.01,0-.06.06-.1.14-.08.14-.14.18-.14.1,0-.02.04-.19.09-.38l.09-.34.35-.14.93-.36c.2-.07.39-.15.58-.24,0,0-.31-.1-.68-.2l-.68-.19-.05.07-.11.15c-.1.14-.1.05.02-.37.11-.42.17-.5.19-.28,0,.07.03.14.07.15.03.02.5.15,1.05.3.54.15,1,.28,1.01.29.02.01.01.08,0,.14l-.03.12-1.02.4c-.35.14-.71.28-1.07.42-.05.01-.05.02,0,.04.11.04,1.46.41,1.5.4.02,0,.08-.06.12-.14.08-.14.17-.19.13-.08l-.11.41c-.09.35-.12.42-.17.38ZM61.24,26.23c-.32-.1-.6-.37-.75-.72-.09-.2-.42-1.36-.39-1.38.01-.01.06.03.11.09.05.06.12.11.16.11.04,0,.47-.12.97-.25l.9-.25v-.14c.03-.29.11-.16.3.54.17.61.19.72.19,1.01,0,.27-.01.36-.08.47-.1.18-.29.35-.53.46-.23.11-.66.14-.89.06ZM61.89,25.69c.55-.21.72-.54.55-1.12-.02-.09-.05-.17-.08-.25-.02-.02-1.8.47-1.85.51-.09.08.16.68.34.8.26.18.65.21,1.03.06ZM5.95,23.9s-.03-.08-.04-.12c-.02-.06-.31-.36-.88-.9-.47-.44-.86-.82-.87-.85,0-.03.01-.1.04-.17l.05-.12h1.19c1.05,0,1.19,0,1.28-.06.05-.03.11-.05.12-.04.01.01-.06.22-.15.46-.17.46-.27.57-.25.29v-.15s-.64,0-.64,0l-.14.37-.14.37.1.11c.07.08.15.15.24.21l.13.11.1-.11c.17-.2.18-.13.02.28-.12.31-.14.36-.17.31h0ZM5.5,22.51c.06-.16.11-.3.11-.31,0,0-.23-.01-.5-.02-.38,0-.48,0-.45.03.23.22.7.63.72.62,0,0,.07-.15.13-.31ZM59.68,22.22c-.35-.08-.61-.38-.73-.86q-.08-.3.19-.42c.13-.06.26-.11.28-.11.08,0,.03.12-.1.23-.1.08-.14.15-.14.21,0,.17.07.36.19.49.1.1.14.13.26.13.28,0,.41-.2.42-.65,0-.62.21-.89.64-.89.22,0,.36.07.53.26.14.16.25.42.3.71.02.11.02.12-.21.22-.31.14-.4.08-.17-.11.14-.13.16-.27.05-.5-.11-.25-.32-.33-.5-.19-.11.09-.16.26-.16.56,0,.33-.06.57-.18.7-.08.09-.19.16-.31.2-.12.04-.24.05-.37.03ZM7.02,21.07l.02-.15-.89-.44c-.49-.24-.91-.44-.94-.44s-.08.04-.12.09c-.04.05-.08.09-.11.08-.05-.02.4-.97.46-.97.02,0,.02.07.01.17l-.02.17.87.43c.65.33.88.42.92.4.06-.05.29-.55.29-.63,0-.03-.04-.11-.08-.16-.17-.21-.17-.21-.12-.25.04-.03.1,0,.28.13l.23.17-.38.76c-.21.42-.4.76-.42.76-.02,0-.03-.06-.01-.15h0ZM58.15,19.69c-.22-.42-.4-.78-.39-.79.01-.01.07.02.14.07l.12.09.88-.47.88-.46v-.16c-.01-.09,0-.16.01-.16.02,0,.16.25.32.55.16.3.34.64.4.76l.12.21-.21.11c-.18.1-.21.1-.23.05-.01-.03,0-.09.05-.13.04-.04.07-.11.07-.14,0-.07-.3-.64-.34-.64-.02,0-.66.34-.69.36,0,0,.06.14.15.31l.16.3.14-.02c.11-.02.14-.01.14.03,0,.03-.1.11-.28.2-.31.16-.41.15-.26-.02l.08-.1-.15-.3-.15-.3-.39.2c-.22.11-.4.23-.4.26-.01.07.26.61.33.67.03.02.13.04.22.04.14,0,.17,0,.16.06-.01.06-.15.12-.36.17l-.11.02-.41-.77ZM8.05,19.05l.02-.15-.85-.51c-.47-.28-.87-.51-.89-.51s-.08.03-.12.07c-.2.19-.12-.01.28-.69.49-.82.42-.76.72-.57.1.07.12.09.09.13-.03.03-.07.04-.14.02-.17-.05-.15-.06-.48.49l-.08.13.35.21c.25.15.36.2.38.17.02-.02.1-.16.18-.3l.15-.25-.08-.08c-.05-.05-.07-.1-.05-.14.02-.05.03-.05.1,0l.28.17c.24.14.26.22.05.2-.14-.01-.15,0-.25.16-.06.1-.13.22-.17.28l-.07.11.38.23c.21.13.41.22.43.21.03-.01.13-.16.23-.33l.18-.32-.09-.16c-.08-.14-.09-.26-.03-.26.01,0,.11.08.21.17l.19.17-.45.75c-.25.41-.46.75-.48.75-.02,0-.02-.07,0-.15h0ZM57.24,18.05c-.27-.39-.32-.52-.18-.42.19.14.16.15.9-.34.38-.25.7-.47.72-.49.02-.01-.11,0-.28.04l-1,.22q-.69.15-.75.08s-.06-.09-.06-.12c0-.05.95-1.45,1.09-1.61.09-.11.09-.1-.7.42-.67.44-.67.45-.65.56.01.06.03.14.04.17.02.04,0,.06-.02.06-.06,0-.49-.65-.46-.69.01-.02.07,0,.14.05l.12.09.83-.56c.46-.31.84-.57.84-.58s-.02-.08-.03-.15c-.02-.07-.02-.13,0-.15.04-.03.5.66.48.71,0,.02-.25.37-.54.77-.18.24-.35.49-.52.73,0,0,.4-.08.87-.18.48-.1.89-.19.92-.19.06,0,.51.64.47.68-.01.01-.07-.01-.13-.06-.06-.04-.13-.07-.16-.06-.08.03-1.61,1.06-1.63,1.1-.01.02,0,.09.01.16.02.07.02.13,0,.14-.01,0-.15-.17-.31-.4h0ZM10,16.08s.03-.12.04-.16c.02-.07-.08-.15-.76-.7-.43-.35-.8-.63-.81-.63-.02,0-.07.03-.11.07-.1.08-.14.09-.14.03,0-.06.78-1.01.99-1.21.25-.23.46-.33.73-.33.54,0,1.09.53,1.15,1.1.02.22-.06.57-.18.77-.1.17-.84,1.11-.89,1.12-.02,0-.03-.02-.02-.07ZM10.53,15.22c.19-.24.27-.51.22-.73-.06-.23-.12-.33-.31-.52-.33-.33-.72-.46-1.02-.34-.14.05-.48.38-.57.54-.02.04.14.19.72.65.41.33.77.59.79.59.02,0,.1-.09.18-.19ZM54.91,14.85c-.31-.37-.55-.69-.54-.7.01-.01.08.01.15.05l.13.07.76-.63c.81-.67.8-.66.72-.89-.02-.06-.01-.08.01-.07.02,0,.28.31.58.67l.54.65-.11.09c-.2.17-.24.19-.28.15-.03-.03-.02-.07.02-.14.03-.05.06-.12.06-.14s-.1-.16-.23-.32l-.23-.27-.3.25c-.11.08-.21.17-.31.27,0,.01.09.14.2.28.14.17.23.25.26.23.3-.11.29-.01-.03.24-.17.14-.26.19-.28.16-.02-.02-.02-.06.02-.12.03-.04.05-.1.05-.13,0-.04-.38-.53-.41-.53-.04,0-.7.57-.7.6,0,.02.11.17.25.33.24.28.25.29.37.26.2-.04.26-.03.27.02,0,.04-.21.19-.41.27-.01,0-.28-.3-.59-.67ZM11.82,13.88s.03-.07.06-.14l.06-.12-.33-.33c-.18-.18-.51-.5-.73-.71l-.4-.38-.12.06c-.07.03-.14.05-.15.03s.2-.25.47-.53c.27-.28.54-.56.59-.61l.09-.1.18.15c.15.13.17.16.13.2-.04.04-.06.04-.16,0-.14-.07-.18-.05-.45.25l-.21.24.28.28.29.28.24-.24.24-.24-.06-.12c-.05-.11-.05-.13,0-.14.07-.03.51.4.46.45-.02.02-.07.02-.15,0-.11-.04-.11-.04-.35.2l-.24.24.32.31c.18.17.34.31.36.32.02,0,.16-.11.3-.25.25-.25.25-.27.23-.39-.07-.36-.02-.39.19-.11l.14.19-.61.63c-.53.55-.67.68-.67.61ZM53.32,13.09c-.38-.39-.44-.49-.21-.37l.14.07.44-.42c.24-.23.48-.46.72-.69l.28-.28-.15-.17c-.17-.19-.28-.24-.39-.18l-.13.08s-.07.02-.1,0c-.03-.03,0-.08.16-.24l.2-.2.73.73c.4.4.73.75.73.77s-.09.12-.2.22c-.23.2-.32.19-.19-.03.04-.07.08-.16.08-.2s-.08-.15-.19-.25l-.19-.19-.71.69c-.78.76-.72.67-.6.95.05.12-.04.05-.39-.3ZM56.94,13.28c-.04-.27-.03-.8.02-.83.04-.02.13.07.26.25.05.07.05.1-.06.41-.06.19-.13.33-.15.33s-.05-.06-.07-.16h0ZM51.91,11.7c-.28-.11-.57-.37-.69-.6-.05-.1-.05-.11.11-.3.09-.11.18-.2.2-.2.08,0,.08.06,0,.22l-.08.16.08.16c.21.39.66.46.82.13.07-.15.05-.24-.11-.64-.17-.4-.17-.66-.03-.85.19-.25.55-.33.86-.18.18.08.44.33.53.49l.07.14-.17.19c-.13.15-.18.18-.21.15s-.03-.07.02-.16c.08-.17.07-.23-.05-.4-.1-.14-.27-.25-.42-.25-.1,0-.28.18-.28.29,0,.05.07.27.16.49.18.45.19.59.08.82-.05.11-.14.2-.24.27s-.23.1-.35.1c-.11,0-.22,0-.32-.03h0ZM14.45,11.34s0-.07.05-.12c.04-.05.07-.11.07-.13,0-.07-1.22-1.55-1.28-1.56-.04,0-.1,0-.14.03-.04.02-.09.03-.1,0-.03-.03.73-.67.8-.67.05,0,.05.03-.05.16-.08.11-.09.13-.04.2.16.24,1.15,1.43,1.2,1.44.03,0,.17-.08.31-.19l.25-.2-.03-.17c-.04-.28-.04-.31.02-.32.06-.01.33.47.29.51-.43.35-.87.7-1.3,1.04,0,0-.02-.01-.04-.02h0ZM49.92,10.12c-.21-.16-.38-.31-.37-.32,0-.02.08,0,.16.02l.14.05.24-.32.24-.32.08-.7c.06-.55.07-.73.04-.81-.02-.06-.03-.11-.02-.12.04-.02.8.55.8.6,0,.03-.02.04-.06.02-.03-.01-.1-.03-.15-.04-.11-.02-.1-.05-.19.57-.03.21-.05.4-.04.42.01.04.83-.33.9-.41.03-.03.02-.07-.03-.14-.07-.1-.1-.17-.06-.17.04,0,.61.43.61.46,0,.02-.05.03-.11.03s-.38.12-.74.28l-.63.28-.23.31c-.13.17-.23.33-.23.35.01.05.04.09.07.13.04.05.07.1.07.11,0,.07-.12,0-.48-.28ZM16.18,9.91c.06-.14.04-.29-.19-1.37l-.24-1.14.14-.1.14-.1.96.69c.81.58.98.69,1.08.69.07,0,.12.02.12.03,0,.04-.79.57-.82.54-.01-.01.01-.07.05-.12.03-.04.06-.09.07-.15,0-.04-.36-.33-.45-.37-.01,0-.18.09-.37.22l-.35.23.06.28c.07.34.1.36.25.31.22-.08.17.02-.12.22-.31.21-.39.24-.35.14ZM16.85,8.37s-.18-.16-.4-.32c-.23-.17-.39-.27-.38-.24,0,.03.06.24.11.46.05.22.1.42.1.44.01.03.11-.02.29-.14.15-.1.28-.19.28-.21ZM48.02,8.87c-.25-.12-.59-.42-.56-.5.05-.14.27-.44.31-.43.04.02.05.07,0,.28-.03.17.02.28.22.41.21.14.41.14.56,0,.06-.06.1-.12.12-.2.02-.11.02-.11-.33-.76-.12-.24-.14-.3-.13-.42.05-.46.56-.7,1.01-.48.19.09.36.22.51.38l.07.09-.13.2c-.04.07-.09.14-.14.22,0,0-.03,0-.06-.03-.04-.03-.04-.06-.02-.13.06-.17.04-.27-.09-.41-.22-.22-.49-.24-.62-.04-.09.13-.04.29.17.64.23.36.29.57.23.77-.05.17-.26.41-.41.47-.19.08-.49.06-.73-.05h0ZM19.61,7.48c-.11-.21-.11-.25-.07-.27.04-.02.08,0,.18.1.14.16.28.17.51.07.26-.12.38-.34.28-.54-.09-.19-.19-.23-.63-.25-.53-.02-.59-.03-.74-.16-.3-.26-.29-.69.02-.99.19-.16.43-.27.68-.32l.15-.02.11.21c.15.3.09.38-.12.15-.11-.11-.13-.12-.25-.1-.33.06-.52.24-.48.45.04.21.17.26.61.26s.68.06.82.22c.07.08.12.16.15.26.03.1.04.2.03.3-.03.34-.31.63-.75.78-.35.12-.37.11-.51-.17ZM45.1,7.27c-.22-.07-.43-.18-.6-.34l-.11-.12.1-.23c.14-.3.2-.31.2-.02,0,.24.05.32.27.43.32.16.65.01.65-.31,0-.11-.08-.25-.29-.51-.32-.4-.37-.64-.2-.92.13-.21.3-.29.59-.29.28.01.54.12.75.31l.12.11-.11.23c-.08.18-.12.23-.16.21-.05-.02-.05-.05-.03-.18.03-.2-.04-.31-.28-.42-.25-.12-.46-.05-.52.18-.03.13.02.23.26.53.23.29.35.51.35.67,0,.06-.04.18-.08.28-.16.34-.51.49-.91.4h0ZM21.54,6.89s.05-.08.1-.13l.1-.09-.38-.94-.38-.94h-.14c-.08,0-.15-.01-.15-.03,0-.03,1.33-.58,1.52-.63.06-.02.08.01.15.18.09.25.05.32-.09.18-.05-.05-.12-.09-.16-.09-.07,0-.58.2-.63.24-.02.02.03.19.12.39l.15.36.16-.06c.48-.19.45-.17.46-.31.02-.2.1-.16.2.11.14.33.15.37.1.37-.02,0-.08-.04-.13-.09l-.09-.08-.32.12-.32.12.17.43c.09.24.19.43.21.43s.19-.06.36-.13c.35-.14.39-.18.39-.41,0-.09.01-.12.07-.12s.08.04.11.2c.02.11.04.22.05.25,0,.03-.28.16-.81.37-.45.18-.82.33-.82.33,0,0-.01-.02-.01-.03h0ZM42.86,6.3c-.43-.16-.78-.31-.76-.32.01-.01.09-.03.16-.04h.14s.34-.91.34-.91c.19-.5.34-.93.34-.95,0-.03-.05-.09-.11-.14-.06-.05-.09-.1-.08-.11.04-.02,1.61.56,1.61.6,0,.09-.15.42-.19.41-.02,0-.05-.08-.06-.17l-.02-.15-.33-.13c-.12-.05-.23-.09-.35-.13-.02,0-.25.59-.28.72,0,.03.08.08.25.14.31.12.39.13.46.03.03-.04.07-.07.11-.06.05.01.04.05-.05.31-.12.33-.2.38-.23.16-.02-.13-.02-.13-.32-.25l-.3-.11-.16.42c-.06.15-.11.3-.16.45,0,.03.03.04.46.2l.27.1.16-.12c.22-.17.26-.12.11.16-.07.12-.14.21-.17.21-.03,0-.41-.14-.84-.3ZM24.07,5.75c-.23-.08-.56-.42-.66-.69-.12-.3-.13-.68-.04-.93.18-.47.71-.8,1.33-.83h.2s.08.25.08.25c.1.31.1.31.02.31-.03,0-.11-.07-.17-.15-.12-.17-.23-.21-.46-.16-.39.09-.59.34-.59.73,0,.5.27.98.63,1.14.31.13.74.05,1-.2.08-.07.1-.08.13-.03.02.03.03.07.02.1-.03.08-.36.32-.56.41-.23.1-.72.12-.95.04ZM40.53,5.54c-.28-.07-1.13-.3-1.2-.33-.08-.04-.08-.04-.02-.07.05-.02.11-.03.16-.03.07,0,.1-.03.13-.12.07-.22.49-1.79.49-1.82,0-.02-.05-.07-.1-.1-.12-.07-.14-.17-.03-.13l.69.19c.69.19.92.29,1.12.48.22.21.28.36.28.7,0,.6-.31,1.03-.85,1.19-.17.05-.52.07-.68.03ZM41.02,5.25c.28-.13.49-.53.52-.99.02-.22,0-.27-.08-.44-.11-.23-.26-.33-.64-.43-.19-.05-.26-.06-.27-.03,0,.02-.12.44-.26.93-.19.69-.23.89-.2.92.07.07.45.15.61.13.08,0,.22-.05.3-.09h0ZM26.83,5.21s-.08-.02-.13-.03c-.13-.03-.33-.21-.41-.37-.04-.07-.13-.44-.21-.82-.05-.26-.11-.51-.17-.77-.03-.06-.06-.08-.16-.08-.08,0-.12-.02-.12-.04,0-.03.15-.08.46-.14.25-.05.48-.09.5-.09.08,0,.05.05-.08.12-.07.04-.12.08-.12.1s.07.37.15.78c.1.48.18.78.23.86.14.22.37.28.65.16.18-.08.25-.22.25-.46s-.27-1.53-.32-1.56c-.04-.02-.09-.03-.14-.03-.11,0-.16-.06-.07-.08.08-.03.74-.16.78-.16.07,0,.02.06-.09.12-.07.04-.12.08-.12.1s.06.34.14.7c.17.8.17.97.05,1.22-.1.19-.24.31-.48.4-.14.05-.53.1-.59.08ZM36.54,4.77c-.42-.06-.78-.11-.81-.12-.07-.02-.01-.09.08-.09.17,0,.19-.04.3-.94.06-.47.12-.91.13-.98.02-.12.01-.13-.1-.19-.28-.13-.14-.14.72-.03.46.06.85.11.85.11,0,0,0,.11-.01.24-.02.18-.04.23-.08.22-.03,0-.07-.07-.09-.13-.02-.07-.05-.13-.07-.14-.02-.01-.18-.04-.36-.07-.24-.03-.34-.03-.35,0-.03.04-.12.73-.1.75.02.02.45.09.57.09.09,0,.12-.02.15-.1.02-.06.07-.1.09-.1.04,0,.05.04.03.26,0,.12-.03.23-.05.35-.02.09-.03.09-.08.03-.03-.03-.06-.09-.06-.12s-.01-.07-.03-.08c-.04-.03-.63-.1-.65-.08-.04.03-.12.87-.1.9.04.04.46.1.65.1.12,0,.15-.02.24-.14.17-.24.23-.16.13.16-.06.19-.09.22-.15.22-.04,0-.42-.05-.84-.1ZM28.85,4.77s.06-.06.14-.09c.14-.05.14-.06.12-.19-.01-.07-.06-.51-.11-.98-.05-.47-.09-.87-.1-.89,0-.02-.07-.05-.14-.06-.07-.01-.12-.04-.12-.05,0-.04.1-.06.75-.13.69-.07.92-.04,1.09.12.06.07.11.15.13.23.03.09.03.18.02.27-.03.15-.22.37-.37.44-.06.02-.1.06-.1.07.03.08.82.9.9.94.1.04.12.08.07.11-.01,0-.16.03-.32.04l-.3.02-.48-.55-.48-.55.15-.04c.34-.09.43-.21.41-.55-.01-.18-.03-.22-.13-.31-.1-.09-.14-.1-.35-.1-.23,0-.24,0-.24.08,0,.1.16,1.69.19,1.85.02.1.03.11.16.13.15.02.18.08.06.1-.11.02-.77.09-.88.09-.05,0-.09-.01-.09-.03ZM34.08,4.57c-.32,0-.41-.02-.41-.06,0-.03.06-.06.13-.08.13-.03.13-.04.15-.21.01-.1.03-.55.05-.99l.03-.81-.08-.02c-.1-.01-.19-.02-.29-.01h-.21s-.05.19-.05.19c-.03.1-.08.18-.11.19-.05,0-.06-.03-.06-.27,0-.19.01-.29.04-.3.02,0,.5,0,1.05.03l1.01.04v.1c.02.06.01.19,0,.29-.03.25-.12.24-.17,0l-.04-.17-.19-.02c-.1-.01-.24-.03-.3-.03h-.11s-.02.68-.02.68c-.01.38-.03.83-.04,1l-.02.32.14.04c.17.05.19.14.03.13-.06,0-.3-.01-.52-.02ZM31.63,4.53s.06-.05.14-.08l.14-.05-.02-.83c-.01-.45-.03-.91-.04-1.01-.02-.17-.03-.19-.13-.23-.23-.08-.13-.11.38-.12.31,0,.51,0,.51.02,0,.02-.05.04-.1.05-.05.01-.12.04-.14.07-.02.03-.02.36,0,.98l.03,1s.05.07.14.1c.17.05.18.09,0,.11-.19.03-.91.03-.91,0ZM21.34,4.29s-.03-.07-.01-.16l.07-.34c.04-.2.04-.2.23-.29.22-.1.26-.1.26-.03,0,.05-.39.72-.46.81-.02.02-.06.03-.08.02ZM36.81,2.27s.02-.11.19-.32l.23-.27.21.02c.12.01.22.03.22.04.04.04-.06.13-.3.27l-.4.23c-.1.06-.13.07-.16.03h0Z"/>
  <path class="cls-6" d="M29.46,57.55c-.62-.09-1.24-.2-1.86-.33-2.14-.46-4.22-1.19-6.18-2.17-.58-.3-1.15-.61-1.71-.94-.65-.4-1.28-.82-1.9-1.26-.61-.45-1.2-.92-1.78-1.42-.59-.52-1.4-1.3-1.51-1.47-.11-.16-.88-1.05-1.27-1.47-.12-.13-.23-.23-.24-.22-.01,0-.08-.06-.15-.16-.07-.09-.12-.17-.11-.17.02,0,.17.14.35.32.23.22.32.3.32.25,0-.04-.03-.13-.07-.22-.04-.08-.07-.16-.06-.17,0,0,.07.01.14.04.13.06.13.06.19-.02l.06-.08.1.1c.05.06.09.12.08.14-.01.02.03.11.1.2.06.06.1.14.12.22,0,.03.05.13.1.21.1.14.17.18.17.11,0-.02-.07-.14-.15-.26-.15-.22-.15-.22-.07-.22.14,0,.51.21.66.37.12.13.17.16.36.2.13.03.26.09.32.14.1.08.12.09.34.07.18-.02.27,0,.37.04.13.06.13.06.06.08-.07.02-.04.05.29.26.24.16.37.26.37.3,0,.04.03.07.13.08.08.01.29.12.55.28.23.15.43.3.44.33.01.04.04.06.08.05.07-.02.23.05.44.2.12.08.19.1.4.12.32.02,1.05.26,1.3.41.11.07.22.13.34.17.1.04.19.1.26.17.21.21.45.38.71.51.09.04.14.08.15.15.02.07,0,.12-.05.19-.05.07-.07.13-.05.19.02.08.04.09.17.09s.15,0,.13-.06c-.02-.06,0-.06.29-.06.25,0,.31.02.35.07.03.04.05.09.07.15.01.04.03.08.05.08.02,0,.05-.04.07-.09.02-.05.05-.08.08-.08.03,0,.23.05.46.11.23.06.5.12.6.13.12,0,.24.07.32.16l.14.14.08-.07c.07-.07.1-.07.41-.04.18.02.37.05.42.06.05.02.11.02.15,0,.09-.05.55,0,.8.07.19.06.38.13.57.2.32.11.41.13.69.13h.33s.34.25.34.25c.29.21.34.26.37.37.02.07.03.16.01.2-.03.07-.07.13-.13.19-.09.1-.1.14-.08.23.01.08,0,.15-.05.24-.04.07-.07.14-.07.14s.1.08.22.15c.19.13.37.27.54.42.28.25.32.29.32.4,0,.09.02.12.1.17.09.04.1.06.06.11-.04.05-.1.06-.34.07-.29,0-.46.06-.55.17-.04.04-.03.06.02.08.03.02.2.08.36.13.3.1.62.24.75.34.04.03.06.05.05.05l-.22-.03ZM46.12,53.76s.03-.08.07-.15c.07-.13.08-.21.05-.35-.01-.05-.06-.09-.15-.12l-.13-.04-.02-.28c-.01-.15-.04-.35-.08-.44-.04-.11-.1-.2-.18-.29-.08-.08-.17-.13-.27-.17-.08-.02-.15-.06-.15-.08,0-.08.1-.52.17-.74.05-.17.12-.28.27-.45.11-.12.22-.27.26-.33.04-.06.07-.14.07-.19,0-.06-.05-.14-.14-.23-.13-.13-.14-.15-.12-.27.02-.1,0-.17-.05-.29-.1-.18-.26-.33-.46-.41-.07-.03-.29-.08-.5-.13-.21-.04-.43-.1-.5-.14-.08-.04-.15-.09-.21-.15-.08-.09-.08-.09-.03-.21.04-.09.06-.19.06-.29,0-.1.03-.23.09-.34.09-.19.11-.4.04-.53-.04-.06-.09-.11-.15-.15-.13-.09-.39-.09-.56,0-.12.07-.23.14-.33.22-.21.16-.51.3-.67.3-.05,0-.14-.05-.22-.12-.08-.07-.17-.12-.27-.16-.11-.03-.2-.03-.38,0-.23.04-.29.07-1.01.54-.34.23-.69.45-1.04.66-.15.1-.32.16-.5.19-.23.05-.46.11-.69.19-.17.06-.34.11-.51.16-.08,0-.4.18-.6.34l-.2.16-.54-.05-.54-.06-.49.36c-1.01.74-2.05,1.43-3.11,2.09-.6.37-1.42.85-1.44.83.14-.18.29-.35.44-.51.29-.32.57-.64.85-.97l.39-.47-.41-.21c-.8-.42-1.62-.91-2.64-1.61-.76-.51-1.5-1.06-2.21-1.63-1.09-.87-2.12-1.8-3.09-2.81-1.03-1.02-1.97-2.12-2.83-3.29-.59-.79-1.14-1.61-1.65-2.45-.42-.69-.81-1.41-1.15-2.14-.51-1.14-.95-2.32-1.3-3.53-.21-.76-.4-1.52-.57-2.29-.17-.83-.33-1.67-.45-2.51-.14-.95-.25-1.9-.33-2.85-.04-.44-.08-.8-.09-.81-.01-.01-.02,0-.02.04s-.01.06-.03.06-.05-.05-.08-.11c-.04-.09-.05-.16-.02-.36.03-.27,0-.75-.05-.75-.02,0-.11.15-.2.34-.14.29-.16.36-.15.51.02.24.02.69,0,.94-.02.21-.06.33-.29.7q-.12.2-.14.1c-.05-.26-.1-.4-.23-.65-.08-.15-.15-.26-.15-.26,0,0,0,.12.02.25.04.3.05.97,0,1-.04.03-.35-.35-.45-.56-.04-.09-.1-.28-.13-.44l-.05-.28.09-.08c.08-.07.09-.09.06-.17-.02-.05-.04-.21-.04-.36,0-.24,0-.26-.09-.29-.1-.03-.21-.05-.31-.06l-.23-.02v-.13c0-.08.01-.16.04-.24.02-.06.09-.14.16-.18.07-.05.13-.11.17-.18l.06-.11.05.11c.07.16.2.28.32.28.05,0,.12-.01.15-.03.03-.02.08-.13.1-.25.05-.22.06-.23.33-.46.11-.1.23-.19.35-.27.04-.02.15-.19.25-.39.07-.12.13-.25.18-.39,0-.02-.03-.06-.06-.09-.04-.05-.05-.08-.02-.13.04-.07.03-.07-.05-.05-.05.01-.09.01-.09,0s.04-.09.09-.18l.09-.15h-.09s-.09-.01-.09-.03c0-.09.05-.14.14-.14.05,0,.1-.01.1-.03l.03-.31c.02-.26.04-.3.17-.47.09-.12.13-.19.1-.21-.04-.02-.02-.15.03-.29.02-.06.02-.06-.04-.03-.04.02-.1.14-.15.29-.05.14-.11.26-.13.27-.02,0-.05-.01-.07-.05-.02-.04-.04-.08-.06-.11-.03-.04-.04-.02-.06.1-.02.18-.1.23-.1.06s-.06-.35-.14-.44c-.04-.04-.07-.1-.07-.14s-.02-.08-.04-.1c-.02-.02-.02-.07,0-.14.03-.09.03-.13-.02-.2-.05-.08-.05-.1.01-.24.06-.11.12-.21.19-.3l.12-.15v.13c0,.08.02.13.05.13.03,0,.06-.04.08-.1.02-.05.03-.16.02-.24-.01-.13,0-.16.16-.35.17-.21.76-.76,1.05-.99.2-.16.44-.28.53-.27.05,0,.08.04.09.1,0,.08-.02.11-.21.23-.15.11-.3.23-.43.36-.21.22-.18.21.16-.06.1-.08.25-.16.32-.18.2-.05.38,0,.45.14.03.06.05.16.05.23,0,.15-.1.39-.23.56l-.09.12-.08-.09c-.06-.08-.09-.09-.14-.06-.04.02-.1.07-.13.11-.07.07-.07.07.06.07.11,0,.13.01.16.09.03.07.02.16-.04.37-.06.21-.08.4-.09.81,0,.18,0,.35,0,.53,0,0,.33-.16.72-.36.46-.23.92-.46,1.38-.68.24-.11.48-.23.72-.36.02-.02.12-.33.21-.69.13-.49.2-.7.29-.85.09-.15.11-.21.09-.28-.02-.05-.06-.2-.1-.34l-.07-.25-.18.05c-.3.08-.29.08-.26-.19.03-.19.05-.25.1-.26.09-.03.2-.19.2-.29,0-.05.04-.16.09-.24.1-.17.09-.17.21.02.04.06.04.05.04-.05,0-.06.01-.11.02-.11s.05.02.08.03c.05.03.07.02.1-.03.02-.04.03-.08.04-.12,0-.03-.03-.05-.09-.05-.08,0-.09,0-.07-.09.01-.05.07-.21.13-.35.06-.14.15-.3.21-.36.06-.06.24-.17.41-.26.26-.13.31-.15.34-.1.02.04.08,0,.31-.26.21-.24.27-.34.27-.42,0-.08.1-.21.64-.75.35-.36.73-.71.84-.78.11-.08.2-.14.21-.14s-.03.13-.08.3c-.06.17-.1.31-.09.31,0,0,.08-.13.17-.29.09-.17.16-.29.16-.27,0,.02-.04.2-.08.4-.03.12-.06.25-.07.37,0,0,.08-.19.18-.43.09-.24.24-.55.33-.69.18-.28.47-.57.52-.52.02.02.09.17.17.35.07.16.12.32.16.49.02.12,0,.21-.03.29-.04.1-.08.13-.18.16-.1.03-.19.07-.28.13-.09.05-.16.12-.21.22-.03.07-.05.13-.04.14,0,0,.08-.06.16-.14.11-.11.18-.16.25-.16.05,0,.1.02.1.04,0,.02-.03.08-.05.14-.03.06-.05.11-.04.12,0,0,.09-.05.17-.13l.16-.14-.09.32c-.05.18-.11.36-.18.53-.1.23-.16.42-.12.39.01-.01.17-.28.34-.59.3-.53.32-.56.42-.56.05,0,.14.05.19.09.07.07.09.12.08.24,0,.08-.09.44-.2.8-.09.3-.17.6-.23.91-.02.21-.04.41-.04.62,0,.35,0,.36-.09.39l-.09.03.17.26c.15.22.17.29.17.42,0,.09,0,.16.01.16,0,0,.48-.17,1.06-.38.73-.26,1.46-.52,2.2-.76l1.2-.4s0-.05-.12-.1c-.15-.08-.28-.19-.4-.31-.14-.14-.3-.27-.47-.37-.15-.09-.28-.19-.41-.3-.1-.09-.18-.19-.25-.3l-.09-.15.12-.14c.07-.08.15-.22.18-.32.07-.2.05-.42-.04-.51-.06-.06-.06-.07,0-.07.04,0,.26.02.49.04l.42.04.16.31.16.31h-.12c-.16,0-.38.09-.36.15.03.08.24.2.7.37.25.1.5.2.56.22.08.04.12.09.16.24.03.1.06.2.06.21s-.07.03-.15.03c-.14.01-.16,0-.34-.18-.1-.1-.22-.2-.34-.27-.08-.04-.16-.07-.17-.06,0,0,.12.25.29.54.23.39.32.52.36.51l1.04-.31c.54-.16,1-.3,1.01-.31.02,0-.51-.64-1.01-1.2l-.22-.25.12.03c.22.05,2.36.77,3.4,1.14,1.58.57,3.15,1.18,4.71,1.83.29.12.54.21.55.2,0-.01-.03-.12-.08-.23-.08-.17-.09-.26-.1-.6v-.39s.1.08.1.08c.07.05.12.12.16.2.03.06.07.1.09.1.02,0,.06-.05.09-.1.05-.08.04-.1,0-.21-.06-.12-.06-.13,0-.21.05-.08.05-.14,0-.38l-.02-.1.2.11c.18.1.3.12.3.04,0-.02-.05-.05-.1-.07-.07-.03-.11-.07-.12-.15-.02-.11-.03-.11-.32-.18-.16-.04-.3-.06-.31-.04,0,.02-.14.03-.29.02-.22,0-.29-.02-.38-.09-.04-.03-.08-.06-.11-.09,0,0,.12,0,.27,0,.21.01.3,0,.38-.04.08-.05.15-.12.2-.19.08-.12.11-.14.22-.14.07,0,.17.02.22.03.08.03.09.03.07-.03-.02-.05.01-.07.22-.11.14-.03.34-.03.49-.02l.25.02-.24-.16c-.22-.14-.25-.15-.3-.11-.04.04-.09.04-.21.02-.07-.02-.15-.04-.22-.06-.06-.02-.06-.02-.02.03.03.03.04.07.03.08-.09,0-.17-.02-.25-.05-.13-.04-.25-.09-.28-.12-.02-.03-.16-.08-.33-.11-.15-.03-.3-.06-.44-.11-.1-.04-.2-.11-.27-.19-.1-.11-.23-.18-.68-.37-.31-.13-.56-.25-.57-.25-.01-.01,0-.06.04-.11.04-.06.1-.1.17-.13l.11-.04-.17-.12c-.16-.11-.17-.12-.1-.17.06-.04.13-.09.2-.13l.13-.08-.21-.1c-.12-.05-.21-.11-.21-.13,0-.02.05-.03.12-.03s.12-.01.12-.03c0-.02-.15-.05-.33-.07-.25-.03-.34-.06-.35-.1-.06-.17-.15-.32-.26-.45l-.11-.12.12.02c.11.02.11.02.05-.03-.05-.03-.1-.05-.16-.05-.05,0-.19.03-.3.07-.11.04-.22.06-.34.05-.18-.03-.65-.23-1.11-.47-.29-.15-.43-.21-.59-.23-.12-.01-.22-.04-.23-.07-.04-.07-.03-.13.03-.13.1,0,0-.05-.19-.12-.1-.03-.2-.05-.3-.04-.09.02-.12,0-.13-.03-.01-.05-.09-.06-.67-.07-.31,0-.61-.02-.92-.04q-.26-.02-.17-.08c.05-.04.13-.05.19-.03.1.03.29-.02.29-.07,0-.02.14-.03.3-.04.17,0,.23-.01.15-.02-.19-.01-.45-.08-.45-.11s.42-.16.67-.21c.11-.02.34-.04.51-.04.49,0,1.27.07,2.07.17.41.06.75.09.76.09,0,0-.09-.04-.21-.08-.12-.04-.38-.09-.57-.11-.2-.02-.39-.05-.43-.07-.04-.02-.07-.06-.06-.08,0-.02.06-.05.11-.06.09-.02.08-.03-.14-.12-.19-.08-.23-.11-.17-.13.04-.01.11-.03.16-.03.14,0,.12-.1-.03-.16-.08-.03-.25-.05-.57-.05-.39,0-.45,0-.5-.06-.02-.02-.04-.05-.06-.08,0-.03.16-.09.42-.15.15-.04.3-.05.45-.04.21.02.24,0,.45-.1l.23-.12-.25.02-.5.04c-.2.01-.24.01-.19-.02.05-.03.06-.05.02-.07-.08-.02-.17-.03-.25-.03-.11,0-.3-.02-.42-.05-.18-.04-.24-.04-.45,0-.13.03-.39.07-.58.1-.32.05-.35.05-.53-.02-.14-.04-.28-.07-.42-.07-.18,0-.22,0-.19-.05.02-.03.12-.08.21-.13.1-.04.16-.09.15-.11-.02-.02-.22-.01-.46,0-.24.02-.46.03-.5.03-.11,0-.01-.07.2-.14l.19-.07-.47.02c-.42.02-.83.07-1.02.14-.07.02-.07.02,0-.03.04-.03.06-.06.05-.08-.03-.03-.39.08-.49.16-.06.04-.12.07-.19.07-.06,0-.19.02-.29.04-.21.04-1.28.07-1.26.03,0-.01-.08.01-.19.05-.19.07-.49.14-.49.11,0,0,.08-.07.17-.14.16-.12.22-.13.86-.25.84-.15,1.68-.26,2.52-.33.7-.06,3.5-.06,4.16,0,1.48.13,2.95.38,4.39.74,1.09.28,2.4.72,3.52,1.19.42.18.85.37,1.26.58,1.04.5,2.05,1.07,3.01,1.72,1.05.7,2.05,1.48,3,2.32.63.56,1.85,1.82,2.38,2.44,1.33,1.55,2.47,3.26,3.39,5.09.58,1.14,1.07,2.32,1.47,3.53.57,1.72.96,3.5,1.16,5.31.07.68.14,1.67.13,1.94,0,.1-.01.13-.02.09l-.12-.85c-.09-.67-.21-1.33-.37-1.98l-.07-.24v.32c0,.18-.02.32-.03.32-.03,0-.23-.29-.29-.42-.04-.09-.09-.11-.19-.1-.02,0-.1-.09-.18-.21l-.14-.21-.09.29c-.11.34-.37.89-.52,1.08-.12.16-.45.51-.48.51-.01,0-.09-.09-.17-.19-.08-.11-.16-.18-.18-.16-.01.02-.06.15-.1.31-.06.21-.1.3-.18.37-.08.08-.12.09-.17.06-.1-.05-.35-.04-.46.02-.1.05-.1.05-.28-.1-.09-.08-.19-.15-.29-.21-.07-.03-.14-.05-.22-.06-.08,0-.12.03-.17.11-.07.12-.09.29-.04.37.02.03.01.08-.02.13-.05.08-.05.08.02.08.04,0,.14.07.24.19.14.16.18.19.25.17.08-.02.13.03.41.33l.33.36-.02-.15c-.02-.1-.03-.19-.04-.29-.02-.14,0-.12.14.17.08.17.17.33.2.36.04.03.06.02.09-.11.02-.08.1-.21.17-.29.09-.09.15-.2.17-.32.02-.1.04-.41.04-.69v-.51s.14.33.14.33c.08.19.18.37.23.41l.09.08.14-.16.14-.16.13.16.13.16v.67c-.01.45,0,.71.02.79.04.11.03.14-.03.29-.05.11-.07.23-.07.34,0,.11-.02.23-.08.32-.07.1-.09.23-.08.35.01.21-.01.26-.29.7-.09.12-.13.27-.12.42,0,.21-.01.25-.22.63-.11.21-.21.42-.3.64-.05.14-.11.29-.17.42-.05.1-.19.28-.3.4-.15.16-.22.27-.26.41-.06.2-.26.47-.34.47-.02,0-.12-.17-.22-.37-.12-.24-.19-.43-.19-.54,0-.09-.04-.18-.08-.26-.08-.08-.17-.15-.28-.2-.15-.07-.23-.14-.26-.21-.03-.07-.08-.13-.14-.17-.07-.04-.16-.06-.24-.07-.09,0-.18-.03-.27-.06-.1-.04-.13-.08-.16-.22-.03-.1-.06-.2-.11-.3-.05-.09-.12-.18-.19-.25-.09-.09-.15-.12-.23-.12-.05,0-.11,0-.16.03-.03.02-.14-.06-.37-.29-.38-.37-.71-.58-.89-.57h-.12s-.06-.23-.06-.23c-.03-.13-.07-.25-.08-.26-.01-.01-.01.15,0,.37l.03.39-.12-.02c-.07-.01-.25-.09-.41-.18-.1-.06-.2-.1-.3-.14,0,0,.03.07.09.15.07.09.21.2.4.31.16.09.34.22.39.28.22.25.46.46.66.57.19.11.21.14.23.26.01.08.04.17.07.22.05.08.15.1.21.04.02-.02.08-.02.18.02.14.05.16.08.39.53.15.29.26.48.3.49.03,0,.12.03.2.04.08.01.17.05.22.07.04.03.15.19.23.36.09.19.18.31.21.31.03,0,.1-.03.16-.05.07-.03.14-.05.22-.04.18.03.53.22.59.31.04.06.05.12.03.19-.02.1,0,.11.14.2.12.07.18.08.22.06.03-.02.16-.17.28-.35l.47-.67c.15-.21.29-.42.42-.64.09-.16.18-.29.19-.29.08,0-.03.85-.27,2.03-.15.75-.26,1.12-.51,1.7-.07.15-.45.93-.85,1.73-.35.69-.68,1.39-1.01,2.1-.26.6-.28.64-.21.67.04.01.07.03.07.04s-.03.11-.07.23c-.04.14-.07.29-.09.44-.02.21-.02.22.05.2.04-.01.07,0,.07.02s-.05.2-.11.39c-.07.22-.15.44-.24.65-.16.35-.56.95-.88,1.34-.2.23-.41.46-.62.69-.37.39-.39.42-.45.66-.05.17-.11.33-.18.49-.09.18-.18.31-.39.5-.13.12-.26.25-.39.36-.08.07-.15.16-.22.25-.1.14-.2.27-.32.4-.23.27-1.15,1.13-1.74,1.64-.21.18-.42.34-.64.5-.25.16-.52.31-.79.45-.17.09-.34.17-.51.25-.01,0-.02,0-.02-.02ZM33.49,49.6c1.2-1.6,2.25-3.3,3.14-5.08.24-.47.55-1.12.7-1.46.36-.82.69-1.66.99-2.51.25-.73.61-1.97.75-2.57.05-.23.12-.29.13-.31.78-.13,1.5.01,2.21.2.29.08.6.15.68.15.11.01.16,0,.23-.06.05-.05.09-.11.11-.18.02-.07.02-.14,0-.21-.01-.04-.22-.28-.45-.52-.23-.24-.53-.58-.67-.76-.16-.21-.31-.42-.45-.64-.14-.24-.27-.48-.4-.73-.11-.23-.25-.59-.32-.8-.08-.24-.14-.48-.19-.73-.05-.26-.08-.52-.11-.78-.02-.29-.03-.59-.02-.88.02-.49.09-1.04.2-1.53.11-.49.3-1.1.51-1.63.42-1.08.94-2.04,1.78-3.31.17-.26.21-.34.21-.46,0-.18-.11-.36-.28-.45q-.12-.07-.64.03c-1.04.19-2.06.3-2.7.3h-.32l-.2-.58c-.25-.73-.53-1.45-.83-2.16-.37-.83-.76-1.64-1.19-2.44-.56-1.02-1.17-2-1.82-2.96-.42-.61-1.35-1.85-1.38-1.83-.02,0-.16.12-.32.26-.16.14-.5.47-.76.73-.79.82-1.51,1.71-2.13,2.66-.48.73-.91,1.48-1.3,2.25-.52,1.01-.96,2.05-1.34,3.12-.29.82-.54,1.65-.74,2.49l-.2.8-.26.15c-.49.26-.99.49-1.51.69-.29.1-.58.2-.87.28-.36.1-.73.18-1.1.26-.45.09-.66.15-.71.19-.05.05-.1.11-.13.18-.04.09-.04.14-.01.23.02.06.07.15.11.19.04.04.24.13.44.2.57.19,1.12.43,1.65.71.55.28,1.08.62,1.57,1l.25.2v1.02c0,1.04.03,1.65.13,2.5.16,1.38.42,2.74.78,4.07.35,1.28.79,2.53,1.3,3.75.32.76.89,1.92,1.26,2.6.73,1.31,1.6,2.57,2.46,3.56.38.44,1.29,1.34,1.34,1.33.02,0,.21-.24.43-.53h0ZM40.14,47.5c-.02-.08-.05-.15-.09-.22-.01,0-.04,0-.07.04-.02.03-.09.05-.15.05s-.19-.05-.29-.11c-.06-.04-.13-.07-.2-.1-.02.03-.09.16-.09.18,0,.01.05.02.12.02s.2.02.29.04c.09.02.18.06.25.12.07.06.13.14.16.23.05.12.05.12.09.04.03-.06.02-.13-.03-.29ZM52.11,47.1c0-.11.03-.25.06-.32.03-.07.06-.24.08-.38.02-.24.02-.25-.05-.25-.06,0-.07.03-.09.22,0,.14-.04.27-.11.39-.06.11-.09.23-.09.35,0,.18,0,.19.1.19s.1,0,.1-.19ZM51.45,46.48s0-.1-.03-.21c-.03-.15-.06-.2-.13-.23-.08-.03-.08-.04-.06-.23.02-.18.01-.21-.08-.35l-.1-.15-.03.11c-.02.1-.02.2,0,.31.01.1.02.25.02.33,0,.08.02.15.04.16.02.02.08.03.13.03.07,0,.08.01.07.14-.01.13,0,.14.07.12.03,0,.07-.02.1-.03ZM52.24,44.26c.05-.06.19-.31.31-.55.19-.38.21-.44.15-.42-.23.08-.44.21-.62.38l-.2.19-.02.3c-.01.17-.03.36-.04.44l-.02.14.18-.19c.09-.1.18-.2.26-.3ZM48.67,33.97l.15-.29c.06-.13.15-.26.25-.37.05-.05.22-.12.37-.17.16-.05.31-.13.45-.21l.18-.13v-.63c0-.41-.02-.71-.05-.86-.04-.21-.09-.31-.31-.7-.04-.08-.06-.17-.06-.26,0-.1-.01-.15-.05-.15-.03,0-.07.05-.09.12-.04.1-.07.13-.16.14-.07.01-.12.04-.13.06l-.1.33c-.05.17-.1.34-.14.51-.04.16-.04.22,0,.2.02,0,.04-.05.04-.09,0-.05.04-.09.12-.14.07-.03.15-.11.2-.18l.08-.12-.02.19c-.01.1-.04.22-.07.27-.04.07-.09.13-.15.19-.08.07-.13.1-.19.08-.08-.02-.09,0-.12.13-.16.61-.33,1.21-.51,1.81l-.14.42.23-.09c.08-.03.16-.06.23-.09ZM49.78,27.51l.09-.19-.06-.16-.06-.16-.02.16c-.05.36-.07.56-.05.56.01,0,.06-.09.11-.19ZM52.76,26.99s.09-.03.16,0c.05.02.14.03.2.01.06-.01.15-.07.21-.13.06-.06.18-.21.26-.33l.16-.22-.15-.14c-.12-.12-.22-.25-.3-.39-.14-.24-.16-.25-.31-.27-.08-.01-.16-.04-.24-.08-.09-.08-.16-.18-.22-.28-.1-.17-.17-.24-.27-.29-.09-.04-.17-.1-.23-.17-.06-.06-.1-.14-.12-.22-.01-.06-.04-.11-.05-.11-.02,0-.07.03-.13.06-.09.05-.11.05-.47-.06l-.37-.11.08-.14.08-.14-.12-.11c-.07-.06-.12-.14-.12-.17s.07-.13.16-.22l.16-.16-.17-.18c-.09-.1-.19-.2-.28-.31l-.11-.13-.1.07c-.19.14-.29.31-.36.59-.04.15-.09.45-.1.66l-.03.39.13.31c.13.3.13.31.29.35.1.03.22.09.33.19.12.1.26.19.41.25.26.1.82.27.9.27.04,0,.04.02,0,.1-.03.08-.05.16-.05.24,0,.08.02.2.05.27.03.07.15.27.26.45l.21.32.09-.06.15-.1ZM14.63,24.32c.02-.1.04-.2.04-.31v-.15l-.09.16c-.05.09-.13.2-.18.25l-.09.09.1.05c.05.03.12.05.14.05.02,0,.06-.07.08-.15h0ZM52.44,22.45c.08-.06.09-.09.09-.26,0-.1-.03-.24-.06-.3-.06-.12-.51-.72-.52-.71,0,0,0,.1.03.22.03.17.03.24-.02.36l-.05.15.18.32c.1.18.19.31.21.3.04-.03.09-.06.13-.09h0ZM53.51,19.16s-.46-.8-.5-.84c-.03-.04-.05-.03-.1.02-.06.07-.05.08.13.45l.19.39h.14c.08,0,.14,0,.14-.02ZM25.55,16.57c.09-.03.09-.04.03-.07-.05-.02-.1-.03-.15-.02-.05,0-.1.04-.12.09-.03.07-.02.08.05.06.05-.01.13-.04.18-.06ZM52.63,16.43l.11-.04-.08-.12c-.07-.1-.09-.12-.23-.12-.08,0-.15-.01-.23-.04-.06-.04-.12-.08-.18-.13-.1-.09-.1-.06.03.11.07.1.39.37.43.37.01,0,.07-.02.13-.04ZM10.89,52.88s.02-.03.04-.03c.02,0,.03.02.02.03-.01.02-.03.03-.04.03s-.02-.02-.02-.03ZM16.57,49.66s-.03-.02-.05-.03c-.01-.01-.02-.03-.03-.05-.01-.03-.03-.08-.04-.11-.01-.03,0-.04.06-.03.05,0,.1.05.13.13.03.06.03.11.02.11-.01,0-.05-.01-.08-.02ZM14.14,48.47c-.05-.04-.09-.09-.08-.1.03-.04.11.02.16.11.02.04.03.06.03.06,0,0-.05-.03-.11-.07ZM52.48,48.48c.05-.14.41-.74.57-.96.1-.13.18-.27.26-.42l.24-.5c.1-.21.29-.51.52-.81.33-.44.51-.71.9-1.4l.13-.23-.02.15c-.02.18-.14.52-.29.84-.09.19-.19.38-.3.57-.35.6-1.08,1.76-1.29,2.03-.32.42-.64.79-.7.79-.03,0-.04-.02-.03-.06ZM13.85,46.83c-.11-.04-.18-.11-.18-.17,0-.05.12-.03.27.04.09.04.14.09.14.11,0,.01-.01.02-.03.03-.01,0-.02.01-.04.02-.03,0-.1-.01-.16-.04ZM13.16,46.44c-.07-.04-.15-.07-.23-.08-.03,0-.07.03-.09.06-.03.05-.05.04-.15-.07-.08-.08-.17-.15-.27-.2-.18-.09-.27-.16-.32-.26-.04-.07-.03-.07.07,0l.18.12s.09.04.1.03c.01-.01-.07-.13-.17-.26-.07-.08-.13-.16-.18-.25,0,0,.12.04.25.11.31.16,1.17.9,1.03.89-.02,0-.11-.04-.2-.09h0ZM11.51,45.61c-.08-.11-.14-.2-.13-.21.02-.02.26.18.34.3.07.1.07.1,0,.1-.04,0-.13-.08-.22-.19ZM11.63,45.27c-.14-.08-.31-.2-.35-.23-.03-.03-.04-.07-.04-.11s-.06-.14-.14-.23c-.09-.11-.17-.22-.24-.34-.05-.09-.11-.17-.19-.24-.11-.11-.21-.23-.3-.36-.09-.13-.19-.26-.29-.38-.04-.04-.1-.08-.13-.08-.07,0-.14-.1-.14-.2,0-.15.15-.02.45.38.11.16.24.31.37.46.03.02.18.2.33.4.15.19.31.37.35.39.05.02.08.06.08.08,0,.02.09.12.19.22.18.18.24.3.15.3-.04,0-.08-.02-.12-.04ZM9.63,42.03c-.24-.5-.42-.96-.7-1.77,0-.02-.05-.04-.08-.04-.05,0-.07-.02-.07-.08,0-.05-.03-.15-.07-.24-.09-.21-.3-.54-.35-.54-.02,0-.03.03-.02.06.06.23.06.23.03.2-.09-.08-.45-1.47-.66-2.51-.17-.89-.31-1.8-.4-2.7-.04-.5-.07-.99-.09-1.49-.03-.68-.03-1.16,0-1.84.02-.51.06-1.18.09-1.49.08-.76.18-1.52.31-2.28.5-2.68,1.41-5.26,2.72-7.65.38-.7.8-1.39,1.25-2.05.39-.57.8-1.14,1.23-1.68.48-.59.98-1.16,1.5-1.72.46-.49,1.3-1.29,1.89-1.79.53-.45,1.64-1.32,1.5-1.17-.02.03-.04.06-.04.07s.21-.08.47-.2c.16-.08.33-.16.49-.22.02,0-.03.05-.09.1l-.12.1h.41l-.07.08s-.07.09-.06.12c0,.02-.05.07-.13.1-.08.04-.26.14-.39.24-.13.1-.47.33-.75.52-.28.19-.54.4-.78.63-.15.16-.5.47-.76.7-.23.19-.45.39-.66.6l-.17.18.12-.02c.1-.02.11-.01.09.04-.01.03-.05.13-.08.21-.05.13-.05.15,0,.18.03.02.08.02.13,0,.06-.02.08-.02.06,0-.01.02-.19.18-.39.35-.13.11-.26.22-.38.35,0,.02.02.02.05,0,.03-.01,0,.03-.06.09-.08.07-.12.13-.11.17.01.04-.03.12-.11.22-.25.32-.47.67-.66,1.03-.18.34-.46.7-.46.58,0-.03-.02-.06-.03-.06-.02,0-.07.05-.11.1-.11.15-.24.46-.24.55,0,.06.02.08.1.1l.1.02-.19.28c-.1.15-.18.28-.18.29,0,0,.08-.05.17-.12.09-.08.21-.14.29-.16.07-.01.14-.02.16,0,.02.01-.02.09-.09.18-.1.13-.14.25-.12.37,0,.01-.03.1-.08.19-.04.09-.09.2-.11.24-.02.07-.01.08.07.08s.09.01.09.12c0,.07.02.12.03.12s.08-.07.13-.15c.05-.08.11-.16.13-.17.03-.02.06-.03.09-.03.04,0,.04.04.03.2-.02.18-.04.21-.22.4-.13.13-.17.19-.11.16.05-.02.13-.07.18-.11.05-.04.12-.06.18-.06.05,0,.13-.04.18-.1.06-.07.12-.16.16-.24.04-.09.13-.19.24-.27.14-.1.17-.15.19-.27.04-.23.17-.49.34-.65.09-.08.26-.25.38-.37.21-.22.71-.58.74-.55.03.03-.22.44-.47.78-.13.17-.25.34-.36.53-.08.15-.14.22-.25.26-.18.08-.24.18-.21.35.02.12.01.14-.08.21-.1.07-.17.18-.21.29,0,.01.02.02.04.02s.09-.04.14-.1l.1-.1-.03.12c-.02.08-.05.17-.09.24-.03.07-.17.24-.3.38-.19.2-.33.44-.41.7-.02.08-.02.08.09-.02.06-.06.19-.16.27-.22.11-.09.2-.19.29-.29.08-.1.17-.18.21-.19.04-.01.11-.07.15-.14.18-.29.26-.38.34-.44.08-.05.1-.05.13-.01.02.03.03.17.02.31,0,.17-.04.34-.12.49-.05.11-.12.21-.2.3-.05.04-.1.07-.11.07-.01,0-.04-.04-.06-.09-.04-.09-.04-.09-.14.13-.07.15-.12.3-.16.45-.03.11-.07.21-.14.31-.15.15-.34.27-.54.35l-.18.07-.05-.09c-.04-.07-.04-.11-.01-.17.03-.06.02-.09-.03-.15-.06-.07-.07-.07-.11-.01-.03.05-.05.11-.04.18,0,.06-.01.11-.03.11-.02,0-.13.08-.25.18-.17.14-.22.17-.25.13-.03-.05-.02-.23.02-.44l.02-.1-.07.1c-.11.15-.13.31-.06.46l.06.13-.31.28c-.29.27-.31.28-.32.19,0-.04-.02-.09-.04-.12-.02-.02-.09.02-.17.09-.05.05-.12.1-.19.13-.03,0-.06.05-.08.11-.02.06-.05.11-.09.15-.04.03-.08.03-.13,0-.06-.04-.08-.03-.17.07-.06.07-.13.12-.2.16-.05.03-.27.23-.47.45-.33.35-.4.45-.56.79-.19.37-.19.39-.13.47.05.08.05.1-.03.29-.06.14-.1.28-.14.43-.04.17-.09.25-.17.32l-.11.09h.09s.12.02.16.05c.05.04.08.12.12.34.03.16.04.42.03.58-.01.23,0,.32.05.46.04.11.06.23.06.34,0,.15.01.19.1.26.05.04.09.09.12.15.02.04.05.08.09.09.06.02.06.03-.03.23-.05.11-.11.27-.12.35-.01.08-.06.24-.11.35-.1.23-.11.37-.07.93.03.34.07.54.13.54.02,0,.04-.03.05-.07.01-.04.08-.12.14-.17.1-.09.13-.13.14-.29,0-.1.06-.37.1-.6.04-.19.07-.38.1-.58.02-.16.02-.16.16-.18.08-.01.21-.05.29-.09.12-.06.22-.16.3-.27.09-.13.15-.26.2-.4.09-.29.16-.81.13-1.03-.01-.08,0-.17.02-.25.02-.04.13-.16.24-.27.17-.17.21-.23.29-.48.05-.15.09-.31.09-.35s.07-.13.15-.21c.14-.13.16-.17.18-.33.02-.12.05-.23.09-.34.04-.1.09-.15.15-.17.05-.01.09-.02.09,0l.1.16c.05.08.14.17.21.2.06.03.12.04.14.03.07-.04.09.1.09.52v.44l.14.12.14.12-.14.29c-.07.13-.12.27-.16.41-.02.09-.05.18-.09.26-.03.07-.06.15-.07.23,0,.05.02.15.05.22.03.07.05.17.05.23,0,.06.02.12.06.14.04.02.1.01.19-.03.07-.04.14-.09.15-.12.01-.03.06-.07.1-.09.05-.02.12-.1.17-.18.38-.64.44-.72.48-.7.03.01.04.05.02.15-.02.07-.03.27-.03.44,0,.19-.01.38-.03.57-.02.2-.02.37.02.7l.06.44-.11.11c-.07.07-.11.14-.11.21,0,.06.05.21.12.35.07.14.11.26.1.31-.01.06.01.09.12.14.1.05.14.1.16.17.02.09.05.11.19.17l.17.06-.22.13c-.08.05-.16.1-.24.16-.01.01.06.02.16.01.15,0,.19,0,.21.05.01.03,0,.09-.02.14-.04.08-.03.08.11.09.12,0,.15.03.19.11.04.09.04.13-.02.31-.04.13-.06.23-.04.25.05.06.04.18-.04.28-.06.07-.13.13-.21.18-.12.07-.16.08-.32.06-.14-.02-.21,0-.25.02-.03.03-.08.1-.12.17-.04.08-.13.16-.22.22l-.15.09-.32-.08c-.34-.09-.67-.2-.99-.33l-.18-.08-.1.07c-.07.06-.13.14-.18.23-.06.13-.09.16-.17.16-.06,0-.13.03-.18.06-.05.03-.23.22-.41.42-.23.26-.3.37-.26.38.03,0,.14-.08.26-.21.11-.13.25-.24.41-.32.14-.07.29-.11.45-.1.22,0,.26.01.34.08.13.12.12.28-.02.44l-.11.12-.09-.07c-.1-.08-.18-.06-.1.03.03.03.05.08.05.1,0,.03.03.04.1.02.07-.01.11,0,.14.03.03.03.03.06,0,.07-.07.04-.1.26-.07.47.03.19.04.22.25.42.18.18.24.21.32.2.09,0,.12.01.2.13.05.08.09.15.09.16,0,.01-.08.04-.18.06-.1.02-.29.07-.41.11-.15.04-.29.11-.39.23-.09.09-.18.15-.2.14-.06-.02-.12-.22-.13-.38,0-.09.03-.17.09-.25.09-.11.09-.12.02-.15-.03-.02-.07-.03-.1-.04-.06,0-.15.11-.13.16.01.03-.02.05-.11.05-.07,0-.25.03-.4.07-.19.05-.3.09-.37.16-.08.08-.1.13-.1.25,0,.09.04.23.09.35.07.14.08.21.06.25-.02.03-.11.06-.24.08-.13.01-.22.04-.24.08-.03.04-.09.05-.22.05-.13,0-.19,0-.21.04-.02.03-.03.11-.03.19s-.06.31-.13.52c-.12.37-.13.41-.13.87,0,.27,0,.51,0,.55,0,.04-.06.09-.16.13-.07.03-.14.08-.19.13-.05.06-.1.13-.12.2-.01.05-.06.08-.13.09l-.11.02.02.27c.02.27.04.34.56,1.83.17.48.23.74.17.74-.02,0-.17-.28-.33-.62ZM9.29,35.51s.06-.06.05-.11c-.02-.04-.04-.08-.09-.11-.04-.02-.09-.02-.13-.01-.05.01-.07,0-.09-.05-.01-.04-.05-.07-.07-.07s-.09.02-.14.05c-.08.05-.09.05-.13-.04-.04-.08-.05-.09-.07-.03-.02.06-.03.13-.03.19,0,.08.02.15.06.19.05.05.1.06.31.04.14-.01.28-.04.32-.06ZM9.88,35.27c.04-.17.04-.19-.01-.24-.05-.05-.06-.05-.1,0-.04.06-.05.06-.14-.03-.05-.05-.13-.09-.17-.09-.09,0-.2.08-.2.15,0,.06.11.16.18.16.03,0,.1.06.16.12.06.08.12.12.17.11.06,0,.08-.05.12-.2h0ZM8.93,34.65c.02-.12.05-.24.08-.35l.06-.2.07.18c.06.17.07.18.13.13.05-.05.05-.08,0-.42-.06-.33-.08-.39-.2-.53-.07-.09-.18-.23-.23-.31-.09-.14-.1-.18-.12-.61-.01-.28-.04-.49-.06-.53-.03-.09-.05-.19-.04-.29.01-.13-.01-.26-.08-.38-.02-.06-.06-.12-.1-.16-.01,0-.05.05-.09.11-.06.09-.1.11-.22.12-.11,0-.16.03-.22.11-.04.05-.07.11-.07.12s.02.02.05.02c.04,0,.05.04.05.13,0,.07.01.15.03.18.02.03.07.04.18.03l.14-.02-.02.1c-.01.05-.01.15,0,.21.01.06.09.18.17.27.1.11.16.21.19.32.02.07.03.13.04.2,0,.02-.03,0-.07-.05-.05-.06-.11-.11-.17-.14-.09-.05-.11-.05-.19.03-.05.06-.09.14-.12.22-.05.2-.11.77-.11,1.09,0,.16.02.33.05.39l.05.1.05-.13c.03-.07.07-.29.09-.5.02-.2.05-.43.07-.5.03-.09.08-.17.14-.25l.1-.12.06.13c.03.07.07.2.08.28s0,.24-.02.35c-.02.08-.04.17-.06.25,0,.03.02.05.08.05h.1s-.01.32-.01.32c-.01.31-.01.31.06.25.04-.03.08-.13.09-.22h0ZM10.59,33.16c0-.09-.02-.17-.03-.18,0,0-.05,0-.1.03l-.09.05.11.13s.07.09.12.13c0,0,0-.07,0-.16ZM11.06,32.15c.08-.07.14-.16.14-.19,0-.08-.14-.08-.24,0-.04.03-.08.12-.09.19-.01.08,0,.13.01.13s.1-.06.18-.13ZM14.47,31.71c.11-.09.15-.14.13-.17-.02-.02-.05-.02-.09,0-.03.02-.1.04-.17.03h-.11s0,.15,0,.15c0,.1.01.15.03.14l.2-.16ZM13.26,31.26s.07-.02.12.02c.07.06.2.08.28.03.06-.04.04-.23-.03-.23-.03,0-.07,0-.09,0-.03,0-.04-.06-.04-.13v-.13l-.07.11c-.04.06-.09.11-.12.11s-.09-.01-.13-.03c-.08-.03-.08-.03-.08.22,0,.14,0,.28.01.32,0,.04.02,0,.05-.08.02-.08.07-.17.1-.19h0ZM8.56,30.74c.03-.13.03-.18,0-.22-.02-.03-.05-.05-.07-.05-.02,0-.04.07-.06.16-.02.08-.02.17,0,.25.02.05.04.07.06.05.02-.02.05-.11.07-.2h0ZM12.33,30.82c-.01-.06-.01-.12,0-.18.02-.07.03-.07.07-.02.04.05.05.05.09,0,.04-.05.04-.08-.03-.18-.04-.07-.1-.13-.13-.14-.03,0-.09.05-.14.14-.04.07-.07.14-.09.21,0,.03.05.11.1.16.06.06.11.1.12.1.01,0,.01-.05,0-.1ZM13.39,35.63l-.07-.16.15-.19.15-.19.02.14c.03.16.12.35.17.35.02,0,.03.01.03.03,0,.03-.29.18-.35.18-.02,0-.07-.07-.1-.16ZM15.53,35.53c-.08-.02-.13-.06-.13-.09,0-.03.02-.13.05-.23.03-.09.05-.18.05-.2s-.02-.03-.04-.03c-.02,0-.11.09-.19.19-.13.17-.16.19-.27.19h-.12l.09-.12c.05-.07.09-.14.07-.17-.02-.06-.42-.16-.73-.19-.23-.02-.25-.03-.28-.12-.03-.08-.02-.11.07-.21.06-.06.24-.37.4-.69.2-.39.34-.62.45-.74.12-.13.18-.17.27-.17h.11l-.15.31c-.09.19-.14.34-.13.38.02.05.05.09.09.12.04.03.09.08.11.13.03.06.08.08.23.1.12.01.2.04.23.08.03.03.04.09.02.12-.11.25-.15.38-.12.38.02,0,.07-.02.12-.06.08-.05.09-.05.09,0,0,.03-.05.1-.1.16-.08.07-.1.13-.1.21v.11l.1-.1c.09-.08.11-.09.14-.05.04.07.04.37-.01.54-.05.15-.09.17-.31.12ZM12.93,35.31c-.07-.09-.13-.19-.14-.21-.01-.03.04-.02.12.03.08.04.18.07.23.07.04,0,.08,0,.08.02s-.04.07-.08.14l-.08.12-.12-.17ZM13.3,33.89c-.19-.13-.29-.22-.35-.33-.05-.1-.07-.24-.02-.24.18.08.34.2.46.36.09.13.13.3.07.3-.02,0-.09-.04-.16-.09ZM9.89,30.22c-.06-.07-.07-.11-.04-.16.02-.03.04-.06.07-.08.04-.03.11.22.08.29-.02.04-.04.03-.1-.04ZM10.68,28.77c0-.06.01-.11.02-.17.02-.1.04-.14.13-.16.04-.01.08-.03.12-.04,0,0,.01.08.01.17,0,.16,0,.17-.11.21-.04.02-.09.03-.14.04-.02,0-.03-.02-.03-.04ZM14.61,26.81s-.03-.07-.04-.1c0-.02.03-.08.07-.13.06-.07.08-.08.1-.05.05.07.03.18-.04.27l-.07.08-.04-.07ZM12.21,25.38c0-.14.13-.39.22-.41.11-.02.1.09-.03.28-.07.1-.14.2-.16.22-.02.02-.03-.02-.03-.09h0ZM11.9,24.68c.03-.11.19-.27.27-.27.02,0,.08.03.13.06.08.05.08.06.02.13-.07.08-.31.2-.4.2-.05,0-.05-.02-.03-.11ZM12.94,24.64c0-.12.01-.16.05-.16.03,0,.07.03.08.06.04.08,0,.23-.07.24-.05.01-.06-.02-.06-.15ZM13.18,24.62c0-.1.01-.14.04-.13.03.02.06.04.08.07.03.04.03.08,0,.12-.02.03-.05.06-.08.07-.03,0-.04-.03-.04-.13ZM12.61,24.16c-.05-.1-.05-.12,0-.21.03-.06.05-.12.03-.14-.02-.03-.02-.07-.02-.1.02-.1-.06-.07-.13.04-.03.06-.08.1-.11.1s-.08.04-.13.09c-.05.05-.12.09-.17.09h-.09l.09-.17c.05-.09.09-.18.09-.19,0-.01-.02-.02-.05-.02s-.05-.01-.05-.03.03-.08.07-.14c.04-.06.09-.11.11-.11.03,0,.15-.16.29-.36.27-.41.49-.67.52-.64.01.01,0,.11-.01.22-.03.21-.05.42-.07.63-.03.33-.05.45-.11.54-.06.1-.06.12-.02.14.08.03.06.19-.03.28-.05.05-.1.09-.12.09s-.06-.05-.09-.11h0ZM14.67,22.24s.05-.11.1-.2c.11-.19.35-.43.44-.43.05,0,.05.02.04.13-.01.08-.04.15-.09.21-.05.07-.12.13-.18.18-.12.1-.31.17-.31.11ZM15.21,22.14c-.06-.05-.06-.05.02-.17l.09-.13.03.1c.02.06.02.12,0,.17-.02.04-.04.08-.06.08-.01,0-.05-.02-.09-.05h0ZM15.07,21.02s.06-.09.15-.16c.2-.15.23-.1.06.08-.11.11-.18.14-.21.08ZM13.57,19.42c.01-.12.04-.23.08-.34.04-.11.08-.14.16-.16.06-.01.17-.08.24-.16.07-.08.16-.14.19-.14s.05,0,.05.02c0,.01-.03.07-.07.12-.04.06-.07.14-.06.2,0,.08-.02.14-.15.27-.07.07-.13.15-.18.24-.01.04-.07.09-.13.11-.06.02-.12.04-.12.04,0,0,0-.09,0-.2ZM13.58,18.54s-.05-.1-.05-.12c0-.05-.08-.06-.13,0-.03.03-.03.02-.02-.03.02-.07,0-.07-.11-.05-.13.02-.13.02-.09-.06.03-.06.07-.11.11-.16q.07-.08.16,0s.11.07.13.07.06-.05.09-.11c.02-.06.08-.15.12-.19l.07-.08-.12.06c-.09.05-.12.05-.14.02-.02-.03-.05-.03-.14,0-.04.01-.08.03-.12.04,0,0,0-.09,0-.19,0-.19,0-.2.23-.42.15-.14.26-.31.35-.49.09-.2.17-.31.34-.46l.22-.21.02.11c.01.07,0,.18-.04.3-.03.07-.05.15-.05.23,0,.02.08-.07.16-.19.09-.14.16-.3.2-.46.05-.21.07-.25.24-.43l.19-.19.07.09c.06.07.07.08.1.03.02-.03.03-.1.03-.16,0-.08.03-.14.13-.22.07-.06.22-.17.34-.25.21-.13.45-.22.69-.26l.14-.02-.08.11c-.04.06-.21.27-.37.48-.19.24-.27.36-.22.35.04-.01.07-.01.07,0,0,.01-.12.15-.27.31l-.27.28.21-.17c.11-.09.32-.27.46-.39.14-.12.26-.21.27-.2,0,0-.01.07-.04.13-.03.06-.37.41-.74.78-.28.27-.56.55-.84.83-.11.11-.23.29-.34.54-.09.19-.2.36-.32.52l-.14.15-.02-.11c0-.06-.04-.12-.06-.13-.02,0-.06.04-.08.12-.03.12-.1.23-.2.3-.07.06-.08.06-.13-.02ZM15.18,17.64s.16-.25.32-.49c.16-.25.29-.47.29-.49,0-.02.11-.14.24-.27.22-.21.31-.27.31-.21,0,.01-.06.1-.12.19-.07.09-.11.17-.09.17.05,0,.32-.3.45-.49.06-.09.13-.16.22-.22.07-.04.16-.05.24-.03.1.02.13.04.13.08,0,.04-.05.06-.12.07-.06,0-.11.03-.11.04s.03.04.06.05c.05.02.04.04-.08.14-.08.07-.23.18-.34.25-.16.1-.2.14-.18.19.02.05-.06.15-.38.46-.22.22-.42.4-.44.4s-.12.05-.23.11c-.1.06-.17.09-.16.06ZM15.75,17.51s.24-.29.63-.67c.35-.33.67-.63.72-.66.05-.03.12-.06.16-.06.05,0,.06.02.04.09-.02.08-.03.16-.02.24,0,.13-.01.16-.14.26-.08.07-.3.22-.48.35-.31.21-.34.23-.35.15-.01-.07-.03-.06-.22.11-.09.08-.17.15-.27.22-.05.02-.06.02-.06-.03ZM17.98,16.85s0-.06,0-.1c.02-.05.01-.07-.02-.05-.02.01-.08-.02-.14-.07-.09-.09-.1-.12-.1-.31,0-.12.02-.26.05-.32.05-.13.52-.62.61-.65.1-.03.44-.45.49-.61.02-.07.16-.26.3-.41.14-.15.27-.28.29-.28.07,0,.03.14-.11.32-.12.17-.13.19-.08.23.03.02.05.06.03.08-.01.02-.01.04,0,.04.01,0,.08-.03.16-.08.1-.06.14-.07.18-.03.02.02.05.04.07.04s.03-.03.05-.07c.01-.04.11-.17.22-.29.16-.18.21-.22.29-.21.09.01.1,0,.14-.26l.04-.27.38-.38c.28-.28.39-.37.41-.33.02.03.06,0,.15-.14.08-.12.18-.23.29-.33.37-.31.92-.74.94-.74.01,0,.11-.07.22-.16.07-.06.14-.11.22-.16.02,0,.08-.05.14-.1.08-.07.17-.13.26-.19.33-.19.66-.39.98-.59.09-.06.1-.06.1,0,0,.03-.11.28-.24.55-.24.48-.24.49-.74,1.01-.28.29-.57.56-.87.82-.2.16-.39.3-.41.3s-.03.02-.03.05c0,.06-.23.27-.28.26-.03,0-.12,0-.21.02-.09.01-.17.05-.18.07,0,.02,0,.07.01.09.04.06-.1.25-.16.23-.03-.01-.07.03-.11.1-.03.06-.19.24-.36.4-.21.2-.32.28-.36.26-.04-.02-.13.04-.29.2-.12.12-.25.23-.38.34-.11.09-.14.13-.12.19.02.05-.02.11-.16.24-.1.09-.19.16-.21.15-.02-.01-.09.01-.15.05-.06.04-.12.06-.14.05,0-.01.03-.06.08-.12.1-.1.11-.17,0-.17-.03,0-.05-.03-.05-.07,0-.07-.05-.09-.09-.03-.01.02-.04.03-.05.03-.02,0-.02-.09,0-.22.02-.21.02-.21-.05-.15-.04.03-.08.06-.09.06-.01,0-.02-.03-.02-.08,0-.05-.04-.02-.13.13-.06.1-.12.19-.2.28-.04.04-.06.08-.04.08s.03.06.03.13v.13s.13-.01.13-.01c.12-.01.13,0,.11.06-.02.06-.01.07.05.05.04-.01.07-.01.07,0s-.02.07-.05.11c-.03.04-.04.09-.03.11.03.05-.14.33-.24.38-.05.03-.09.07-.1.13-.01.05-.03.08-.05.08s-.07.03-.13.08c-.1.08-.28.11-.31.06h0ZM16.46,15.64c.09-.12.2-.22.31-.31.08-.04.08-.04.08.04,0,.05-.05.14-.1.21-.11.13-.41.33-.48.33-.02,0,.06-.12.19-.27ZM17.69,15.74s.04-.14.08-.21c.09-.13.47-.45.54-.45s-.12.26-.39.52c-.21.2-.22.21-.22.13ZM39.24,15.43c-.1-.06-.19-.12-.29-.18,0,0,.11-.04.27-.07.16-.03.29-.05.29-.05,0,0,.02.11.03.24.01.13.01.23,0,.23-.02,0-.15-.08-.3-.17ZM17.86,15.12c0-.08.04-.14.16-.25.11-.09.2-.14.26-.14.05,0,.1-.02.1-.04,0-.04-.02-.07-.04-.11-.03-.06-.02-.08.03-.12.04-.03.07-.07.07-.1s.02-.05.04-.05c.02,0,.08-.04.12-.09.05-.05.09-.08.09-.06,0,.02.03-.02.07-.08.07-.12.15-.15.19-.06.01.03,0,.08-.03.11-.09.12-.05.13.06.02.05-.06.11-.11.18-.15.06-.03.07-.03.05.02-.01.03,0,.06.02.06s-.02.06-.1.14c-.3.27-.61.53-.93.77-.08.05-.18.13-.23.17l-.09.07v-.1ZM18.19,15.05s.05-.03.08-.03c.05,0,.05,0,0,.03-.07.04-.11.04-.09,0ZM15.56,14.99s0-.05-.03-.05c-.03,0,.09-.14.28-.32.34-.33.39-.36,1.25-.78.18-.09.35-.19.51-.29.17-.12.2-.13.25-.09.05.04.04.06-.05.15-.07.07-.12.14-.16.22-.03.07-.21.26-.43.46l-.38.34h-.2c-.13,0-.25.02-.33.07-.07.04-.14.07-.22.09-.05.01-.17.08-.28.14-.1.07-.2.12-.21.12,0,0,0-.02,0-.05ZM17.93,14.68s.04-.07.09-.12c.05-.05.12-.1.14-.1.04,0,.03.02-.03.09-.09.1-.2.17-.2.13h0ZM17.83,14.44c.03-.08.03-.09-.12-.09-.13,0-.15-.01-.15-.07,0-.04.07-.12.15-.19.13-.1.17-.12.22-.09.04.02.09.04.11.04.03,0,.04-.04.03-.15-.01-.14,0-.17.12-.3.1-.11.26-.21.64-.4.28-.14.53-.26.56-.26.07,0-.23.29-.64.62-.21.16-.37.31-.37.33,0,.06.1.02.23-.09.05-.05.11-.09.17-.12.02,0,.07-.04.12-.09.11-.12.38-.32.49-.36.05-.02.09-.03.09-.02s-.18.16-.4.34c-.28.23-.38.33-.35.34.04.01.02.05-.09.16-.19.18-.69.5-.78.5-.06,0-.07-.01-.04-.09h0ZM19.6,14.36s.25-.25.27-.23c0,0-.02.06-.07.11-.1.11-.2.17-.2.12h0ZM38.13,14.15c-.33-.07-.59-.21-.76-.4-.1-.11-1.66-1.12-1.83-1.19-.1-.04-.27-.18-.56-.46l-.41-.4.02-.15c.02-.11,0-.16-.03-.21-.03-.03-.15-.11-.26-.16-.15-.07-.21-.13-.24-.2-.02-.04-.03-.07-.03-.11,0,0,.19.04.4.09.22.05.4.12.42.14.26.33.55.64.86.92.38.34,1.26.97,1.76,1.27.18.11.38.21.57.3.14.05.29.1.45.12.13.02.3.02.4.01.15-.02.18-.01.27.07.05.05.1.11.1.12s-.1.08-.22.14c-.15.08-.32.12-.49.12-.15,0-.34,0-.41-.02ZM19.79,13.89c.02-.07.05-.14.1-.19.05-.04.1-.08.12-.08.05,0,.04.12-.03.21-.06.09-.15.17-.19.17-.01,0-.02-.05,0-.11ZM18.99,13.9c.05-.08.29-.28.29-.25,0,.02-.07.09-.16.17-.09.07-.15.11-.13.08ZM19.2,13.87s.05-.03.09-.03.06.02.05.03c-.01.02-.05.03-.09.03s-.06-.02-.05-.03ZM20.18,13.47s.07-.11.15-.18c.08-.07.22-.19.3-.28.19-.18.41-.35.43-.33,0,0-.16.2-.37.42-.36.37-.51.48-.51.36h0ZM20.12,13.25c0-.08.18-.26.25-.23.03.01.12-.05.23-.18.1-.11.18-.21.18-.22,0-.05.22-.21.32-.23.05-.01.14-.07.19-.14.1-.14.53-.45.56-.42.03.03-.66.67-1.2,1.1-.16.13-.33.26-.5.38-.01,0-.03-.03-.03-.06ZM18.78,13.09c.1-.08.32-.18.35-.15,0,0-.09.06-.22.13-.22.1-.23.11-.13.02ZM19.44,12.75c.05-.04.1-.08.15-.13,0-.01-.07.03-.18.09-.08.05-.16.08-.24.11-.07,0,.16-.23.35-.35.08-.05.26-.13.39-.17.13-.04.32-.11.43-.16.15-.07.21-.08.23-.04.02.03-.03.09-.15.17-.07.05-.14.1-.22.13-.02,0-.14.07-.27.16-.13.09-.26.16-.4.23-.1.04-.19.07-.2.07-.01,0,.04-.05.11-.11ZM20.13,12.67s.02-.06.02-.07c0,0,.09-.07.2-.15.11-.08.23-.17.27-.21.05-.05.11-.1.17-.13.1-.05.1-.05.05.01-.04.05-.07.1-.08.16-.02.06-.07.11-.15.15-.1.05-.2.11-.29.18-.06.05-.12.08-.19.12-.01,0-.02-.03,0-.05h0ZM20.91,12.25s.05-.09.12-.17c.13-.15.28-.24.38-.22.04,0-.02.07-.18.19-.27.2-.32.24-.32.2h0ZM37.54,11.59c-.14-.05-.25-.14-.22-.17.02-.02.48.05.48.08,0,.04-.08.15-.1.15-.01,0-.09-.02-.16-.05ZM30.48,11.34c-.09-.02-.19-.03-.28-.03-.17,0-.2-.02-.32-.13l-.13-.13.07-.09s.07-.12.07-.16c0-.04-.04-.11-.11-.15-.06-.04-.28-.15-.49-.25-.25-.11-.36-.17-.3-.17.05,0,.22.05.39.11.18.07.32.1.36.08.06-.02.05-.03-.02-.08-.08-.05-.17-.1-.26-.14l-.18-.08h.23c.23.03.51.13.64.24.04.03.13.08.21.11.08.02.2.09.28.14.09.06.19.1.29.12l.15.02-.1.05c-.05.03-.13.09-.17.14l-.08.09-.27-.13c-.27-.13-.39-.16-.39-.1,0,.05.19.2.26.23l.33.09.26.08-.14.08c-.08.05-.15.08-.17.08-.04,0-.08-.02-.12-.03ZM29.32,9.32c-.42-.03-.78-.08-.73-.09.26-.04.52-.07.78-.1.42-.05.85-.12,1.26-.22l.52-.13.44.09.44.09h-.31c-.27,0-.34.02-.52.11-.14.06-.28.12-.42.16-.22.06-.78.12-.99.12-.07,0-.28-.02-.47-.03ZM29.78,7.91s.03-.1.02-.13c-.01-.03-.06-.06-.1-.08-.05-.01-.08-.03-.08-.05,0-.01.12-.05.27-.09.22-.05.4-.06.96-.05h.69s-.55.19-.55.19c-.3.1-.64.19-.75.2-.11.01-.26.03-.34.04-.14.02-.15.02-.11-.05h0ZM31.63,7.37s.09-.07.21-.13c.2-.1.22-.1.4-.07.1.02.19.04.18.05,0,0-.16.04-.34.07-.18.03-.36.06-.39.07-.03,0-.06,0-.06,0Z"/>
  <path class="cls-3" d="M31.29,52.32c2.15-2.47,3.22-3.95,4.53-6.22,1.5-2.61,2.62-5.41,3.34-8.33l.04-.17h.4c.46.02,1.09.12,1.77.29.76.19.86.2.98.08.06-.06.1-.16.1-.27,0-.15-.05-.23-.35-.55-.81-.87-1.21-1.43-1.59-2.24-.53-1.12-.69-2.04-.61-3.43.1-1.74.72-3.42,2.08-5.63.25-.4.48-.79.51-.85.08-.16.03-.43-.1-.58-.13-.14-.4-.15-1.02-.04-.72.12-1.45.21-2.18.25l-.6.03-.21-.61c-.71-2.03-1.62-3.98-2.72-5.82-.72-1.18-1.86-2.83-2.37-3.41-.17-.2-.33-.4-.49-.61-.24-.31-.49-.61-.75-.9-.24-.27-.41-.5-.38-.51.08-.03,2.73.88,4.29,1.46,3.53,1.32,6.1,2.43,9.23,4,2.44,1.22,3.95,2.07,4.63,2.6l.26.21-.02.85c-.12,4.62-.62,8.04-1.66,11.54-.39,1.35-.91,2.65-1.56,3.9-2.45,4.74-7.12,9.58-13.07,13.54-.95.64-2.54,1.62-2.61,1.62-.02,0,.04-.08.13-.19h0Z"/>
  <path class="cls-4" d="M32.16,50.46c-1.26-.66-2.95-1.77-4.37-2.87-.7-.55-1.39-1.13-2.05-1.72-.85-.78-1.66-1.6-2.45-2.45-.29-.33-.57-.65-.85-.99-.58-.71-1.14-1.45-1.67-2.2-.62-.91-1.19-1.84-1.7-2.81-.43-.81-.92-1.97-1.29-3.07-.41-1.19-.76-2.51-1.04-3.84-.29-1.44-.51-2.89-.66-4.35-.15-1.49-.26-3.48-.26-4.65v-.45l.46-.25c.53-.28,1.07-.56,1.6-.83,1.54-.79,3.12-1.53,4.72-2.2,1.57-.67,3.16-1.29,4.77-1.86,1.37-.48,2.75-.94,4.14-1.37,1.23-.36,1.25-.37,1.27-.34l.2.24.18.22-.28.25c-.4.35-1.09,1.05-1.5,1.52-.79.94-1.5,1.95-2.12,3.01-.82,1.44-1.51,2.95-2.04,4.52-.27.79-.51,1.6-.71,2.41-.12.5-.17.64-.23.68-.12.1-1.01.53-1.4.68-.19.08-.53.2-.75.27-.56.17-1.12.31-1.7.42-.15.02-.3.06-.44.1-.08.04-.14.09-.19.16-.04.06-.06.14-.07.21,0,.05.02.14.05.19.03.05.09.12.13.15.05.03.27.12.5.2.52.18,1.03.39,1.51.65.52.26,1.27.74,1.64,1.04l.21.17v.8c-.01.44,0,1.08.02,1.44.05.88.15,1.76.3,2.64.38,2.23,1.01,4.4,1.9,6.48.36.84.76,1.67,1.19,2.47.34.61.71,1.21,1.09,1.8.4.59.83,1.16,1.28,1.71.16.19.56.62.89.95l.6.6-.2.25c-.06.09-.14.18-.22.25-.01,0-.23-.11-.49-.25Z"/>
  <path class="cls-7" d="M33.51,40.72c-.42-.07-1.18-.23-2.19-.48-.56-.14-1.13-.27-1.7-.4-.59-.12-1.18-.21-1.39-.21-.07,0-.13,0-.19-.03-.03-.02-.01-.1.08-.34.27-.7.45-1.44.53-2.18.05-.46.04-1.27-.02-1.74-.09-.72-.29-1.42-.6-2.07-.11-.24-.24-.47-.37-.7-.12-.2-.26-.39-.39-.57-.22-.26-.44-.52-.69-.76-.27-.27-.55-.51-.84-.75-.24-.18-.49-.35-.75-.51-.43-.27-1.25-.68-1.75-.88-.19-.07-.34-.14-.34-.15s.13-.05.29-.08c.43-.09,1.21-.32,1.69-.5.66-.26,1.3-.57,1.91-.93.73-.45,1.4-.99,1.99-1.6.64-.68,1.19-1.43,1.65-2.24.27-.48.63-1.27.89-1.96l.18-.49.23.37c.44.73.8,1.18,1.36,1.72.18.18.37.35.57.51.38.29.78.53,1.2.74.28.13.57.24.86.34.26.08.62.19.81.23.19.04.54.1.78.13.33.05.66.06,1.37.06.73,0,1.07-.02,1.56-.08.37-.04.73-.1,1.09-.16.16-.03.32-.06.48-.07,0,0-.07.13-.16.27-.57.86-1.06,1.77-1.48,2.72-.24.58-.45,1.18-.61,1.78-.13.51-.22,1.03-.28,1.56-.04.5-.04,1,0,1.5.05.46.14.92.26,1.37.19.62.45,1.22.79,1.78.25.4.53.78.83,1.14.08.08.14.16.13.17,0,0-.15-.02-.33-.05-.85-.18-1.72-.25-2.59-.23-.28.01-.72.05-.97.09-.29.04-.57.1-.85.17-.96.26-1.67.64-2.21,1.21-.19.18-.34.4-.45.63-.09.19-.17.39-.22.6-.04.2-.05.37-.04.62.01.19.03.38.04.41.02.06,0,.07-.19.04h0Z"/>
  <path class="cls-8" d="M108.16,24.76v-8.76h2.84v8.52c0,3.68-2.16,5.88-5.68,5.88s-5.66-2.2-5.66-5.88v-8.52h2.84v8.76c0,1.88,1.06,2.98,2.84,2.98s2.82-1.1,2.82-2.98ZM114.73,30v-14h2.84v14h-2.84ZM127.07,30v-14h2.84v6.12l6.04-6.12h3.54l-5.86,5.92,5.86,8.08h-3.48l-4.34-6.12-1.76,1.78v4.34h-2.84ZM142.77,18.16c-.9,0-1.66-.76-1.66-1.66s.76-1.66,1.66-1.66,1.64.76,1.64,1.66-.74,1.66-1.64,1.66ZM141.49,30v-10.08h2.54v10.08h-2.54ZM147.72,26.32v-4.12h-1.88v-2.28h1.88v-2.52h2.56v2.52h3.08v2.28h-3.08v4.12c0,1.12.6,1.56,1.6,1.56.7,0,1.16-.08,1.5-.22v2.22c-.5.22-1.1.32-1.94.32-2.52,0-3.72-1.42-3.72-3.88ZM161.56,30v-14h2.84v11.42h5.32v2.58h-8.16ZM175.19,30.3c-2.02,0-3.4-1.16-3.4-3.02,0-1.52,1.18-2.66,3.34-3.02l3.08-.52v-.26c0-1.06-.8-1.74-1.96-1.74-.98,0-1.74.46-2.28,1.2l-1.86-1.42c.9-1.24,2.38-2,4.22-2,2.92,0,4.42,1.74,4.42,3.96v6.52h-2.54v-.98c-.64.78-1.84,1.28-3.02,1.28ZM174.31,27.16c0,.68.54,1.12,1.4,1.12,1.16,0,2-.54,2.5-1.34v-1.42l-2.4.4c-1.06.18-1.5.62-1.5,1.24ZM194.46,24.96c0,2.94-1.92,5.44-5.12,5.44-1.38,0-2.36-.44-3.14-1.22v.82h-2.54v-15h2.54v5.74c.78-.78,1.76-1.22,3.14-1.22,3.2,0,5.12,2.5,5.12,5.44ZM188.98,21.92c-1.18,0-2.16.52-2.78,1.44v3.2c.68.94,1.64,1.44,2.78,1.44,1.72,0,2.84-1.28,2.84-3.04s-1.12-3.04-2.84-3.04ZM197.99,30.24c-.98,0-1.76-.78-1.76-1.74s.78-1.74,1.76-1.74,1.76.8,1.76,1.74-.82,1.74-1.76,1.74ZM206.35,30l5.3-14h3.72l5.3,14h-3.02l-1.34-3.64h-5.6l-1.34,3.64h-3.02ZM211.59,23.94h3.84l-1.92-5.26-1.92,5.26ZM223.03,30v-14h3.64l6.26,10.12v-10.12h2.84v14h-3.64l-6.26-10.12v10.12h-2.84ZM238.62,28.06l2.06-1.9c.84,1.08,1.96,1.72,3.1,1.72s1.8-.6,1.8-1.6c0-2.58-6.36-1.88-6.36-6.62,0-2.22,1.84-4.06,4.52-4.06,2.1,0,3.7.94,4.9,2.36l-2.08,1.88c-.82-1.06-1.74-1.76-2.8-1.76-1,0-1.66.64-1.66,1.48,0,2.54,6.36,1.82,6.36,6.62-.04,2.64-2.08,4.22-4.66,4.22-2.36,0-3.94-.86-5.18-2.34ZM250.24,28.06l2.06-1.9c.84,1.08,1.96,1.72,3.1,1.72s1.8-.6,1.8-1.6c0-2.58-6.36-1.88-6.36-6.62,0-2.22,1.84-4.06,4.52-4.06,2.1,0,3.7.94,4.9,2.36l-2.08,1.88c-.82-1.06-1.74-1.76-2.8-1.76-1,0-1.66.64-1.66,1.48,0,2.54,6.36,1.82,6.36,6.62-.04,2.64-2.08,4.22-4.66,4.22-2.36,0-3.94-.86-5.18-2.34ZM263.26,30v-14h2.84v14h-2.84Z"/>
  <path class="cls-2" d="M99.55,53v-9.8h1.32v9.8h-1.32ZM103.69,53v-7.06h1.19v.8c.57-.63,1.3-1.08,2.35-1.08,1.58,0,2.76,1.06,2.76,3.07v4.27h-1.19v-4.23c0-1.26-.71-1.99-1.81-1.99-1.02,0-1.67.59-2.11,1.33v4.89h-1.19ZM112.39,53v-7.06h1.19v.8c.57-.63,1.3-1.08,2.35-1.08,1.58,0,2.76,1.06,2.76,3.07v4.27h-1.19v-4.23c0-1.26-.71-1.99-1.81-1.99-1.02,0-1.67.59-2.11,1.33v4.89h-1.19ZM124.3,45.66c2.27,0,3.82,1.75,3.82,3.81s-1.55,3.81-3.82,3.81-3.82-1.75-3.82-3.81,1.54-3.81,3.82-3.81ZM124.31,52.16c1.47,0,2.55-1.23,2.55-2.69s-1.08-2.69-2.55-2.69-2.59,1.22-2.59,2.69,1.08,2.69,2.59,2.69ZM128.86,45.94h1.29l2.25,5.81,2.25-5.81h1.29l-2.76,7.06h-1.57l-2.76-7.06ZM139.19,53.2c-1.39,0-2.32-.77-2.32-1.97,0-1.06.81-1.82,2.31-2.07l2.38-.39v-.49c0-.98-.7-1.54-1.71-1.54-.81,0-1.47.38-1.9.98l-.9-.69c.62-.84,1.61-1.36,2.84-1.36,1.79,0,2.86,1.05,2.86,2.6v4.73h-1.19v-.9c-.53.69-1.46,1.09-2.37,1.09ZM138.07,51.18c0,.6.49,1.04,1.32,1.04.94,0,1.71-.45,2.17-1.2v-1.39l-2.09.35c-.97.17-1.4.6-1.4,1.2ZM145.54,50.63v-3.61h-1.33v-1.08h1.33v-1.76h1.2v1.76h2.45v1.08h-2.45v3.61c0,1.11.56,1.41,1.41,1.41.46,0,.78-.06,1.05-.17v1.06c-.34.14-.71.2-1.22.2-1.57,0-2.45-.78-2.45-2.51ZM151.61,44.11c-.46,0-.84-.38-.84-.84s.38-.83.84-.83.83.38.83.83-.36.84-.83.84ZM151.01,53v-7.06h1.19v7.06h-1.19ZM157.93,45.66c2.27,0,3.82,1.75,3.82,3.81s-1.55,3.81-3.82,3.81-3.82-1.75-3.82-3.81,1.54-3.81,3.82-3.81ZM157.95,52.16c1.47,0,2.55-1.23,2.55-2.69s-1.08-2.69-2.55-2.69-2.59,1.22-2.59,2.69,1.08,2.69,2.59,2.69ZM163.67,53v-7.06h1.19v.8c.57-.63,1.3-1.08,2.35-1.08,1.58,0,2.76,1.06,2.76,3.07v4.27h-1.19v-4.23c0-1.26-.71-1.99-1.81-1.99-1.02,0-1.67.59-2.11,1.33v4.89h-1.19ZM175.25,53l3.91-9.8h1.76l3.91,9.8h-1.4l-1.13-2.88h-4.51l-1.13,2.88h-1.4ZM178.22,48.98h3.64l-1.82-4.63-1.82,4.63ZM186.77,53v-9.8h1.72l5.54,8.19v-8.19h1.32v9.8h-1.72l-5.54-8.19v8.19h-1.32ZM197.71,51.66l.98-.9c.67.87,1.46,1.33,2.37,1.33,1.09,0,1.72-.66,1.72-1.55,0-2.21-4.65-1.74-4.65-4.97,0-1.46,1.2-2.65,2.91-2.65,1.37,0,2.38.63,3.11,1.6l-.99.87c-.57-.83-1.26-1.29-2.1-1.29-.97,0-1.58.6-1.58,1.44,0,2.2,4.63,1.69,4.63,4.96,0,1.69-1.3,2.77-3.04,2.77-1.44,0-2.51-.55-3.36-1.61ZM206.69,53v-9.8h1.32v9.8h-1.32Z"/>
</svg>